<svg id="Layer_1" data-name="Layer 1" xmlns="http://www.w3.org/2000/svg" viewBox="0 0 110.5 110.5"><defs><style>.cls-1{fill:#788cc6;}.cls-2{fill:#f9f181;}</style></defs><path class="cls-1" d="M69.79,174.48c-.43-10.17.2-15.24,2.26-17.55l.94-1,1.48,0c1.49,0,2.87.55,5.37,2.25a15.28,15.28,0,0,0,2.9,1.25c7.2,2,13.11-6.27,9.84-13.87l-.74-1.87-1.64-1.47c-3.21-2.86-6.68-2.88-11-.08-2.26,1.47-4,2.07-5.14,1.85l-.93-.16L72,142.55,71,141.34l-.54-2.09c-.73-2.8-1-8.66-.73-14.06.15-2.41.35-5,.31-5.75a2.77,2.77,0,0,1,.27-1.5,9.82,9.82,0,0,1,3.12,0c15.36,1.11,22.92-.45,23.79-5,.34-1.58-.32-3.24-2.13-6.32l-1.48-2.4-.16-1.62a6.93,6.93,0,0,1,1.89-5.42l1.2-1.34,1.66-.66a10.17,10.17,0,0,1,7.36-.13A6.85,6.85,0,0,1,110,99.11c1.22,2.84,1,4-2,9.39-1.15,2.19-1.53,4.27-.89,5.51,2,3.78,8.21,4.91,22.25,3.91l4.72-.34.33,7c.35,7.42.22,11.32-.66,14.56l-.52,2.08-1,1.12-1,1.12-1.06.13c-1.12.2-2.86-.55-5.72-2.3a8.67,8.67,0,0,0-6-1.5c-3.65.49-6.2,3.05-7.32,7a10.24,10.24,0,0,0,.7,7.33l.73,1.73,1.42,1.27a8,8,0,0,0,8.1,1.73,20.45,20.45,0,0,0,3.1-1.66c2.53-1.49,3.64-2,5-1.84l1.14.08.91,1.08c2.05,2.36,2.89,8.47,2.33,18.56-.16,3.48-.5,6.26-.72,6.21-1.28-.22-7.74-.49-10.93-.52-8.57,0-12.56.85-14.69,3.24-1.67,1.87-1.31,4.32,1.33,8.57l1.33,2.12.12,2.11c.2,3.53-1.44,5.82-5.11,7.38a9.12,9.12,0,0,1-9.44-1.59l-1.85-1.53-.46-1.74c-.63-2.45-.31-4.31,1.5-7.24,2.46-4.11,2.7-6.17,1-8.13-1.82-2.16-6-3.06-13.56-3.13-2.55,0-6.3.15-8.41.27a21.57,21.57,0,0,1-4,.08c-.48.24-.65-2.87-.87-6.68Z" transform="translate(-46.91 -94.35)"/><path class="cls-1" d="M127,182c-10.18.44-15.24-.2-17.55-2.26l-1-.94v-1.48c0-1.49.55-2.87,2.24-5.37a14.65,14.65,0,0,0,1.26-2.9c2-7.2-6.27-13.11-13.88-9.84l-1.87.74-1.46,1.64c-2.86,3.21-2.88,6.68-.08,11.06,1.47,2.25,2.06,4,1.85,5.13l-.16.93-1.22,1.06L93.9,180.8l-2.1.55c-2.79.72-8.65,1-14,.72-2.42-.15-5-.35-5.75-.31a2.81,2.81,0,0,1-1.51-.27,9.93,9.93,0,0,1,0-3.11c1.11-15.37-.45-22.93-5-23.8-1.58-.34-3.24.33-6.33,2.13l-2.39,1.48-1.62.16a6.93,6.93,0,0,1-5.42-1.89l-1.34-1.19-.66-1.67a10.11,10.11,0,0,1-.14-7.36,6.88,6.88,0,0,1,4.14-4.48c2.84-1.22,4-1,9.39,2,2.19,1.15,4.26,1.53,5.5.89,3.79-2,4.92-8.21,3.91-22.25l-.34-4.72,7-.33c7.41-.35,11.32-.21,14.55.67l2.09.51,1.12,1,1.12,1,.13,1.06c.2,1.12-.55,2.86-2.3,5.72a8.68,8.68,0,0,0-1.5,6c.49,3.65,3,6.2,7,7.32a10.24,10.24,0,0,0,7.33-.7l1.73-.73,1.26-1.42a8,8,0,0,0,1.74-8.1,20,20,0,0,0-1.66-3.09c-1.49-2.54-2-3.65-1.84-5l.07-1.14,1.08-.91c2.37-2,8.48-2.89,18.57-2.32,3.48.15,6.26.49,6.2.71-.21,1.28-.48,7.74-.51,10.93,0,8.57.85,12.56,3.24,14.69,1.86,1.67,4.32,1.32,8.56-1.33l2.12-1.33,2.12-.12c3.53-.2,5.82,1.44,7.37,5.11a9.08,9.08,0,0,1-1.59,9.44l-1.52,1.86-1.75.45c-2.44.63-4.3.31-7.23-1.5-4.11-2.46-6.18-2.7-8.13-1-2.17,1.82-3.06,6-3.13,13.56,0,2.55.14,6.3.26,8.42a22,22,0,0,1,.09,4c.24.48-2.87.66-6.68.87Z" transform="translate(-46.91 -94.35)"/><path class="cls-2" d="M79.75,131.62a16.21,16.21,0,0,1,22-.82,16.2,16.2,0,0,1,22.87,22.81L105.3,173a5,5,0,0,1-6.77.25l-.28-.25L78.91,153.61A16.19,16.19,0,0,1,79.75,131.62Zm3.53,3.53a11.2,11.2,0,0,0-.37,15.47l.37.38,18.5,18.5L115,156.29l-8.81-8.81-2.64,2.64A7.47,7.47,0,1,1,93,139.55l5.23-5.24a11.2,11.2,0,0,0-14.54.47Zm21.14,7a2.49,2.49,0,0,1,3.52,0l10.57,10.57,1.77-1.76a11.21,11.21,0,0,0-15.48-16.22l-.38.37-7.93,7.92a2.49,2.49,0,0,0-.19,3.31l.19.22a2.49,2.49,0,0,0,3.31.19l.21-.19Z" transform="translate(-46.91 -94.35)"/></svg>