<svg id="Layer_2" data-name="Layer 2" xmlns="http://www.w3.org/2000/svg" viewBox="0 0 51.45 72.87">
  <defs>
    <style>
      .cls-1 {
        fill: #725979;
      }

      .cls-1, .cls-2 {
        stroke-width: 0px;
      }

      .cls-2 {
        fill: #faf2ea;
      }
    </style>
  </defs>
  <g id="Layer_1-2" data-name="Layer 1">
    <g id="mouse_chonk" data-name="mouse chonk">
      <path id="path2" class="cls-2" d="M32.81,37.5l4.9.6c.5.1,2.6-.3,2.8-.7l-.1-1.8c.2-.3.2-.7,0-1l-1.2-2.2q0-.1-.1-.2l-3.3-3.6c-.1-.2-.2-.2-.4-.3l-3.3-1.1c-.1-.1-.2-.1-.3-.2l-1.4-1.2-.1-.1-4.5-4.9c0-.1-.1-.2-.2-.2l-1.8-1.1c-.3-.2-.6-.2-.9-.1l-1.9.7c-.2.1-.7-.4-.8-.2h0c-.8-.8-.9-1.4-.7-.3l-1.1-.6c-.2-.3-.9.2-1.3.3l-2.3.7c-.2,0-.3.1-.4.2l-1.5,1.4c-.1.1-.3.2-.4.2l-1.4.6c-.1,0-.2,1-.3,1.1l-1.1.9c.6.9.6,2.1-.6.4l-3,1.9c-.1,0-.6.5-.7.5l-1.1.7c-.1.1-.4.2-.5.3l-3,2.1c-.2.2-.2.6-.1.9l.5,1.5c.1.3.4.5.7.6l1.7.8c.1.1.2-.4.3-.4l1.8-.1c-.3.7,1.2.4,1.4.3l1.2-2-.4,1.5v.1l-1,2.4c-.1.2-.2.4-.4.5l-.4.9c-.2.1-.6,1.6-.7,1.8l-.7,1.8c0,.1.5.5.5.6l-1.5,2.4v.2s.4,3.8.4,3.8v.2s-.4,3.6-.4,3.6v.1s.8,2.7.8,2.7c0,.2-.2,1.1-.1,1.3l1.2,2.3-.2.5,2,2.3.1.2.9.9c-.7.2.8,1.3,1.1,1.4l1.1,1.2c.3.1.5.3.6.5l1.4,2.5-2.1,2.3,4.3.7.4-.8c-.1-.5-.4-1.1.1-1.2l.2-.1c.2,0,.5,0,.7.1l1.5,1.8,4.8.9c.1.1.2.1.3.1l2.4.3,2.5.3h.4s2-.5,2-.5h.4s2.6.3,2.6.3h.3s2-.5,2-.5c.2-.1.4-.1.6,0l1.8.7c.1.1.3.1.4.1h2.1s-2.2-2.7-2.2-2.7l-.1-.1-1.1-1c-.4-.3.2-.6.5-1l.6-1.6c.6,1.2,2-1.6,2-1.7l.9-6.1c.5.3.2-1.5.2-1.6l-.9-7.6c0-.2,0-.4-.1-.5l-1.5-3.9c-.1,0-1.1-1.7-1.1-1.7l-1.1-2.1c0-.1-.6-.6-.6-.7l-1.9-3-1.1.7Z"/>
      <path id="MOUSE_1" data-name="MOUSE 1" class="cls-1" d="M40.01,0c-2.6,0-5.2,2-6.2,3.9-.5,2.9.2,5.4,1.2,8,1,2.7,2.1,5.3,3.4,7.9,2.7,5.4,6.3,10.5,8.6,16.1,1,2.4,1.3,5.2,1.7,7.7.5,3,.7,5.5.1,8.5-.7,3.2-.4,7-3,9.3-1.1,1-2.7,2.1-4.1,2.4-.4.1-1,.4-1.4,0-.5-.5.6-1.9.7-2.5.5-2.5.7-4.8.7-7.4,0-2.1-.8-4.1-1.2-6.1-.4-1.9-.6-3.7-1.6-5.4-.9-1.6-2.2-3-3.3-4.5,1.7-.4,2.9.9,4.6-.2,2.3-1.6.5-4.6-.7-6.2-1.4-1.8-3.2-3.8-5.2-5-.8-.5-1.9-.7-2.7-1.2-.6-.5-.8-1.3-1.5-1.8-1-.7-2.1-1.1-3-1.9.8-.1,1.8.3,2.5.7.4.3,1,.8,1.5.5.5-.2.1-.7-.2-1-.7-.6-1.7-1.1-2.6-1.2-.9-.1-1.5-.2-2.2-.6-.8-.5-1.4-1.2-2.3-1.4-1.3-.3-3-.8-4.3-.9-1.2-.1-2.8.3-4-.1-1.5-.5-3-1.2-4.6-1.1-.5,0-1.5.3-1.7.8-.1.4.2.7.6.7,1,.1,2-.3,3.1-.1.4.1,1.2.3,1,.9-.6,1.7-4,.5-5.3,1.2-1.4.8-1.4,2,.3,1.3,1-.4,1.5-.6,2.6-.4-.5,1.1-1.4,2.4-2.5,2.9-.8.3-1.6.4-2.3.8-1.2.7-2.1,1.7-3.2,2.4-1.3.9-3.1,2-3.4,3.6-.5,2.2.8,3.9,2.9,4.4.5.2,2.7-.2,2.8.4,0,.6-.5,1.3-.7,1.9-.6,1.8-1.1,3.6-1.5,5.3-.3,1.2-.1,2.6-.1,3.9,0,1.9-.2,4,0,5.9.3,3.6,1.4,6.7,3.7,9.5,1.3,1.6,3.3,2.9,4.4,4.7.6,1.1-2.9,2.4-1,3.8,1.2.9,3.1.4,4.4,0,.4-.1.8-.5,1.2-.5.9.1,1.7.7,2.5,1,1.7.7,3.6,1.3,5.4,1.7,3.2.7,6.5-.2,9.4-1.2.9-.3,2.2.7,3,1.1.8.4,2.9.5,3.7.2.9-.3,1.5-1.5.8-2.2-.8-.9-4.2-1.4-2.9-3.2,1.4-2,3.4-1.7,5.5-2.5,1.4-.4,2.7-1.5,3.7-2.4,2-1.8,2.3-4.6,2.7-7,0-.1.1-.3.1-.4v-1.4h0c.1-.2.1-.4.1-.5,0-.4,0-.7.1-1.1,0-.4.1-.9.1-1.3,0-1.3,0-2.6-.1-3.9v-1.3c0-.3-.1-.6-.1-.9,0-.3-.1-.7-.1-1,0-.2-.1-.4-.1-.7-.1-.2-.1-.3-.1-.4h0v-.1h0v-.5c-.5-2.1-.8-4.3-1.6-6.4-.4-1.2-1.2-2.3-1.8-3.5-1.5-2.9-2.9-5.7-4.5-8.5-1.8-3.1-3.9-6.4-4.9-9.9-.7-2.6-2.5-5.3-2-8,.1-.5.4-.9.6-1.3.3-.7.8-1.6,1.4-2.1,3.5-2.6,8.8.6,11,3.5.6.9,1,1.9,1.5,2.9,1.1,2.2.2,5.6-2.1,6.6-1,.5-2.4.3-3.5.3-.6,0-1,.5-.3.9.5.3,1.3.2,1.9.2,2.9,0,5.4-1.9,5.8-4.9.4-3.2-2.2-7.1-4.7-9-1.5-1.1-2.9-1.6-4.6-2.1C41.51.4,41.11,0,40.51,0h-.5ZM18.31,19.1c.3,0,.5.1.4.6.8,1.2.7,3.2,0,4.4-.3.5-2.1,1.4-1.5,2,.4.5,1.1-.3,1.6-.3.7,0,.9.7,1.5.7.3,0,.6-.3.5-.6-.3-1.1-1.2-1.8-.6-3,.8-1.5,2.6-3.7,4-1.7-1.7,1.1,1.1.7,1.1,1.3,0,.5-1.4.2-1.1.9.4.8,2.1.6,2.7,1.3,1,1.1,1.8,3,2.6,4.4.4.8.4,1.4,1.4,1.9.2-.9-.1-1.7-.5-2.6-.1-.3-.6-.8-.3-1.1.5-.5,3,.6,3.5.9,2.2,1.2,4.2,3.4,5.6,5.5.4.6,1.2,1.9,1,2.7-.4,2-3.4.9-4.6.6-.4-.1-.8-.1-1.2-.3-.3-.2-.4-.6-.7-.9s-.7-.3-.8.2c0,.5.3.9.5,1.3.3.6.6,1.6,1.1,2.1.4.3.8.5,1.2.8,1.7,1.6,3.1,4,3.7,6.2,1.3,5.2,2.1,11.3.4,16.5-.6,1.8-2,3.3-3,4.8-.3.5-1.1,1.1-1.1,1.7,0,.9.9.2,1.4.3.9.3,2.6,1.3,2.9,2.2-2,.7-3.6-1.3-5.5-1.2-1.3.1-2.5.5-3.7.7-2.4.4-5,.5-7.5,0-1.8-.4-3.2-1.2-4.8-2-1.4-.7-3.1-1.3-4.3-2.2-1.6-1.2-2.8-2.6-4.1-4-1.4-1.4-3.2-3.1-3.9-5-1.2-3-1.3-6.7-1.5-10-.2-2.7.3-5.6,1.2-8.1.2-.5.1-1,.3-1.5.8-1.6,1.8-3,2.2-4.8.1-.4.5-1,.4-1.5s-.7-.3-.9,0c-.4.4-.3,1.2-.8,1.5-.5.3-1,.2-1.5.2-1.3.2-4.3.4-4.3-1.7,0-2.5,3.3-3.9,5-5.2.7-.6,1.6-1.4,2.5-1.4,1-.1.2,1.8,1.1,1.7.5-.1.9-1.6,1-2,.3-1.3,1.1-2.9,2.4-3.5.8-.4,2.2.6,2.7,0,.3-.4-.8-1.3-.9-1.8.5-.2,1.1-.2,1.6-.3s1.1-.7,1.6-.7h0ZM21.31,20.3l-.9.1.1-.5.8.4ZM13.41,41.7c-.3,0-.4.5-.5.7,0,.5,1,2.1.4,2.5-.9.7-1.5-1.9-2.2-1.8-.6.1-.3,1-.2,1.4.3.8,1.5,2.1,2.4,2.2,1.8.2,1.4-3.1,1-4-.1-.3-.4-.9-.9-1q.1,0,0,0h0ZM20.61,44.9c-.1.8-.2,1.9.9,2,1.3.2,2.6-1.4,2.9-2.6.1-.5,0-1.5-.7-1.1-.8.5-.9,2-1.8,2.6l.2-3.9c-1.4.4-1.3,1.9-1.5,3ZM13.61,68.5c.1,0,.2,0,.2,0,.5.1.9.3,1.3.4-.4,1.1-1.3,1-2.3,1-.3,0-.8.1-1-.2-.5-.8,1.1-1.2,1.8-1.2h0Z"/>
    </g>
  </g>
</svg>