<?xml version="1.0" encoding="UTF-8"?>
<svg id="Layer_2" data-name="Layer 2" xmlns="http://www.w3.org/2000/svg" viewBox="0 0 610.5 209.64">
  <defs>
    <style>
      .cls-1 {
        fill: rgba(234, 161, 213, 0);
      }

      .cls-1, .cls-2, .cls-3, .cls-4 {
        fill-rule: evenodd;
      }

      .cls-1, .cls-5 {
        stroke-width: 0px;
      }

      .cls-2 {
        fill: #a9c7df;
        stroke: #a9c7df;
        stroke-width: 3.96px;
      }

      .cls-2, .cls-4 {
        stroke-miterlimit: 3;
      }

      .cls-6 {
        opacity: .7;
      }

      .cls-3 {
        stroke-miterlimit: 11.34;
        stroke-width: 1.4px;
      }

      .cls-3, .cls-5, .cls-4 {
        fill: #cfecf2;
      }

      .cls-3, .cls-4 {
        stroke: #cfecf2;
      }

      .cls-4 {
        stroke-width: 1.4px;
      }
    </style>
  </defs>
  <g id="svg5">
    <g id="layer1" class="cls-6">
      <path id="path12463" class="cls-2" d="M378.55,2c-22.87.57-48.88,6.94-62.2,27.18-9.71,13.98-7.22,35.96,8.14,44.88,6.53,3.61,14.92,6.41,22.22,3.91,6.87-5.51,15.5-13.2,24.96-9.49,7,4.25,7.48,15.19.77,20.02-18.41,21.19-40.14,39.51-57.4,61.71-6.6,9.23-5.12,21.78-2.1,32.02,3.95,8.28,8.01,19.45,17.96,21.79,31.09.2,62.27.22,93.28-2.17,14.96-.34,26.55-12.97,31.15-26.31,1.13-10.19,2.22-21.64-4.17-30.46-3.23-8.72-13.77-6.85-21.07-6.85-7.27-.11-15.79.63-22.41-.08,14.67-16.78,33.58-31.6,40.06-53.92,4.21-12.21,3.66-25.74,1.31-38.28-5.06-20.22-22.06-36.2-42.26-40.86-9.2-2.44-18.78-3.25-28.27-3.09Z"/>
      <path id="path12797-0" class="cls-3" d="M351.25,10.65c-4.62.37-8.72,2.91-12.26,5.72-4.8,2.36-9.29,6.72-9.99,12.23.19,2.94,4.05,3.54,6.17,2.2,6.3-3.95,12.08-8.72,17.83-13.43,1.46-1.3,4.17-3.66,2.24-5.65-1.09-.94-2.61-1.15-4-1.08h0Z"/>
      <path id="path12465" class="cls-2" d="M222.94,3.33c-25.22-.3-49.9,14.73-60.54,37.72-13.45,26.11-12.93,56.32-12.09,84.9,1.69,17.86,5.37,36.25,14.6,51.84,9.82,13.61,24.08,24.09,40.66,27.6,14.81,4.08,30.53,1.79,45.51-.08,28.11-4.31,48.16-29.94,53.99-56.54,6.01-24.58,5.09-50.41,1.68-75.3-4.07-24.69-16.24-50.2-39.53-61.91-13.56-7.91-28.96-8.67-44.28-8.22ZM228.07,67.43c8.62.7,9.3,11.3,10.18,17.88,1.54,17.9,2.81,36.68-3.01,53.97-2.11,6.04-12.19,8.95-15.08,1.98-6.41-15.79-5.47-33.53-4.51-50.25,1.11-8.28,1.09-22.72,12.42-23.57Z"/>
      <path id="path12467" class="cls-2" d="M68.94,2.32c-16.18-.34-32.31,3.68-45.97,12.5C6.23,23.86-3.98,46.81,6.33,64.13c6.16,10.94,19.44,15.51,31.35,15.06,6.44-6.95,16.35-14.7,26.29-10.49,7.5,4.49,5.73,16.12-.31,21.11-18.17,20.71-39.49,38.66-56.64,60.28-9.93,15.1-3.92,35.61,6.87,48.59,5.81,7.92,16.5,4.9,24.8,5.57,27.19-.42,54.52.11,81.57-2.95,18.6-3.86,31.03-24.12,27.8-42.54-.83-7.93-5.35-15.13-10.74-20.66-12.6-.08-26.66.99-38.45-.07,15.27-14.74,31.57-29.85,39.09-50.29,10.02-24.99,4.17-57.54-19.03-73.24C104.5,4.06,86.37,1.43,68.94,2.32h0Z"/>
      <path id="path8691" class="cls-2" d="M571.96,4.57c-27.99.79-56.11.67-83.98,3.52-4.29,2.05-3.03,8.72-4.52,12.58-4.14,26.42-6.07,53.2-6.57,79.9,5.8,13.14,18.72,21.74,32.75,23.65,8.22,2.18,17.52.36,25.23,4.03,4.9,4.57,3.46,13.7-3.14,15.65-13.82,5.35-27.04-6.73-41.16-6.11-16.11-.65-28.04,15.25-27.86,30.41-.94,9.73,3.77,19.72,12.97,23.75,23.83,13.55,52.46,15.93,79.19,12.25,24.24-4.35,44.01-24.49,51.18-47.6,4.68-21.97,3.77-47.7-11.92-65.3-14.18-16.13-37.44-18.46-57.55-16.24-1.68-6.44-.57-13.03,8.05-10.61,14.14-1.31,29.27.94,42.68-4.63,13.49-7.93,16.94-26.45,12.92-40.65-1.27-8.28-8.2-15.71-17.06-14.61-3.73-.06-7.47-.03-11.2,0h0Z"/>
      <path id="path12797-5" class="cls-3" d="M601.38,137.44c1.46-4.4.71-9.17-.51-13.52-.31-5.34-2.58-11.17-7.39-13.96-2.79-.97-4.83,2.36-4.43,4.83,1.19,7.34,3.35,14.52,5.44,21.65.63,1.86,1.75,5.26,4.33,4.26,1.29-.64,2.08-1.96,2.54-3.27h0Z"/>
      <path id="path12797-5-2" class="cls-3" d="M596.21,37.52c1.46-4.4.71-9.17-.51-13.52-.31-5.34-2.58-11.17-7.39-13.96-2.79-.97-4.83,2.36-4.43,4.83,1.19,7.34,3.35,14.52,5.44,21.65.63,1.86,1.75,5.26,4.33,4.26,1.29-.64,2.08-1.96,2.54-3.27h0Z"/>
      <path id="path6511" class="cls-1" d="M571.96,4.57c-27.99.79-56.11.67-83.98,3.52-4.29,2.05-3.03,8.72-4.52,12.58-4.14,26.42-6.07,53.2-6.57,79.9,5.8,13.14,18.72,21.74,32.75,23.65,8.22,2.18,17.52.36,25.23,4.03,4.9,4.57,3.46,13.7-3.14,15.65-13.82,5.35-27.04-6.73-41.16-6.11-16.11-.65-28.04,15.25-27.86,30.41-.94,9.73,3.77,19.72,12.97,23.75,23.83,13.55,52.46,15.93,79.19,12.25,24.24-4.35,44.01-24.49,51.18-47.6,4.68-21.97,3.77-47.7-11.92-65.3-14.18-16.13-37.44-18.46-57.55-16.24-1.68-6.44-.57-13.03,8.05-10.61,14.14-1.31,29.27.94,42.68-4.63,13.49-7.93,16.94-26.45,12.92-40.65-1.27-8.28-8.2-15.71-17.06-14.61-3.73-.06-7.47-.03-11.2,0h0Z"/>
      <path id="path-1" class="cls-5" d="M26.86,18.34c-1.27.41-3.22,1.24-5.37,3.07-1.35,1.15-2.74,2.66-4.04,4.58,0,0-.01.02-.02.02-.11.17-.22.36-.33.54-.34.57-.78,1.37-1.11,2.28-.33.89-.61,2.03-.52,3.29.02.39.11.79.27,1.17.15.36.36.7.63,1,.49.56,1.18,1.02,1.99,1.22,1.05.28,2.25.35,3.46.13.08-.01.15-.04.23-.08.85-.42,1.65-.92,2.43-1.46.76-.52,1.49-1.06,2.22-1.57,4.91-3.57,9.76-7.3,14.5-11.23.62-.51,1.33-1.1,1.92-1.79.3-.35.58-.74.81-1.17.23-.43.4-.91.49-1.42.08-.43.06-.86-.04-1.25-.1-.4-.28-.76-.5-1.07-.23-.32-.5-.59-.79-.82-.3-.23-.62-.41-.96-.55-1.07-.47-2.18-.63-3.24-.6-1.11.03-2.18.26-3.13.56-3.24.92-6.01,2.42-8.21,4.15-1.4,1.06-2.47,1.59-3.4,1.9-.45.15-.7.64-.55,1.09.15.45.64.7,1.09.55,1.15-.38,2.39-1.01,3.92-2.17,2.04-1.61,4.6-3.01,7.64-3.87.87-.27,1.78-.46,2.69-.49.86-.02,1.71.1,2.5.45.01,0,.02,0,.03.01.19.08.38.19.56.32.17.13.32.29.44.45.12.16.2.33.24.5.04.16.05.33.02.51-.06.33-.17.63-.32.92-.15.29-.35.57-.59.85-.48.56-1.08,1.06-1.71,1.58-4.72,3.9-9.54,7.61-14.4,11.15-.75.52-1.48,1.06-2.2,1.55-.71.48-1.4.92-2.11,1.28-.9.15-1.8.09-2.59-.12-.46-.11-.84-.37-1.12-.68-.15-.17-.26-.35-.34-.54-.08-.2-.13-.41-.14-.61-.07-.95.14-1.82.41-2.58.28-.77.66-1.47.98-2,.1-.17.2-.33.3-.49,1.22-1.79,2.5-3.18,3.72-4.22,1.95-1.65,3.67-2.38,4.78-2.74.45-.15.7-.64.55-1.09-.15-.45-.63-.7-1.09-.56h0Z"/>
      <path id="path-1-9" class="cls-5" d="M196.4,13.73c-1.43.19-3.43.66-5.93,1.89-1.65.82-3.33,1.87-5.19,3.24-.74.54-1.62,1.19-2.45,1.87-.33.27-.69.58-1.06.92-.95.87-2.08,2.07-2.92,3.61-.57,1.04-.94,2.32-.98,3.77-.04.15-.08.34-.12.55-.05.23-.09.52-.09.81,0,.15.01.31.05.47.03.16.09.33.18.5.09.17.2.32.35.46.13.12.28.23.44.31.43.28.89.48,1.36.61.48.13.97.19,1.46.2.95.02,1.89-.16,2.74-.37,1.51-.4,2.92-.98,4.31-1.62,1.37-.63,2.69-1.32,4.01-1.96,2.05-1.08,4.06-2.28,5.91-3.68,1.87-1.41,3.59-3.01,5.03-4.87,0-.01.02-.02.02-.03.37-.52.86-1.16,1.24-1.83.2-.35.37-.73.49-1.13.12-.41.19-.85.18-1.32-.02-.75-.25-1.44-.6-2.03-.36-.6-.85-1.1-1.4-1.49-.56-.39-1.2-.68-1.86-.82-.68-.15-1.38-.17-2.06-.02-.73.17-1.36.49-1.88.79-.58.34-1.07.68-1.51.93-.01,0-.02.01-.03.02-1.36.85-2.32,1.29-3.17,1.58-.45.15-.69.64-.54,1.09.15.45.64.69,1.09.54h0c1-.34,2.08-.85,3.51-1.74.52-.29,1.02-.64,1.51-.93.46-.27.91-.49,1.38-.6.41-.09.86-.09,1.3.02.44.1.87.29,1.25.55.37.26.68.59.91.96.22.36.35.77.36,1.2,0,.26-.03.51-.11.77-.08.26-.19.52-.35.79-.31.56-.7,1.05-1.13,1.66-1.34,1.71-2.93,3.21-4.7,4.54-1.76,1.33-3.68,2.49-5.65,3.52-1.32.64-2.64,1.33-3.96,1.93-1.34.62-2.66,1.15-4.02,1.51-.77.19-1.54.33-2.27.32-.37,0-.71-.05-1.03-.14-.32-.09-.62-.22-.89-.41-.03-.02-.07-.04-.11-.06-.04-.02-.06-.03-.06-.04,0,0,0-.01-.01-.02,0,0-.01-.02-.02-.05,0-.03-.01-.08-.01-.13,0-.13.02-.28.06-.47.04-.19.09-.39.13-.59.01-.06.02-.11.02-.17.02-1.23.33-2.26.77-3.07.72-1.32,1.7-2.36,2.58-3.17.34-.31.67-.6.99-.85.79-.65,1.64-1.27,2.38-1.81,1.81-1.33,3.4-2.33,4.94-3.09,2.31-1.14,4.13-1.56,5.4-1.73.47-.06.8-.5.74-.97-.06-.47-.5-.8-.97-.74h0Z"/>
      <path id="path12797" class="cls-4" d="M38.72,13.81c-4.62.37-8.72,2.91-12.26,5.72-4.8,2.36-9.29,6.72-9.99,12.23.19,2.94,4.05,3.54,6.17,2.2,6.3-3.95,12.08-8.72,17.83-13.43,1.46-1.3,4.17-3.66,2.24-5.65-1.09-.94-2.61-1.15-4-1.08Z"/>
      <path id="path13006" class="cls-4" d="M200.46,12.86c-3.14.24-5.19,3.25-8.42,3.32-4.35,1.88-8.48,4.69-11.45,8.42-1.1,1.84-2.52,4.4-1.46,6.5,2.79,2.16,6.27-.22,9.05-1.21,6.06-2.8,12.65-6.21,15.81-12.41,1.02-2.39-1.04-4.83-3.53-4.63Z"/>
    </g>
  </g>
</svg>