<?xml version="1.0" encoding="UTF-8"?>
<svg id="Layer_2" data-name="Layer 2" xmlns="http://www.w3.org/2000/svg" viewBox="0 0 458.62 365.59">
  <defs>
    <style>
      .cls-1 {
        fill: #01756d;
      }

      .cls-1, .cls-2, .cls-3, .cls-4, .cls-5, .cls-6, .cls-7, .cls-8, .cls-9, .cls-10, .cls-11, .cls-12 {
        stroke-width: 0px;
      }

      .cls-1, .cls-6, .cls-13, .cls-7, .cls-11 {
        isolation: isolate;
      }

      .cls-1, .cls-6, .cls-7, .cls-11 {
        opacity: 1;
      }

      .cls-2, .cls-14, .cls-10 {
        fill: #705979;
      }

      .cls-3, .cls-12 {
        fill: #6daa96;
      }

      .cls-4 {
        fill: #eaa19b;
      }

      .cls-4, .cls-8, .cls-9, .cls-10, .cls-12 {
        fill-rule: evenodd;
      }

      .cls-5, .cls-8 {
        fill: #efc5bf;
      }

      .cls-6 {
        fill: #08a4a1;
      }

      .cls-7 {
        fill: #059391;
      }

      .cls-9 {
        fill: #f2f3f1;
      }

      .cls-14 {
        stroke: #705979;
        stroke-miterlimit: 10;
        stroke-width: .25px;
      }

      .cls-11 {
        fill: #05b4ab;
      }
    </style>
  </defs>
  <g id="Layer_1-2" data-name="Layer 1">
    <g id="g44">
      <path id="path25" class="cls-1" d="M60.33,364.64c-4.33-7.6-4.33-8.07-4.33-8.07l.96-9.02,8.17-5.22,6.73-3.8,4.81-1.42,5.29-4.27,3.85-4.27,6.73-4.75,2.88-9.02,7.69-3.32,9.61,1.9,5.29-1.9.96-4.27,6.25-6.65,5.29-1.9h1.92l1.92-5.22,6.73-5.7,7.21-1.9,6.25,4.75,3.85,2.85,7.21-1.42,4.81.95,3.85-6.17-.96-7.12-.48-5.22.96-2.85,3.37-2.85,10.58-5.7,3.37-4.75-.96-3.8-3.85-6.17-2.88-4.27-2.4-7.6,3.37-6.17,5.77-6.17-4.33-6.65.96-5.22,2.88-7.6,5.29-3.32,1.44-2.85-5.77-2.37-4.09-5.7-3.85-7.12-6.73-3.8-3.85-8.07-.48-1.9-9.61,4.27-6.25,6.17-6.73,3.32-5.29-1.9-4.81-4.27-3.37-6.17-.48-4.75-.96-3.32-3.85-1.9-5.77.47-8.17,4.75-3.37-.47-3.85,6.17-9.13,3.32-3.37-2.37-4.33-2.37-1.92-5.22-3.85-3.32-2.4.95-4.33,1.9-3.85-.47h-1.92l-5.77,5.22-6.25,1.9-4.33.47-5.77-.95-3.85-2.85-2.88-3.32-1.92-3.8-.96-7.12-4.33-4.75-2.4-1.9h-4.81l-.48-.95-5.29,1.9h-8.65l-11.06-3.8-3.37-5.22-1.92-5.22.96-7.12,5.29-4.27,1.92-3.8v-4.27l-1.92-3.8-3.85-4.75v-6.88l2.4-7.12,3.37-1.9-3.85-7.12-.48-8.07,2.4-5.22,9.61-7.12,6.73-1.42,4.33-2.37,1.44-6.17,4.33-7.6,5.77-6.17,3.85-3.32,9.61-2.85,5.29.95,3.85-7.12,6.25-4.27,4.81-2.37,6.73.47,3.37,2.37,3.37.95,4.81-2.85,5.29.47,5.29,2.37,3.85,4.27,6.73-9.97,6.73-2.37,5.77-.47,4.33.95,5.29,3.8,4.33-6.65,8.17-4.75,9.61.47,6.25,5.7,8.65,3.32,11.54,1.42v-9.26l3.37-4.75,5.29-4.75,9.61-.47,5.77,4.27,4.81,8.55.48,3.8,7.21.95,9.13-6.17,8.17-1.42,7.69,1.42,4.81,2.37,4.33-8.07,7.21-.47,9.61,8.07h10.1l6.25,2.37,2.88,2.37,9.61-5.7h10.1l7.69,4.27,3.85-.47,5.77-7.12h9.61l6.73,2.85,4.81,7.6,1.44,2.37,5.77.47,5.77-7.6,6.25-2.85,8.17,2.37,4.81,5.22,8.17,6.17,10.1-6.17,11.06,2.85,4.33,9.5.96,1.9,5.77,2.85,3.85,6.17,6.73.47,6.73,4.27,5.77,8.07,1.44,10.45-2.4,3.32,7.21,3.32,5.77,6.65,3.37,6.17.48,9.5-2.88,6.17-3.85,6.17-5.29,4.27,1.92,9.5-2.88,9.5-5.77,5.22-6.25,3.32-6.25-.47-6.25,7.12-6.25,1.42-5.77,1.9-1.92-1.42-7.21,6.17-8.17-1.42-5.29,7.6-9.61,2.85-2.4.47-4.33,7.12-8.17,4.27h-8.17l-3.85-1.9-3.85-3.32-2.4-2.37v-1.42l-3.85-1.42-3.37,4.27-4.81,2.85-5.29.47-5.77-1.9-2.4-1.9-4.81,4.75-7.21,2.85-4.81-1.9-2.4-1.42-5.29-1.42-3.37,1.42-1.92,5.22-4.33,4.75-5.29,1.42-3.37.95.96,7.6-3.37,7.6-4.33,2.37,3.85,7.6.96,8.55-3.85,5.7-2.88,1.9-2.88,2.85-6.25,3.32-2.4.47,1.92,3.8v4.27l2.4,6.17-1.92,2.37,3.85,7.12v4.27l5.29,5.7.48,6.65-.96,3.32,3.85,4.27,1.44,6.65,6.25,5.7,6.73-4.75,8.17.47,6.73,1.9,5.29,4.27,6.25-1.42,7.69,2.85,3.37,6.65,1.92,1.9,5.77.47,4.81,4.27,6.25,4.27,8.65.47,6.25,4.27,8.65,2.37,4.81,6.17,7.69,7.6-3.85,10.92,6.25,6.65-.48,9.02-3.85,4.27-314.64-.95Z"/>
      <path id="path37" class="cls-7" d="M95.3,149.68l-4.93,4.87-6.73,1.78-4.69-.71-4.09-3.2-3-5.82-1.2-4.99h-3.12s-1.56.12-2.52-.83c-.96-.95-2.52-5.46-2.52-5.46l.36-3.8,1.2-3.32,2.52-1.54,2.4-1.54.84-1.19-2.52-.95-2.4-1.54-.72-3.68.48-2.61,2.4-2.02,1.68-1.19-1.68-1.78-3.37-2.97-1.8-2.02-.72-4.15.48-2.37,2.04-2.61,2.52-2.02,3.37-1.19,1.56-.47-2.88-2.37-2.16-2.14-1.8-2.61-1.2-3.68.36-3.8.12-3.44,1.2-2.61,2.64-2.61,3.37-1.78,3.73-1.78,4.21-.83,4.57-.83h1.2v-4.87l.72-4.04,1.8-3.8,2.52-2.85,3.85-2.49,3.85-1.66,4.09-.83,3.24-.47,2.52-.47,2.88,1.19,2.88-1.31,3.37-.47-.36-3.44,2.4-5.82,3.37-2.37,4.09-1.19,3.73-.47,4.09,1.19,2.52,2.37,1.8,2.97,7.09-.83.84-5.93,4.21-4.15,3.49-1.66h3.49l2.64.83,3,1.78,1.8,2.02,2.16,2.97.48.83,2.52-1.54,2.64-.71,1.32.95.36,2.14.72,1.31,2.16-.36,3.24-1.66,2.64-.36,3.73.95,2.16,2.14,1.32,1.78,2.04,2.49,1.68,5.7.96,3.8-.36,3.2-2.16,2.49-3.24,2.02-15.98,28.84s-15.86,17.92-15.86,16.5c0-1.54-21.15,11.99-21.15,11.99l-12.98,18.16-7.69,9.5-6.25,8.43-5.41-1.54s-4.21-.36-4.21.47c.12.95-3.97,2.14-3.97,2.14h0Z"/>
      <path id="path33" class="cls-6" d="M167.53,45.82c-1.2-.95-8.41-4.51-8.41-4.51,0,0-4.33-2.73-5.89-2.73s-3.49-1.54-6.25.36c-2.76,1.9-5.29,3.44-6.61,4.27-1.2.95-1.56,1.54-1.56,1.54,0,0-4.69,2.14-5.89-.36-1.2-2.49-.96-3.68-2.76-2.49-1.92,1.19-2.76,3.68-5.05,5.22-2.16,1.54-3.73,7.72-3.73,7.72,0,0-2.16,1.9-3.73,1.9s-8.77.95-8.77.95c0,0-6.25,3.09-6.61,4.27s1.56,8.31,1.56,8.31l3.73,5.22,2.52,3.44-7.81,2.73s-1.2,4.27-.6,5.82-3.73,8.66-3.73,8.66l2.76,5.58-.6,1.54-3.12,3.44-.36,3.44,3.12.95h5.05l-2.76,3.68s-.6,1.54-.6,3.09.6,6.77.6,6.77l3.12,5.58,4.33,3.68,5.29,2.49,2.52-.36,1.2,7.36,2.16,6.53,9.13,2.14,6.25-2.14,4.69,2.49,9.13,1.19,6.25-3.44.36-3.09,8.17,3.44,4.09-2.14,2.76-1.9.6-1.9,5.65,4.27,4.33,1.19,9.98-.59,5.05-2.73,2.76-6.53,3.49-1.9,6.25,6.53,6.25,2.14,7.21-.36,5.29-.95,5.05-4.27,1.92-2.49,3.12,5.82,8.17-.59.96-1.9,4.69,8.07,2.76,4.27,7.21,1.54,5.89,1.19,2.76-5.22-1.2-8.07,6.61,8.07,6.61.36,2.76,4.27,4.33,1.19,5.05-1.9,4.09-.59,5.05-2.73,3.12-4.99,3.73-7.36,4.69,2.49,7.21-1.19,3.49-6.53-.36-5.82,1.2-3.44,5.65-3.09,1.2-5.58-.96-7.12,2.52.36,1.92,12.34-4.69,7.36.6,4.63.6,7.72-10.94,7.36-6.61-.59,3.12,4.63s7.81,2.73,9.13,2.73c1.2,0,7.81-3.09,7.81-3.09l5.05-5.22,3.12,4.27,5.89,1.9,4.33.95,4.69,1.54,7.21-1.9,1.2-2.73,1.2-3.09,5.65,2.14,6.85-2.14,4.09-2.14v-3.09l2.76-3.09,4.33,2.14,7.57-2.73,2.76-7.12,4.33-2.14,1.2-4.27-.96-2.73-1.56-4.99,1.92-4.04-4.33-5.58-3.12-.95s-3.49-.36-4.69-.36-2.16-.95-2.16-.95l4.09-3.44s.96-1.54.96-2.73.36-5.22.36-5.22l3.73.36,2.76-2.14.96-6.17-2.52-5.22-2.52-9.26-8.41-6.53s3.73-4.99,2.52-6.17-5.89-9.61-7.21-9.85c-1.2-.36-7.81.95-7.81.95l-4.33-5.22-8.17-4.27-6.25-.95-10.34-4.99-9.73,4.99-9.37-5.22-4.69.59s-.6.95-2.16,2.14-3.73,2.49-3.73,2.49l-5.65-.95-4.69-1.9-4.69-2.49-7.21-.95-3.12,1.54-5.29,2.73s-6.25-3.44-7.81-4.27c-1.56-.95-10.94-4.63-10.94-4.63l-6.85.36-7.57.36-1.92,2.73-3.73,2.73s-1.92.95-3.12,2.14-3.12,2.49-3.12,2.49c0,0-2.76.59-4.09.95-1.2.36-9.37-2.73-9.37-2.73l-4.69-1.19-13.82-2.49c-1.2-.24-10.82,3.68-10.82,3.68,0,0-8.77,7.36-11.3,5.93-3.85-2.02-10.82-4.87-10.82-4.87l-6.49,1.54"/>
      <path id="path29" class="cls-6" d="M358.86,361.55l9.98.95,3.49-4.27,1.56-4.27-1.92-5.22-4.09-2.49-1.56-1.54.96-2.73,2.76-4.04v-3.44l-1.56-4.04-2.52-1.19-1.92-1.19-2.16-.59-.96-3.09-1.2-1.54-4.09,2.14-1.56-1.54-2.76-3.44-3.49-1.19-4.33-.59-5.29,2.14-1.92,1.54-.96-5.22-2.52-4.04-4.33-3.09-5.05.36-4.33,2.14-2.52,1.9,1.56-7.12-.96-3.09-2.52-3.44-4.33-1.9-4.69,1.19-3.49-.59-2.76-2.73-6.25-4.04h-4.45l-3.12.95-4.33,1.19-4.09,3.68-2.76.95-1.56-5.22-3.12-1.9-3.12-.36h-.96l.6-7.36-2.52-3.44-4.33-6.17h-2.76l3.12-4.04,1.56-3.09-1.92-3.09-3.12-1.19-3.73-.36,2.52-4.04-.36-4.99-2.52-3.09-4.33-1.9-1.92-.95,3.49-2.73,1.92-1.19v-2.14l-2.52-2.49-1.92-.59,2.16-2.73,3.12-2.73-1.92-7.36,3.49-1.19,6.25-1.19,2.52-3.09,2.52-2.49,3.12-8.31-7.21-8.07-.36-4.63,2.52-.59,4.09-1.9,3.12-3.44.6-6.77-1.92-2.73,2.16-6.53,5.05-.95,5.05-1.19,2.52-3.44,1.92-7.12,5.05-1.54,6.61.95,4.33,3.68,3.12.36,4.33.59,2.76-2.49,1.56-1.19-5.05-.36h-6.85l-3.49-3.68,6.85-.95,5.89-3.09,2.16-6.53.96-4.99h4.69l7.21-1.54,4.09-3.68,2.16-4.99v-7.72l-2.76-2.73,5.05-3.09,2.52-3.09,1.92-3.44.36-4.27s-1.92-2.73-3.49-4.04c-1.56-1.19-1.92.36-1.92.36l-1.2,6.77-1.2,4.99-4.33,2.73-2.52,2.14,1.2,3.09-.6,5.58-2.52,4.27-5.05,1.54-4.09.59-2.76-1.9-1.56-1.19.36,6.77-2.76,4.04-1.56,3.09-4.69,1.9h-5.05l-2.76-.95-3.12,3.44-2.76.36-4.69-3.09-.36-2.14-2.76-.36-4.69.59-2.76-5.22-2.76-4.99.96,10.56-1.2,4.27-3.49,3.44-4.69,3.09-5.65-.36-3.12-.59-4.33-2.14-1.56-3.44-1.2-3.68-2.52.36-5.89,3.44-7.21-2.14-2.52-2.73-5.29,2.73-6.25,1.19-3.73-.36-6.25-.36-4.69-3.09-2.16-1.9-5.29,4.27-8.41.95-1.2,4.99-4.09,5.22.6,2.73,5.29.36,5.29-3.68,4.33-2.14h7.21c1.2,0,12.5,3.68,12.5,3.68l5.89-2.49,5.05-3.44,7.45,2.14,4.33-2.14,3.73,6.77,4.33,7.12,5.65,3.09,5.05,1.54-5.05,4.99-3.49,2.49,4.09,3.09,3.49,2.14,1.56,3.09-1.56,1.9,1.92,5.22-1.2,4.27-2.16.95.6,3.68,2.76,3.44.96,4.63-2.76,2.73-3.73,2.73-2.52-.59s-.96-1.19-.96-2.49c0-1.19.6-5.22.6-5.22l-2.16-3.68.36-4.04-1.56-4.99-5.29-3.68h-5.05l-.96.36-2.76-4.04-2.52,1.19,1.56,1.9.96,2.14.36,2.49,3.49-1.54h3.73l3.49,4.99v3.68l.96,3.44,1.92,3.44-2.76,2.73-1.92.95,3.49,3.68,1.2,3.68v4.27c0,1.19-2.16,5.22-2.16,5.22l2.52.95-2.76,4.63-5.89,3.09-1.56.59,4.09,4.63,2.76,5.58,1.56,8.31-3.12,6.53-1.56,2.49,4.69,2.14,4.69,6.17,2.16,6.77.96,9.02-.6,6.77,5.29,2.73,3.12,5.58,4.09,2.14,2.52,4.99,2.16,4.99,6.85,1.19,7.21,1.54,5.65,3.68,1.92,6.77,4.09,1.19,7.21-1.19,7.45.59,5.65,1.19,4.69,1.54,1.2,5.82-1.56,5.58,4.69.36,9.98-1.54h7.45l8.41.36,6.61,2.49,4.09,3.68-.36,6.88Z"/>
      <path id="path41" class="cls-1" d="M339.27,31.81h6.73l3.24,2.14,3.61,3.2.72,3.8.96,1.54,3.85-.95,3.85.71,3.24.36,1.68,2.61,1.56,3.2,1.32,3.44-1.2,3.09-2.52,3.44,5.53.36,3.24,2.14,3.85,4.04,1.32,6.29-.24,4.04-1.2,1.54,2.28,3.2.6,3.09-3.61,2.85-3.61.95-1.32.95,1.2,3.44-.24,2.85-2.52,2.49-1.56.71h-2.04l2.52,2.14,1.56-.36,4.45-2.26,1.2-1.9.24-1.66,4.45-1.19,2.64-1.9,2.64-2.85.72-4.04v-3.44l-.36-3.09-1.32-1.31,1.68-4.51,1.56-5.1-1.92-4.51-3.12-2.14-4.09-2.49h-4.57l-2.28-.24,3.24-3.56-.6-2.85-1.56-5.34-1.56-3.09-2.88-2.61-2.16-1.9h-6.01l-4.21.95s-1.92.95-1.92,0-.96-5.34-.96-5.34l-2.64-3.44-2.16-.36-2.64-.71-2.16.24-2.64,1.19-3.85,2.14Z"/>
      <path id="path31" class="cls-7" d="M193.37,162.85l4.33-6.41v-2.85l4.69,4.99,6.49,2.85,5.77-1.78,6.85-2.14,2.52-2.49,5.77,2.85,8.17-3.92,1.44,6.05,3.24,6.05,5.41,4.63,3.61,1.78,2.16,2.49-.72,3.2-3.61,1.78-.36,2.14,3.24,3.56s3.24-.71,3.61,1.78.36,7.36.36,7.36l.36,4.99-2.52,1.78,1.44,6.05,1.8,4.99-2.16,4.27-4.33,2.14-3.24-.71.72-6.41-2.16-2.85v-4.99l-.72-3.56-5.05-5.34-5.41-1.42-2.52.71-1.44-2.49-2.52.71,2.16,2.49.72,3.56,2.88-1.78,4.69,1.78,2.52,5.7v3.92l2.88,1.78-1.08,2.49-2.16,2.85-1.44,1.42.36,2.49,3.24,1.78.72,1.78v2.49l-1.8,3.56-1.08,4.99-1.08,4.63-3.97,3.2.36,5.34,3.61,4.63.36,8.07-1.08,8.43-1.08,1.42,4.33,2.14,3.61,3.2-.72,3.92,3.61,2.85,1.8,5.34-.72,12.34-1.44,2.85,4.69,5.34,4.69,2.14,3.24,3.56,4.69,3.56.36,4.99,3.61,1.42,5.41.36,4.69,1.78,4.33.71,4.69,7.12.72,2.85h5.41l6.13-.36,5.41,1.42,7.45,1.42,3.61,5.7v5.34l3.97,2.49s10.34,0,12.14-.71c1.8-.71,10.7-.36,10.7-.36l9.98,3.2,4.33,3.92.36,3.56-239.28.71-2.88-.71-1.44-5.7,4.69-3.92,8.17-4.99,6.85-1.07,9.61-1.42,2.52-3.56v-5.93l5.05-1.07,4.33-2.14-1.44-3.56,1.44-2.49s2.16-1.42,1.44-2.85c-.72-1.42-.72-5.34-.72-5.34l5.77-.71h4.33l-2.88-4.99,3.97-2.85,5.41-2.85,4.69-.71,5.05-1.78,2.88-1.07v-6.41l1.08-6.05,2.52-5.7,3.97-3.2v-2.02l1.08-2.14,3.61-2.14-2.16-4.63,2.88-5.7,3.61-3.92,3.61-1.42h1.8l-2.16-4.63.36-4.27,2.52-.71-3.24-4.63-2.88-4.63-.72-5.7,2.52-2.85,2.88-3.92,1.08-3.2-.36-5.34,2.88-.71,2.16-1.07-3.24-4.63.36-3.2,3.61-2.49-.36-3.56-1.44-3.56-1.44-8.07,4.69-1.78-1.44-2.85-3.97-2.49-1.44-2.49-1.08-3.2-5.05-2.85-5.05-3.56-1.08-4.63-3.61-5.58Z"/>
      <path id="path39" class="cls-1" d="M249.02,31.45l3.73-1.78,3.37.12,3.73.83.96,2.61,1.2,2.97,2.88-2.02,3.97-2.49s2.76-.12,3.49-.12,3.97.71,3.97.71l2.52,2.26,1.92,3.32.84,2.97.24,4.63.6.59,2.28.24,4.21-1.19,4.21-.59,5.05-.12s3.24.71,3.73.71c.6,0,3.37,1.42,3.37,1.42l2.28,2.73,3,6.65,1.2,7.36.48,7,4.57-1.19,4.33,1.31,3,2.26,3,4.75.48,4.27-2.16,7.72.96,1.9,3.37-3.92,1.56-3.56.12-2.85-.72-3.92-.84-4.63-2.64-3.44-2.88-3.2-2.76-.95-2.88.47s.24-2.26.24-4.04.12-5.46.12-5.46l-.12-3.2-.84-4.04-2.28-4.04-4.33-3.92-2.76-1.54-3.24-1.31s-1.2-.47-2.28-.47-4.21-.12-4.21-.12l-2.16.12-3.37.24-3.61,2.14s-1.56.59-2.28.83-1.32-3.92-1.32-3.92c0,0-.72-1.31-1.32-2.14-.6-.83-3-4.15-3-4.15l-3-1.19-1.92-.47-2.52-.47-3.24-.12-2.04.71-2.76.95-1.2,1.31s-.84-1.42-1.44-1.54c-.6-.12-3.37-2.14-3.37-2.14l-2.64-.59s-3-.12-3.73,0-2.64,1.78-2.64,1.78l-2.4,2.97Z"/>
      <path id="path26" class="cls-11" d="M182.08,225.05l-21.51,1.66-14.42,2.49-8.29,1.66-2.04,2.02,2.88,3.32,6.61,1.19,6.61,2.02h8.29l9.73,1.19,4.81.71,5.29.47,6.13.24,8.17.95h8.89l11.42.95h13.22l18.99-.47,13.7-.47,13.22-.71,14.42-.95,11.42-2.02,11.18-2.02,4.57-2.97-.96-2.49-4.09-1.54-5.53-1.31-4.33-.71-5.89-.95-4.81-.47-5.89-.95-6.61.24-3.85-.47h-2.28l-1.32-.47,5.53-.24,5.53-.24h11.66l7.57.71,8.89,1.31,7.33.47,13.7,2.02,12.14,1.78,9.61,4.99-.24,1.78-.96,2.97-4.57,1.31-8.41,2.49-11.66,2.49-13.22,2.02-8.17.71-9.37.47-7.81.47-14.42.47-58.41.71-18.27-.24-43.63-3.2-22.59-2.26-7.81-.47-6.85-.95-7.33-1.78-3.85-2.02-3.85-2.02-1.32-2.26,2.04-1.54,2.76-1.78,2.76-.71,6.37-1.31,9.37-1.78,12.74-1.31,11.9-1.54s7.81-.95,8.89-.95,11.42-.71,11.42-.71h14.78Z"/>
    </g>
    <g>
      <g>
        <path id="path19523" class="cls-4" d="M394.4,189.29c-7.12.24-14.38-.39-21.41.63-2.18,1.79-1.16,5.28-1.65,7.8-.19,13.8-.77,27.7-.05,41.5.53,4.89,3.63,9.78,8.77,10.65,8.52,1.79,17.43,1.07,26.01-.1,6.05-.48,11.09-6.39,9.83-12.45-.68-2.23-.77-6.3-3.97-5.57-6.3-.29-12.59-.58-18.94-.63-1.21-4.02,3.68-2.23,6.1-2.76,4.26-.19,9.35,0,12.06-3.97,3.1-3.05,1.74-7.89.34-11.38-2.57-2.13-6.44-1.4-9.54-1.84-3-.1-5.96-.05-8.96-.1-1.26-4.26,3.83-2.18,6.34-2.66,5.08-.24,11.53,1.16,15.16-3.49,2.71-2.95,3.39-7.02,2.76-10.9.44-2.37-1.45-4.41-3.83-4.36-6.34-.68-12.74-.29-19.03-.39h0Z"/>
        <path id="path21186" class="cls-4" d="M341.03,188.27c-14.24.19-27.99,10.85-30.32,25.13-1.74,10.41,1.11,21.94,8.38,29.78,7.75,7.65,19.42,8.67,29.74,7.94,6.3-.15,12.54-3.83,15.88-9.15,3.39-5.91.29-14.14-6.1-16.42-2.32-.48-4.46,2.13-6.73,2.81-5.33,2.76-13.71,2.91-16.76-3.2-3.05-5.76-.44-14.82,6.44-16.13,4.79-1.16,9.49,1.94,14.24.24,5.96-1.69,10.27-8.81,7.8-14.72-3.29-3.29-8.23-4.21-12.59-5.33-3.34-.73-6.68-1.07-9.98-.97h0Z"/>
        <path id="path21188" class="cls-4" d="M291.25,188.46c-3.39.29-7.31,1.69-9.06,4.79-1.4,6.78-.24,13.85-1.11,20.68-4.94-6.88-8.14-15.06-13.75-21.5-4.12-3.78-10.32-3.49-15.5-2.76-2.18.97-5.38,1.79-6.15,4.31-.58,15.06-.19,30.22.1,45.28-.1,3.58.92,7.36,4.21,9.3,5.23,4.16,12.93,3.15,17.92-.73.15-6.3.29-12.59.48-18.89,5.18,7.22,8.33,17.1,17.1,20.92,5.52,2.08,12.4,1.74,17.24-1.84,1.84-2.81.82-6.63,1.36-9.83.24-13.66.39-27.41-.53-41.02-1.02-5.38-7.07-8.96-12.3-8.72h0Z"/>
        <path id="path21190" class="cls-4" d="M205.58,189.29c-3.15.39-6.78-.63-9.64.87-1.6,4.6-.92,9.73-1.31,14.58.05,12.69-.39,25.38.77,38.02,1.79,6.25,9.01,8.23,14.82,7.94,7.17-.1,14.53.24,21.55-1.26,4.07-1.6,8.09-5.18,7.55-9.98,0-2.71-.19-5.81-2.03-7.94-6.97.05-14-.29-20.97-.63-1.16-3.92,3.78-2.03,6.1-2.62,4.79-.1,10.99-.34,13.27-5.38,1.31-3.1.48-6.83-.68-9.88-1.74-2.57-5.52-1.16-8.09-1.79-3.54-.15-7.07-.29-10.61-.39-.82-2.71,2.57-2.08,4.12-2.32,5.47-.77,12.01,1.36,16.56-2.76,4.07-3.49,4.65-9.78,2.91-14.58-2.03-2.86-6.25-1.21-9.2-1.79-8.33-.15-16.76-.1-25.13-.1h0Z"/>
        <path id="path21192" class="cls-4" d="M133.37,188.56c-9.35-.24-19.03,2.71-25.62,9.59-5.96,6.1-9.15,14.63-8.57,23.15.15,11.82,6.93,24.36,18.55,28.33,7.6,2.42,15.93,3,23.73,1.26,7.07-1.6,14.24-7.75,13.37-15.59-.82-4.02-3.68-8.28-7.85-9.25-4.7.92-8.52,4.94-13.61,4.21-3.1.34-6.39-.29-8.23-3.05-4.12-5.13-2.91-14.48,3.39-17.43,5.81-1.84,12.16,2.08,17.77-.92,5.18-2.18,8.47-8.81,6.15-14.09-4.21-3.39-9.78-4.84-14.96-6.1-1.36-.15-2.76-.15-4.12-.1h0Z"/>
        <path id="path21194" class="cls-4" d="M68.62,188.51c-8.62-.44-18.21,2.91-22.47,10.9-2.86,5.42-3.44,12.54.39,17.68,4.7,7.55,14.29,8.77,22.23,10.32,2.62-.19,3.87,3.1,2.13,4.79-4.75,2.81-10.36-.1-15.01-1.65-4.07-1.84-10.02-2.23-12.49,2.32-3.49,4.55-2.18,11.77,3.05,14.43,10.41,6.15,23.49,6.01,34.72,2.52,10.7-3.92,15.06-18.35,8.91-27.75-5.57-7.17-14.72-9.78-23.29-11.28-1.6-.19-4.89-1.84-2.76-3.58,3.73-2.47,8.67-.77,12.59.44,2.76.53,5.18,4.21,8.14,2.47,3.29-2.18,6.01-5.86,5.33-10.02-.24-5.33-5.62-8.67-10.12-10.32-3.58-1.31-7.51-1.21-11.33-1.26h0Z"/>
        <path id="path24194" class="cls-8" d="M168.53,236.6c-.73.29-.92,1.21-1.36,1.79-.39.58-.82,1.36-1.16,1.79.05-.53.39-1.45-.29-1.69-.97.58-1.45,1.79-1.99,2.76-.87,1.6-.82,3.49-.68,5.28.24.92.73,1.99,1.6,2.47,1.36.1,2.76-.15,4.07.15.92.39,1.89.68,2.71,1.21.68.29,1.55.82,2.23.39.39-.29,1.21-.82.58-1.26-.24-.15-.92-.15-.58-.58.19-.58.97-1.36.34-1.94-1.07-.24-2.18.29-3.24.39-.53.05-1.26.24-1.65.24.58-.73,1.4-1.31,1.79-2.18-.05-.58-.97-.19-.87-.87,0-.48,0-1.5-.73-1.21-.73.44-1.36,1.07-2.03,1.55.44-2.62,1.4-5.13,1.74-7.8.05-.19-.15-.53-.48-.48h0Z"/>
        <path id="path24192" class="cls-8" d="M182.53,190.21c-1.5.48-3,1.11-4.55,1.21-2.71.29-5.52-.05-8.04-1.11-.48-.24-1.02.15-.92.68-.19,7.55-.05,15.11.1,22.66.05.82-.05,1.65.15,2.47.29.48.82-.05.77-.24-.1.48.1,1.5.73.92.68-1.02.97-2.28,1.4-3.39.39,2.47.73,4.94,1.11,7.36,0,.48.19,1.55.87,1.16.77-.77,1.11-1.84,1.84-2.62.53,1.11.92,2.37,1.4,3.54.24.48.24,1.6,1.02,1.4.68-.58.68-1.65.87-2.42.15-1.11.34-2.18.48-3.24.44,1.26.87,2.57,1.31,3.83.34,1.07.63,2.28,1.4,3.15.87,0,.39-1.16.53-1.69,0-11.09.1-22.13,0-33.22-.1-.29-.24-.48-.48-.44h0Z"/>
        <path id="path24196" class="cls-8" d="M181.9,242.65c-.58,0-1.5-.05-1.36.77-.05.53.1,1.31-.68,1.07-.53-.1-1.55.1-1.21.82.24.68.97,1.16,1.65.77.92-.39,2.08-.53,2.71-1.31.19-.63.29-1.5-.24-1.94-.24-.24-.58-.19-.87-.19h0Z"/>
        <path id="path24201" class="cls-4" d="M176.47,186.28c-2.37.1-5.08.1-7.02,1.69-.63.39-.53,1.21-.1,1.69.97,1.16,2.62,1.5,4.02,1.74,2.71.19,5.62.29,8.14-.87.68-.48,1.65-1.11,1.4-2.08-.63-1.11-1.99-1.45-3.1-1.84-1.07-.24-2.23-.39-3.34-.34h0Z"/>
        <g id="layer3">
          <path id="path21972" class="cls-14" d="M168.65,251.65c-.63-.1-1.36-.29-1.55-.39-.19-.1-.39-.19-.48-.19-.24,0-1.69-1.02-2.13-1.5-1.55-1.65-2.23-4.07-1.69-6.15.15-.48.24-.97.24-1.11s.1-.39.15-.53c.1-.19.34-.68.53-1.11s.44-.87.53-.92c.1-.1.19-.19.19-.24,0-.19,2.03-2.86,2.62-3.44.19-.19.34-.44.34-.58s.05-.24.1-.24c.15,0,.15.53,0,.63-.15.1-.15,1.11,0,1.11.05,0,.19-.1.24-.24s.29-.48.53-.77.58-.82.77-1.16c.19-.34.44-.73.53-.77.1-.1.19-.24.24-.39s.15-.24.19-.24.19-.15.24-.34c.15-.48.39-.44.29.05s-.44,1.79-.58,2.28c-.05.19-.19.63-.24.92-.05.34-.15.73-.24.92-.05.19-.19.63-.24.92-.05.34-.19.87-.34,1.21s-.24.77-.24,1.02c0,.19-.1.53-.19.73s-.19.63-.24,1.02c-.05.34-.15.82-.29,1.07l-.19.39.15.15.15.15.53-.34c.29-.19.68-.53.92-.73s.48-.34.58-.34l.19.05.05,1.07.05,1.07.29.15c.15.1.53.15.77.15.73,0,.73.1-.1.97-.39.44-.82.87-.92,1.02l-.15.19.53-.05c.29-.05,1.07-.1,1.69-.19s1.45-.19,1.74-.29c1.4-.44,1.36.1-.15,1.99-.39.48-.24.63.87,1.16.48.24.24.87-.39.87-.05,0-.24.1-.44.24-.15.15-.39.24-.48.24s-.39.1-.58.24c-.34.19-2.95.63-3.29.58.1-.05-.48-.15-1.11-.24h0ZM173.49,250.54c.15-.1.34-.24.44-.39l.19-.24-.44-.19-.44-.19-.05-.24c0-.15.15-.53.44-.97.73-1.02.34-1.21-1.55-.73-.48.15-1.11.24-1.4.24s-.82.1-1.21.19c-1.4.39-1.4.34,0-1.11,1.16-1.21,1.26-1.4.87-1.4s-.53-.24-.53-.82c0-1.16-.1-1.16-1.31-.15-.48.44-1.02.87-1.21,1.02l-.29.19-.05-.24c-.05-.15.05-.58.15-1.02.15-.44.34-1.21.48-1.69.15-.53.34-1.26.44-1.65s.24-1.02.34-1.4.24-.97.34-1.26c.24-.68.24-1.21,0-1.4l-.19-.15-.19.39c-.1.24-.29.53-.39.68-.44.53-1.07,1.6-1.07,1.74,0,.05-.19.39-.44.68-.24.34-.53.73-.58.92l-.15.34-.15-.15-.15-.15.24-.73c.15-.39.24-.92.24-1.16v-.44l-.19.05c-.1,0-.24.15-.34.29-.05.15-.15.24-.19.29-.24.19-.87,1.31-1.45,2.62-.34.73-.48,1.94-.39,3.29l.05,1.26.34.73c.19.39.48.87.68,1.07l.34.34,1.99.05,1.99.05.24.19c.15.1.39.19.63.19.39,0,1.02.34,1.79.87.68.29,1.65.48,2.13.19h0ZM178.48,245.55c-1.26-1.21-1.21-1.36.63-1.36.48,0,.92-.05,1.02-.1l.19-.1.05-.73.05-.73,1.26-.05,1.26-.05.15.15.15.15v1.11c0,.63-.05,1.21-.1,1.26-.15.19-1.07.63-1.36.63-.15,0-.39.1-.58.19-.34.19-1.5.53-1.79.53.05,0-.44-.44-.92-.92h0ZM180.61,245.65c.24-.1.63-.24.87-.29s.63-.24.92-.39l.48-.29v-.63c0-.34-.05-.73-.15-.87l-.15-.24h-1.65l-.05.24c-.05.15-.1.53-.1.92l-.05.63-.92.05-.92.05-.05.19c-.05.1.05.34.24.53l.34.34h.34c.24-.05.58-.15.82-.24h0ZM175.19,239.54c-.29-.34-.48-.68-.48-.73,0-.19,2.52-2.62,2.62-2.57.19.1.1.58-.15.92-.15.19-.24.48-.24.68s-.1.53-.24.77-.24.53-.24.68-.05.39-.1.58l-.1.29h-.58l-.48-.63h0ZM182.94,228.84c-.05-.1-.1-.29-.1-.39s-.1-.39-.24-.68c-.15-.24-.24-.58-.24-.68s-.1-.39-.19-.58c-.1-.19-.24-.63-.34-.97s-.24-.77-.29-1.02c-.1-.24-.24-.68-.34-1.02s-.29-.87-.39-1.16c-.1-.34-.29-.87-.34-1.16-.15-.63-.39-.77-.73-.44l-.19.24-.15,1.21c-.05.68-.19,1.4-.29,1.65s-.19.92-.24,1.5-.1,1.07-.19,1.11c-.1.05-.68-1.07-.68-1.36,0-.1-.1-.34-.24-.53s-.24-.48-.24-.58c0-.15-.1-.44-.24-.73-.15-.24-.24-.53-.24-.63s-.1-.39-.24-.58c-.1-.24-.24-.58-.29-.82-.1-.39-.63-1.16-.77-1.16-.1,0-.68.92-.68,1.07,0,.05-.24.44-.53.82-.29.44-.53.82-.53.92s-.15.19-.34.29l-.29.1-.1-.15c-.05-.1-.1-.53-.1-.97s-.1-1.16-.19-1.6-.24-1.31-.29-1.99-.19-1.5-.29-1.89-.19-.87-.24-1.11c-.1-.73-.53-.68-.53.05,0,.15-.1.48-.24.73s-.24.63-.29.92-.15.58-.19.68-.19.44-.29.77c-.1.34-.24.82-.34,1.11-.1.24-.19.63-.19.77,0,.68-.24.53-.53-.34l-.1-.24-.1.29c-.05.15-.15.44-.24.58l-.1.29-.1-.1-.1-.1v-32.64l.44-.48c.24-.24.68-.58.92-.68.29-.1.53-.29.58-.34s.24-.15.39-.15.63-.1,1.02-.24l.73-.24h6.1l.73.24c.39.15.87.24,1.07.24s.39.05.44.1c.05.05.29.24.53.34.24.15.68.44.92.73l.48.48v20.24c.05,18.6.05,20.87-.19,20.24h0ZM182.74,207.87v-17.29l-.15-.05c-.1-.05-.44.1-.82.24-.34.15-.73.29-.77.29-.1,0-.24.1-.39.15-.15.1-.53.19-.92.24-.34.05-1.02.15-1.4.24-.44.1-1.4.15-2.18.15h-1.4l-1.4-.24c-1.31-.24-2.32-.53-3.24-1.02-.19-.1-.48-.15-.58-.15l-.19.05v12.74c0,7.02.05,12.79.05,12.93.1.29.29.1.29-.24,0-.44.15-.63.44-.58l.24.05.05.68c.05.58.24.92.24.34,0-.1.1-.29.24-.44s.29-.48.34-.77c.05-.29.19-.68.29-.92.1-.24.24-.63.29-.92.29-1.16.68-.77.82.77.05.68.19,1.55.29,1.94.1.39.19,1.16.24,1.74.05.53.15,1.21.24,1.45s.19.87.19,1.36.1.92.19,1.02l.15.15.24-.34c.39-.53.77-1.16.92-1.5.1-.19.19-.34.24-.34s.15-.15.24-.34l.15-.34.29.05.29.05.1.34c.05.19.19.58.34.87.15.29.24.58.24.73,0,.1.1.34.24.53.15.15.24.44.24.58s.1.48.24.73.29.63.29.87c.19,1.11.97-.58.97-2.18,0-.29.1-.82.19-1.07.1-.29.24-.92.24-1.45l.1-.92.19-.05.19-.05.24.63c.15.34.24.73.24.87s.1.44.24.68.24.58.24.73.1.48.24.73.24.58.24.73.1.44.19.63c.1.19.24.58.29.87.05.29.19.63.34.77s.24.44.29.73l.1.48.1-.15c.1-.39.15-7.65.15-17.77h0ZM178.72,191.07c.58-.05,1.16-.19,1.36-.29.19-.1.44-.19.53-.19.73,0,2.08-1.16,2.08-1.79,0-.77-1.94-1.74-4.26-2.13-.77-.15-4.65-.05-5.47.1-1.74.34-2.66.73-3.34,1.36l-.39.39v.29c0,.63.97,1.5,1.99,1.74.24.05.63.19.87.29.24.1.73.19,1.07.19s.82.05,1.07.1c.63.19,2.95.1,4.5-.05h0Z"/>
          <path id="path17160" class="cls-2" d="M59.88,252.67c-6.88-1.07-11.53-2.76-15.5-5.71l-1.84-1.36-.97-2.03-.97-2.03v-5.42l.87-1.94c2.62-5.86,7.7-7.41,14.67-4.5,8.81,3.68,15.55,3.63,14.63-.1-.29-1.07-1.45-1.5-5.76-2.03-11.72-1.4-19.42-6.88-21.74-15.4l-.77-2.91.24-2.28c1.31-12.69,12.2-20.24,28.19-19.61l5.28.19,2.52.73c5.71,1.65,9.59,4.36,11.53,8.04l.82,1.6-.05,2.91-.05,2.91-.77,1.65c-1.99,4.26-7.65,7.6-9.54,5.57-2.03-2.18-6.15-3.73-10.56-4.02l-3.54-.24-1.07.44c-2.57,1.07-1.36,2.32,2.86,2.95,13.32,1.99,21.65,7.46,24.75,16.18l.73,2.08v3.54c0,15.35-14.04,23.92-33.95,20.82h0ZM72.28,251.75c7.51-.97,11.72-2.66,14.96-5.96,5.67-5.81,7.26-14.48,3.97-21.41l-1.11-2.42-2.57-2.57c-3.78-3.73-9.2-6.25-16.56-7.6-1.69-.34-3.92-.73-4.94-.97-1.02-.19-2.18-.68-2.52-1.07l-.63-.73.34-.97c.19-.58.87-1.26,1.6-1.65l1.26-.63h2.91c4.36,0,9.54,1.69,12.4,4.12l1.07.87,1.4-.48c1.69-.58,4.31-3.05,5.42-5.08l.77-1.45v-5.42l-1.02-1.69c-3.1-5.33-8.57-7.8-17.87-8.18-14.14-.58-23.58,4.75-26.54,14.92l-.63,2.13.15,3.49.15,3.49,1.16,2.37c3.24,6.73,9.44,10.32,20.58,11.72l3.97.53.97.73.97.73.1,1.36.1,1.36-.77.82c-.44.48-1.55,1.02-2.57,1.21l-1.79.39-2.62-.39c-2.66-.39-6.2-1.55-9.49-3.05-5.23-2.37-10.02-.68-12.2,4.26l-.82,1.94v4.75l.92,2.03.92,2.03,1.69,1.16c6.63,4.7,16.71,6.63,26.88,5.33h0ZM128.5,252.67c-9.01-.58-15.64-3.24-21.02-8.33-1.89-1.79-2.91-3.1-5.08-6.63-1.11-1.79-2.71-6.39-3.54-10.12l-.82-3.68.19-5.13c.58-15.35,9.4-26.05,24.8-30.22l3.63-.97h4.89c6.93,0,13.46,1.69,19.37,4.99l2.42,1.36.29.97c.15.53.29,2.37.24,4.07v3.1l-.82,1.65c-1.65,3.39-5.08,6.05-9.25,7.07l-2.37.58-3-.63c-9.1-1.89-14.19.87-14.72,7.99-.39,5.08,1.16,8.43,4.75,10.12l1.99.97h5.23l2.71-1.07c1.5-.58,3.87-1.74,5.28-2.57l2.57-1.5,1.69.63c6.78,2.52,9.83,10.07,6.78,16.8l-1.02,2.28-2.57,2.42c-5.23,4.84-11.77,6.59-22.62,5.86h0ZM141.29,250.92c7.89-2.08,13.17-7.31,13.51-13.51l.15-2.37-.82-2.18c-1.02-2.71-3.39-5.33-5.76-6.34l-1.74-.77-3.2,1.79c-8.96,5.04-16.47,4.31-19.61-1.94l-.92-1.84-.19-2.95-.19-2.95.58-1.99c1.69-5.76,7.02-8.18,14.33-6.49l3.63.82,2.08-.44c6.83-1.36,10.61-6.54,9.78-13.32l-.24-1.99-2.62-1.31c-3.49-1.74-6.59-2.91-10.36-3.83l-3.2-.68h-4.75c-16.08-.05-28.96,9.98-31.96,24.8l-.63,3.1.19,4.75.19,4.75.97,3.54c3.1,11.53,10.07,18.5,21.11,21.07,3.73.87,3.78.87,10.75.92l6.39.05,2.52-.68Z"/>
          <path id="path17162" class="cls-2" d="M339.7,252.23c-17.19-1.07-27.12-10.07-29.98-27.17l-.63-3.78.24-3.68c1.5-24.55,27.02-37.77,50.9-26.39,4.26,2.03,4.41,2.18,4.79,4.79,1.07,6.88-2.66,12.25-9.88,14.33l-2.13.63-2.37-.44c-6.63-1.21-8.18-1.21-10.94.19-3.49,1.74-4.89,4.41-4.84,9.06l.05,2.95.73,1.6c.97,2.18,2.62,3.68,4.84,4.5l1.84.68,2.81-.15,2.81-.15,3.44-1.69c1.89-.92,4.02-2.03,4.75-2.47l1.26-.77,2.18.82,2.18.82,1.89,1.94c1.26,1.26,2.13,2.62,2.66,4.02l.77,2.08-.15,3.1-.15,3.1-1.02,1.94c-3.97,7.6-12.54,10.99-26.05,10.12h0ZM353.84,250.1c4.89-1.69,9.15-4.94,10.94-8.43l.82-1.6.15-3.15.15-3.15-.92-1.94c-1.21-2.66-2.86-4.46-5.18-5.57l-1.99-.97-1.69.97c-7.12,4.16-11.72,5.13-16.37,3.39-6.97-2.62-8.57-13.22-2.81-18.45l1.99-1.84,2.03-.58c2.28-.68,4.65-.53,8.43.44l2.37.58,2.37-.44c6.63-1.21,10.94-7.02,9.78-13.22-.44-2.37-.44-2.32-3.73-3.87-26.44-12.25-53.56,5.13-49.59,31.72,2.91,19.18,14.29,27.94,35.35,27.07l5.47-.19,2.42-.77ZM254.32,251.75c-4.26-1.21-6.97-3.29-8.62-6.73l-1.02-2.03-.1-23.97c-.05-13.17.05-24.65.19-25.42l.29-1.45,1.94-1.31c1.07-.73,2.76-1.6,3.78-1.99l1.84-.68h9.49l2.13,1.07c2.52,1.26,5.08,3.44,6.2,5.23,1.11,1.74,5.91,10.07,7.8,13.56.82,1.55,1.69,2.91,1.89,3,.19.15.34-3.34.34-9.01v-9.25l1.65-1.55c.92-.82,2.57-1.99,3.73-2.47l2.08-.97h7.26l2.18,1.02c2.66,1.26,4.99,3.44,6.25,5.86l.92,1.84.34,8.91c.34,8.81.1,34.82-.34,39.86l-.24,2.62-1.65,1.26c-3.58,2.76-8.81,3.73-14.09,2.57-7.51-1.65-11.24-5.18-17.53-16.47-.92-1.65-1.79-3-1.89-3-.15,0-.15,3.54-.1,7.89l.15,7.89-1.79,1.21c-.97.68-2.76,1.6-3.92,2.08l-2.13.87h-2.71c-1.45.05-3.39-.19-4.31-.44h0ZM262.89,250.44c1.21-.39,2.81-1.21,3.63-1.74l1.45-1.02-.1-9.93-.1-9.93.48.39c.24.19,1.99,3.1,3.87,6.39,6.73,11.82,10.27,15.06,17.87,16.27l2.47.39,2.81-.44c2.86-.44,5.81-1.6,7.26-2.81l.82-.68.39-4.55c.19-2.62.34-13.08.29-24.89l-.1-20.34-.97-2.03c-1.21-2.57-3.15-4.5-5.71-5.71l-2.03-.97h-6.88l-1.69.77c-.92.44-2.37,1.4-3.2,2.13l-1.5,1.36-.1,10.85c-.05,6.44-.24,10.9-.44,10.94s-1.16-1.4-2.18-3.2c-10.51-18.5-10.22-18.06-12.79-19.95-5.28-3.87-15.98-3.39-19.9.92l-.73.82-.1,19.86c-.05,10.9.05,22.23.24,25.18l.34,5.33.87,1.4c3,5.04,9.69,7.26,15.69,5.18h0ZM205.65,251.51c-7.22-.97-10.75-4.6-12.01-12.49l-.48-2.91.1-15.98c.1-15.98.73-30.41,1.4-31.09,1.02-1.02,43.15-1.02,45.09,0,2.95,1.6,2.62,11.77-.53,16.08l-1.26,1.69-2.42,1.21-2.42,1.21-7.65.1c-9.69.15-10.36.63-1.21.92,3.87.1,7.99.44,9.2.68l2.18.48.82,2.37.82,2.37-.1,3.1-.1,3.1-1.07,1.74c-2.37,3.83-4.99,4.84-13.37,5.18l-5.38.24v.97l10.27.1,10.27.1,1.26,2.52,1.26,2.52v6.59l-1.02,1.99c-1.99,3.92-5.28,6.15-10.32,6.93-3.34.53-20,.73-23.34.29h0ZM228.7,250.05c4.46-.63,7.94-2.86,9.78-6.34l.77-1.45v-6.59l-1.02-2.08-1.02-2.08-10.41-.1-10.41-.1-.1-1.55-.1-1.55h5.04c8.14,0,11.62-1.11,13.8-4.41l1.02-1.5.15-2.76c.15-3.15-.68-6.73-1.69-7.26-1.21-.63-6.39-1.11-12.25-1.11h-6.01l.1-1.36.1-1.36,8.18-.19,8.18-.19,2.08-1.02c2.52-1.21,4.21-3.15,5.18-5.76l.73-1.94v-3.1c0-3.44-.58-5.62-1.65-6.2-1.94-1.02-42.23-1.07-43.25-.05-.68.68-1.02,7.85-1.26,25.86-.34,26.59.29,29.83,6.44,32.98l2.32,1.21,4.36.34c4.84.44,17.14.19,20.92-.34h0ZM381.64,251.41c-6.59-1.02-9.93-4.31-11.33-11.24l-.63-3,.1-17.43c.1-17.39.68-29.98,1.45-30.75.92-.92,42.52-1.07,44.84-.15.34.15.92.92,1.26,1.74l.68,1.5v8.72l-.97,1.99c-1.21,2.57-2.91,4.21-5.42,5.42l-1.99.92-7.6.1c-9.69.15-10.36.63-1.21.92,3.87.1,7.99.44,9.15.68l2.13.48.87,2.52.87,2.52-.1,2.71-.1,2.71-.82,1.74c-1.94,3.97-5.08,5.28-13.56,5.62l-5.38.24v.97h20.34l.92,1.6c4.94,8.47.44,17.48-9.64,19.18-3.54.68-20.63.82-23.88.29h0ZM400.53,250.44c10.22-.68,14.63-3.63,15.3-10.41l.24-2.23-.77-2.47c-.44-1.36-1.02-2.76-1.26-3.1l-.48-.63-10.32-.1-10.32-.1-.1-1.55-.1-1.55h5.04c8.52,0,11.96-1.21,14-4.89l.97-1.79v-2.52c0-2.81-.92-6.3-1.79-6.73-1.16-.63-6.39-1.11-12.2-1.11h-5.96v-2.81l8.28-.1,8.28-.1,2.08-1.02c2.42-1.16,3.68-2.57,4.94-5.33l.92-1.99v-3.44c0-3.68-.68-5.86-1.84-6.34-2.47-.97-42.08-.82-43.05.1-.68.68-.97,6.68-1.21,25.67l-.24,18.16.39,3.68c1.21,11.77,6.68,14.14,29.2,12.69h0Z"/>
          <g id="g24219">
            <path id="path21214" class="cls-4" d="M300.19,164.45c-3.54-.1-6.93,2.13-8.43,5.28-1.21,2.62-.82,5.76.34,8.33,1.16,2.76,4.02,4.41,6.93,4.6,2.08.15,4.36.24,6.2-.97,1.79-.97,2.91-3.44,1.69-5.23-.48-.82-1.36-1.55-2.28-1.65-1.5.73-3.34,1.84-5.04,1.11-1.11-.53-1.26-1.94-1.21-3,.05-1.6,1.99-2.66,3.44-2.18,1.26.48,2.62.24,3.68-.53,1.26-.87,1.84-2.76,1.07-4.12-.92-.68-2.08-1.02-3.15-1.4-1.07-.24-2.18-.24-3.24-.24h0Z"/>
            <path id="path21216" class="cls-4" d="M316.7,164.45c-3.29-.15-6.49,1.79-7.89,4.75-.68,1.31-.97,2.76-.87,4.21-.15,2.62.63,5.47,2.71,7.22,1.89,1.65,4.41,2.47,6.93,2.18,3.24,0,6.49-1.84,7.85-4.84,1.02-2.13,1.02-4.6.53-6.83-.68-2.76-2.66-5.23-5.38-6.15-1.21-.48-2.57-.53-3.87-.53h0ZM317.24,171.28c1.45.1,1.69,1.84,1.6,3-.19.97-1.02,2.23-2.18,1.84-1.69-.68-1.94-3.15-.77-4.36.34-.39.82-.53,1.36-.48Z"/>
            <path id="path21218" class="cls-4" d="M333.31,164.41c-1.89,0-3.92.1-5.57,1.16-.48.68-.15,1.6-.29,2.37,0,3.44-.15,6.93.1,10.36.15,1.55.97,3.2,2.52,3.78,1.94.92,4.12.63,6.2.44,2.03-.24,3.92-1.4,5.18-3,1.99-2.62,2.37-6.15,1.69-9.3-.73-3.1-3.58-5.38-6.73-5.67-1.02-.15-2.08-.15-3.1-.15h0ZM334.91,170.8c1.11-.19,1.99.82,1.94,1.84.05,1.31.15,3.05-1.16,3.83-.48.15-1.16.29-1.55,0-.1-1.84-.1-3.73,0-5.57.24-.1.48-.1.77-.1h0Z"/>
            <path id="path21220" class="cls-4" d="M350.02,164.65c-1.69.1-3.44-.1-5.08.29-.53.53-.29,1.4-.44,2.08-.19,4.07-.29,8.18,0,12.25.15,1.26.87,2.57,2.13,2.95,1.07.58,2.32.15,3.49.29,1.89-.1,3.92.24,5.71-.58,1.89-.92,2.23-3.68,1.07-5.23-1.94-.29-3.87-.15-5.81-.19.24-.44,1.26-.1,1.84-.19,1.55.15,3.44-.68,3.73-2.32.1-.97.1-2.23-.77-2.86-1.55-.29-3.24-.1-4.79-.24.53-.24,1.5-.05,2.18-.15,1.11-.1,2.32.24,3.24-.58.82-.63,1.65-1.55,1.4-2.66-.15-.77.24-1.89-.53-2.42-1.99-.39-4.07-.24-6.1-.29-.44-.15-.82-.15-1.26-.15h0Z"/>
            <path id="path21222" class="cls-4" d="M372.83,164.79c-1.65.05-3.34-.05-4.99.1-.58.39-.29,1.31-.44,1.89-.15,3.92-.39,7.85-.15,11.77.1,1.45.73,2.95,2.13,3.54,1.26.68,2.95.82,4.21,0,.53-.68.19-1.65.34-2.42.19-.53-.34-1.84.58-1.65,1.5-.15,3.39.24,4.41-1.16.87-1.21.87-2.91.24-4.21-.48-.73-1.55-.39-2.32-.53-.97-.05-1.94-.1-2.91-.15-.05-.73-.15-1.5.87-1.21,1.55-.1,3.34.39,4.65-.73.97-.68,1.45-1.79,1.36-2.95,0-.82,0-2.13-1.02-2.32-2.23.05-4.6.05-6.97.05h0Z"/>
            <path id="path21224" class="cls-4" d="M390.46,164.41c-3.49-.1-6.97,2.08-8.23,5.38-.92,2.23-.82,4.84-.19,7.12,1.02,3.73,4.94,6.2,8.72,5.91,2.71.05,5.47-.92,7.22-3.1,1.84-2.03,2.18-4.94,1.94-7.6-.44-1.94-1.26-3.87-2.66-5.33-1.55-1.55-3.73-2.37-5.91-2.42-.29.05-.58.05-.87.05h0ZM390.85,171.23c1.45.15,1.89,1.89,1.6,3.05-.15.77-.53,1.65-1.4,1.79-.77.29-1.65-.44-1.94-1.16-.68-1.31-.15-3.34,1.4-3.68h.34Z"/>
            <path id="path21226" class="cls-4" d="M407.27,164.41c-1.94.1-4.07.15-5.71,1.26-.87.73-.58,1.99-.73,2.95,0,3.34-.1,6.68.19,10.02.44,2.28,2.76,4.46,5.18,3.78.77-.15,1.5-.68,1.45-1.55.15-1.02.24-2.03.24-3.05,1.31,1.79,2.37,4.16,4.65,4.99,1.89.68,4.12-.77,4.41-2.71-.73-1.5-1.74-2.81-2.62-4.21,1.02-1.07,2.18-2.28,2.18-3.87.19-1.31,0-2.71-.68-3.87-.82-1.6-2.28-2.86-4.07-3.24-1.45-.44-3-.53-4.5-.48h0ZM408.86,170.75c.48-.1,1.16.63.68,1.02-.34.1-.97.34-1.26.15.05-.44-.19-1.26.48-1.16h.1Z"/>
            <path id="path19450" class="cls-2" d="M315.25,182.71c-4.99-.92-7.51-4.26-7.31-9.83l.05-1.5.19-.73c.92-3.1,3.05-5.18,6.05-6.01l.77-.19,1.5-.05,1.5-.05.92.15c5.23.97,8.23,5.96,7.02,11.62-.97,4.65-5.67,7.51-10.7,6.59h0ZM318.54,182.47c3.92-.58,6.54-3,7.26-6.73l.15-.82-.05-1.45-.05-1.45-.24-.82c-1.11-4.16-4.21-6.49-8.62-6.49s-7.36,2.28-8.52,6.15l-.19.73v3.78l.24.92c.15.48.44,1.36.68,1.89l.48.97.77.82c1.94,2.08,4.94,3,8.09,2.52h0ZM316.46,176.42c-.87-.39-1.36-1.02-1.55-2.18l-.1-.63.1-.63c.53-2.86,3.83-2.91,4.26,0,.34,2.23-1.16,4.12-2.71,3.44h0ZM317.91,175.88c1.5-1.11,1.16-4.36-.53-4.7-1.55-.29-2.57,1.4-2.08,3.39.29,1.31,1.69,1.99,2.62,1.31h0ZM388.96,182.71c-3.54-.63-5.96-2.62-6.83-5.62-1.26-4.12-.34-8.04,2.42-10.61l.73-.68.92-.44c.53-.24,1.31-.53,1.74-.68l.82-.24,1.45-.05,1.45-.05.97.15c3.49.58,5.91,2.81,6.93,6.34l.29,1.11.05,1.26.05,1.26-.19.92c-.97,5.33-5.47,8.28-10.8,7.31h0ZM392.25,182.47c3.87-.63,6.15-2.66,7.17-6.3l.19-.63v-3.29l-.24-.87c-1.21-4.36-4.16-6.63-8.67-6.63-6.39,0-10.17,5.47-8.33,12.11,1.07,3.97,5.23,6.34,9.88,5.62h0ZM390.12,176.46c-2.18-.77-2.18-4.75,0-5.47l.48-.15.53.15.53.15.44.44c.92.92,1.02,2.86.24,4.07l-.29.48-.53.24c-.58.24-.87.24-1.4.1h0ZM391.67,175.83c.19-.15.44-.48.58-.77l.24-.48v-1.94l-.24-.44c-.15-.24-.44-.58-.68-.73l-.44-.29h-1.07l-.39.24-.39.24-.29.58-.29.58v.77c.15,2.03,1.65,3.24,2.95,2.23h0ZM412.88,182.81c-1.74-.29-2.42-1.02-4.75-4.7-.19-.34-.19-.39-.39,1.6l-.15,1.79-.19.19c-1.11,1.21-3.78.97-5.13-.48-1.26-1.36-1.55-2.86-1.5-9.01,0-3.87.15-5.76.44-6.2.97-1.45,7.46-2.13,10.65-1.11,4.65,1.5,6.34,7.02,3.1,10.27l-.73.73.24.29c.44.53,1.79,2.62,2.13,3.29l.34.68-.15.53c-.48,1.6-2.08,2.47-3.92,2.13h0ZM414.87,182.32c.68-.29,1.16-.77,1.45-1.45l.29-.63-.15-.39c-.19-.53-1.26-2.18-1.99-3.15s-.73-.92-.15-1.4c1.31-1.11,1.99-2.42,1.99-4.12v-.92l-.24-.77c-.34-1.07-.92-2.03-1.65-2.76l-.63-.63-.87-.39c-3.05-1.45-9.78-1.21-11.33.44l-.24.15-.1.77c-.29,2.37-.19,10.41.15,11.77.73,2.81,3.78,4.31,5.62,2.81l.29-.24.15-1.5c.1-.82.15-1.79.15-2.23,0-1.07,0-1.11,1.79,1.74,1.74,2.81,3.58,3.78,5.47,2.91h0ZM407.99,172.2s-.05-.44-.05-.87v-.77l.44-.1c1.07-.29,1.99.48,1.65,1.4-.15.34-1.74.63-2.03.34h0ZM409.54,171.77c.53-.53-.19-1.21-1.07-1.07l-.29.05v1.16h1.16l.19-.15ZM299.66,182.71c-5.38-.34-8.52-3.78-8.52-9.3v-1.4l.29-.97c1.6-5.81,8.09-8.38,14.04-5.52q1.21.58,1.36,1.36l.1.58-.1.58c-.24,1.45-1.21,2.42-2.76,2.86l-.68.19-.63-.15c-1.84-.34-2.37-.34-3.15.15-.58.34-.87.63-1.07,1.16l-.19.39v1.74l.19.44c.29.58.73,1.02,1.36,1.26l.53.19.77-.05.77-.05.97-.48c.53-.24,1.11-.58,1.36-.68l.34-.24.58.19c.73.29,1.4.87,1.79,1.55l.29.53.05.92.05.92-.29.68c-1.16,2.42-3.58,3.39-7.46,3.15h0ZM303.72,182.08c1.45-.53,2.47-1.31,3-2.37l.29-.63v-1.65l-.29-.63c-.34-.68-.82-1.16-1.5-1.45l-.44-.19-.77.44c-3.44,1.94-6.01,1.02-6.01-2.18v-.87l.19-.48c.39-.87,1.4-1.6,2.42-1.69l.58-.05.97.24.97.24.68-.15c.87-.15,1.65-.63,2.13-1.26l.39-.53.15-.73.15-.73-.15-.53-.15-.53-.82-.44c-7.22-3.58-15.21,1.45-14.04,8.81.87,5.52,4.02,7.94,9.93,7.7l1.6-.05.73-.29ZM332.49,182.71c-3.1-.29-4.55-1.6-4.99-4.41-.29-1.99-.29-11.04,0-12.45.15-.73,3.15-1.45,6.05-1.45h1.69l1.21.19c5.13.87,7.75,4.94,6.78,10.56-.87,5.33-4.84,8.14-10.75,7.55h0ZM337.14,182.08c.48-.15,1.26-.44,1.65-.68l.73-.39.97-.97.97-.97.44-.82c1.69-3.24,1.69-7.55.05-10.12-1.6-2.42-4.07-3.44-8.28-3.49h-1.69l-1.07.19c-1.16.19-2.66.68-2.86.92-.24.29-.39,8.77-.19,11.62.19,3,1.16,4.26,3.68,4.79l.87.19,1.94-.05,1.94-.05.87-.19ZM333.99,176.8l-.24-.19-.05-2.95-.05-2.95.1-.15.1-.15h1.74l.39.19c.68.34.97.87,1.16,1.94l.15.73-.1.92c-.19,1.6-.73,2.42-1.79,2.66-.63.19-1.11.15-1.4-.05h0ZM335.64,176.56c.48-.19.87-.73,1.11-1.5l.15-.68-.05-1.11-.05-1.11-.24-.44c-.15-.24-.39-.53-.53-.68l-.34-.24-.68-.05c-.44-.05-.73,0-.82.1l-.15.15v2.66c0,1.65.05,2.71.1,2.86l.1.19h.53c.29-.05.68-.1.87-.15h0ZM347.65,182.47c-1.5-.24-2.52-.97-2.95-2.18-.63-1.74-.58-15.16.1-15.45.34-.15,5.81-.24,9.1-.15l3.44.1.19.24c.73.87.58,3.34-.29,4.46l-.34.48-.68.34-.68.34-2.13.05c-1.16,0-2.18.1-2.23.15s.48.1,1.45.1c1.36,0,2.18.05,3.29.24l.34.05.19.48c.73,1.69.19,3.63-1.21,4.21-.48.24-1.94.39-3.2.39h-.97l.05.15.05.15,2.81.05,2.81.05.29.48c.82,1.31.63,3.1-.39,4.26l-.44.48-.73.29-.73.29-1.31.1c-1.74.05-4.75,0-5.86-.15h0ZM354.24,182.13c.48-.05.92-.19,1.36-.44l.68-.34.39-.48c.68-.92.77-2.23.24-3.39l-.24-.58-2.95-.05-2.95-.05-.05-.44-.05-.44,1.79-.05,1.79-.05.58-.24c1.45-.58,2.03-2.32,1.26-3.92l-.19-.39-.77-.15c-.44-.05-1.6-.15-2.57-.15h-1.84l.05-.39.05-.39,2.32-.05,2.32-.05.53-.24c.63-.29,1.21-.82,1.5-1.5l.24-.53v-1.02c0-1.11-.15-1.74-.44-1.84-.63-.24-11.96-.24-12.2,0s-.48,9.88-.34,12.64c.1,1.74.29,2.42.77,3.15l.34.48.68.34.68.34,1.21.1c1.21.29,4.7.24,5.81.1h0ZM370.31,182.42c-1.65-.48-2.42-1.26-2.91-2.91l-.19-.63v-5.28c0-4.7.1-7.36.29-8.43l.05-.29,1.65-.15,1.65-.15,4.02.1c2.23.05,4.36.1,4.75.15l.73.05.24.58.24.58-.05,1.07-.05,1.07-.29.58c-.44.87-1.02,1.45-1.89,1.69l-.48.15-2.08.05-2.08.05v1.26h1.69c1.45,0,2.76.15,3.29.29.1.05.29.34.39.63l.24.58v2.03l-.34.68c-.39.77-.87,1.21-1.55,1.45l-.48.15-1.6.05-1.6.05v.53c0,.29-.05,1.16-.1,1.94l-.05,1.4-.34.19c-.77.68-2.08.82-3.15.48h0ZM373.17,182.03l.48-.24v-.97c0-.53.05-1.45.05-2.03l.05-1.11h1.6c1.79,0,2.13-.05,2.86-.53l.48-.34.29-.63.29-.63v-1.94l-.19-.48-.19-.48-.44-.1c-.24-.05-1.4-.15-2.62-.19l-2.18-.05v-1.84l2.32-.05,2.32-.05.58-.24c.68-.29,1.16-.77,1.45-1.4l.24-.48v-2.32l-.15-.29-.15-.29-.82-.05c-2.95-.24-11.24-.19-11.53.1-.24.24-.53,10.94-.34,12.93.24,2.23.87,3.24,2.52,3.83l.73.24.92-.05.92-.05.48-.24Z"/>
          </g>
        </g>
        <path id="path-1" class="cls-3" d="M164.75,248.81c.15.1.44.34.87.58.15.05.29.15.48.24.29.15,1.02.44,1.45.68.73.39,1.55.68,2.47.77.87.1,1.74.05,2.57-.15.1-.05.19-.05.29-.1.15-.05.19-.1.24-.15,0,0,.05-.05,0-.05,0,0-.05-.05-.05,0-.05.05-.15.1-.24.15-.1.05-.15.05-.29.1-.82.19-1.69.24-2.52.15-.87-.1-1.69-.39-2.42-.77-.44-.24-1.16-.53-1.45-.68-.19-.1-.34-.19-.48-.24-.48-.24-.73-.44-.87-.58h-.05s0,.05,0,.05h0Z"/>
        <path id="path23555" class="cls-12" d="M165,248.66c-.1,0-.29.05-.24.19.1.15.29.24.44.34.77.48,1.65.82,2.47,1.26s1.74.68,2.71.77c.82.05,1.69,0,2.47-.29.1-.05.24-.15.15-.24s-.29-.05-.44-.05c-.58-.05-1.11-.39-1.6-.73-.48-.29-1.02-.58-1.6-.63-.24-.05-.44-.15-.63-.29-.15-.15-.34-.05-.53-.1-1.02-.19-2.08-.24-3.2-.24h0Z"/>
        <g id="layer4">
          <path id="path33479" class="cls-2" d="M78.59,230c-.45,0-.9.23-1.19.57l-.23.28-.62,1.87c-.34,1.02-.74,2.23-.9,2.69-.17.45-.42,1.27-.59,1.84-.17.54-.51,1.53-.74,2.21-.23.65-.68,2.04-1.02,3.08-.34,1.02-.79,2.43-1.02,3.11s-.51,1.58-.65,1.98c-.14.42-.25.79-.31.88-.11.23-.76,2.37-.76,2.54,0,.34.2.74.54,1.05.34-.08.79-.14,1.39-.23.08-.03.2-.06.34-.06-.23-.51,0-.76.48-.57-.23.14-.31.31-.28.57.17-.03.37-.03.57-.06h0s.03-.03.06-.03c.11-.06.25-.06.37-.08h.06c.08,0,.17.03.25.06.51-.03,1.1-.08,1.78-.11.23.03.42.06.65,0,.08-.03.2-.03.31-.06.74-.03,1.55-.06,2.49-.06,0-.03.03-.06.03-.08.03-.08.17-.14.28-.17.08-.03.11-.03.17-.06.03,0,.06-.03.11-.03h-.17c.4-.06.76-.11.96-.14.74-.14,1.87-.34,2.52-.45,1.89-.34,5.43-.96,6.08-1.07.34-.06,1.1-.2,1.7-.31,2.04-.34,2.21-.37,2.12-.45-.03-.03-.03-.06,0-.03.08.03,3.84,1.22,5.91,1.87.51.17,1.22.37,1.53.48.65.2.68.2.76-.14l.06-.23-.2-.08c-.17-.06-1.05-.34-5.57-1.75-.9-.28-1.87-.59-2.15-.68l-.51-.17-10.38.03c-5.71.03-10.38,0-10.4-.03s.62-2.15,1.61-4.98c.11-.34.68-2.04,1.24-3.73.57-1.72,1.07-3.17,1.1-3.25.03-.06.11-.25.14-.42s.08-.34.14-.42c.03-.06.2-.51.34-.99s.34-.99.4-1.16.17-.45.23-.65.14-.48.23-.62c.06-.14.11-.28.11-.34,0-.03.11-.17.23-.31l.23-.23h.28c.57,0,2.04,1.22,3.82,3.19.25.28.79.82,1.19,1.24.4.42.9.93,1.1,1.16s.51.57.71.74.4.4.45.48l.11.14h-.71c-.4,0-.74.03-.74.08-.03.03-.51-.4-1.1-.99s-1.27-1.27-1.53-1.5-.57-.48-.71-.54l-.28-.11-.23.08c-.4.14-.45.23-.9,1.3-.4.88-.28,1.19.51,1.7.31.17.57.34.57.34.03,0,.37.23.79.48.42.25.88.57,1.05.65s.34.2.4.25c.06.06.23.14.37.2s.25.14.25.17.14.11.34.2c.2.08.34.17.34.2s.14.11.31.23c.17.08.37.2.42.25.06.06.14.11.17.11s.14.08.25.17l.17.17.14-.2c.2-.28.17-.42-.31-1.53-.23-.54-.45-1.07-.48-1.16l-.03-.17.93-.11c.51-.06.96-.11,1.02-.17l.11-.06-1.13-1.13c-1.19-1.19-4.35-4.38-5.71-5.74l-.79-.79-.34-.14c-.2-.03-.42-.08-.62-.06h0ZM73.02,251.77s-.03,0,0,0c-.03,0,0,0,0,0h0ZM91.05,243.09v1.02l-.03,1.02-.25.14c-.14.08-.71.51-1.27.96-1.27.96-1.13.99-1.7-.31-.62-1.41-.65-1.36-.11.23.23.71.42,1.33.42,1.39,0,.17.17.11.57-.17.76-.57,1.78-1.27,2.01-1.39.11-.08.34-.23.45-.37l.25-.23-.06-.9-.08-.9h.17c.28,0,.48.17,1.58,1.27l1.07,1.07,1.64.51c.9.28,1.84.57,2.09.65s1.22.4,2.15.68c.9.28,1.81.57,2.01.62h0c.4.11.48.08.51-.28v-.25l-1.16-.37c-.62-.2-1.78-.57-2.52-.79-.76-.23-1.95-.59-2.63-.82-.71-.23-1.33-.4-1.39-.4s-.48-.34-.9-.76l-.79-.76-.99-.37-1.05-.48ZM103.72,247.56h-.17l-.2.42c-.11.23-.2.59-.25.76-.03.17-.08.34-.11.37-.03.03-.14.37-.25.79s-.23.82-.28.9c-.06.08-.06.17-.06.2.03.03.11-.11.2-.28l.17-.34.08.25c.06.14.06.23.03.2-.03-.03-.11.03-.2.11-.06.08-.2.17-.31.17h-.2v.25c0,.14-.03.28-.03.34v.06s.03,0,.03.03c.03,0,.03.03.03.03l.28-.03.37-.03v.17h0c.08,0,.03,0,.14.03.08,0,.17.03.2.08.08-.28.23-.74.42-1.27.74-2.18.93-2.88.88-2.94-.03-.11-.57-.28-.76-.28h0ZM80.08,251.23h0s.03,0,0,0c.03,0,0,0,0,0h0Z"/>
          <path id="path35524" class="cls-10" d="M79.01,251.38c-.71.03-1.41,0-2.09.17-.48.11-1.02.17-1.47.37-.37.14-.76.2-1.16.25-.54.03-1.1.08-1.67-.03-.25-.11-.54-.11-.79-.25-.25,0-.48.06-.74.11-.14.08,0,.28.06.4.14.31.42.54.76.59.48.08.96.03,1.44-.03,2.04-.45,4.07-.9,6.11-1.39.2-.11-.03-.25-.17-.2-.06-.03-.17-.03-.28,0Z"/>
          <path id="path-1-4" class="cls-2" d="M82.8,250.5c-.17.03-.37.06-.74.17h-.03c-.11.03-.45.17-.68.23-1.44.54-2.57.71-4.49,1.16-1.16.25-2.37.57-3.56.79-.31.03-.62.08-.93.08-.17,0-.31-.03-.45-.06-.14-.06-.28-.11-.4-.2-.08-.06-.14-.14-.2-.23s-.11-.17-.14-.28c-.06-.11-.08-.2-.14-.28-.06-.11-.11-.2-.14-.28-.03-.03-.06-.03-.08-.03-.03.03-.03.06-.03.08.06.08.08.17.14.28.03.08.08.2.14.28.03.08.08.2.14.28s.11.17.23.25c.14.11.28.17.45.23.14.06.31.06.48.08.31,0,.65-.03.96-.08,1.22-.23,2.43-.54,3.59-.79,1.92-.45,3.05-.65,4.49-1.16.23-.06.59-.2.68-.23h.03c.37-.11.57-.17.71-.17.03,0,.06-.03.06-.06-.03-.06-.03-.08-.08-.08h0Z"/>
          <path id="path-1-1" class="cls-3" d="M72.34,247.9c-.06.11-.57,1.05-.76,1.55-.08.25-.2.54-.25.85-.06.28-.06.57-.03.88.03.11.06.23.11.31,0,.03.03.03.03.06.06.06.08.14.17.2.06.06.14.11.25.17.08.06.17.08.28.11.2.06.4.08.62.11.2.03.4.03.59.06.71.03,1.41-.08,2.18-.25.65-.14,1.41-.37,2.12-.48h.03c.93-.34,1.87-.51,2.88-.68.96-.17,1.98-.31,2.97-.54.96-.23,1.95-.4,2.94-.62.2,0,.4-.03.57-.08.2-.06.37-.11.54-.17s.34-.14.54-.17c.17-.06.37-.08.54-.08h0c.62-.11,1.3-.14,1.92-.2.34-.03.65-.08.96-.14.34-.06.65-.17.93-.28.03-.03.08-.03.11-.06.03,0,.08-.03.11-.03.08-.03.17-.03.28-.03.06,0,.08-.03.14-.03.06-.03.08-.03.14-.06s.08-.06.11-.08c.03-.06.06-.08.08-.14.03-.03,0-.08-.06-.11-.03-.03-.08,0-.11.06-.03.03-.03.08-.06.11-.03.03-.06.06-.08.06-.03.03-.06.03-.11.06-.03,0-.08.03-.11.03-.08.03-.2.03-.28.03-.06,0-.08.03-.14.03-.06.03-.08.03-.14.06-.28.11-.57.23-.9.28-.31.06-.62.11-.93.14-.57.06-1.3.08-1.92.2-.2,0-.4.03-.59.08-.2.06-.37.11-.54.2-.17.06-.34.14-.54.17-.17.06-.37.08-.54.08h-.03c-.96.23-1.98.42-2.94.62-.96.25-1.98.37-2.94.54-1.02.17-1.98.37-2.91.68-.71.11-1.47.34-2.12.48-.76.17-1.44.28-2.12.25-.2-.03-.37-.03-.57-.06-.23-.03-.4-.06-.57-.11-.08-.03-.17-.06-.25-.11-.08-.06-.14-.08-.2-.14s-.08-.11-.14-.17l-.03-.03c-.06-.08-.08-.17-.08-.25-.03-.28-.03-.57.03-.82.06-.28.14-.57.23-.82.2-.51.71-1.44.76-1.55.03-.03,0-.08-.03-.11-.08-.08-.14-.06-.14-.03h0Z"/>
          <path id="path35303" class="cls-12" d="M91.96,247.73c-6.5.08-12.98.06-19.48.06-.37.17-.42.68-.62,1.02-.34.79-.79,1.7-.51,2.57.23.48.82.88,1.36.59.17-.14.23-.08.4-.03,1.72-.23,3.56-.06,5.23-.71,2.04-.48,4.18-.74,6.25-1.22.9-.25,1.84-.34,2.74-.59,1.07-.42,2.23-.4,3.36-.57.85-.08,1.67-.37,2.49-.62.31-.14.08-.57-.23-.51-.31,0-.65,0-.99,0h0Z"/>
          <path id="path35305" class="cls-12" d="M75.25,251.57c-.74.03-1.44.08-2.18.17-.17-.08-.4-.08-.54.08-.14.11-.06.37.14.4.51.08,1.05.06,1.55.03.4-.03.76-.11,1.13-.2.17-.06.23-.28.08-.4-.03-.08-.11-.08-.2-.08Z"/>
          <path id="path35527" class="cls-10" d="M81.24,250.81c-.4.06-.79.11-1.19.2-.17.11-.48.11-.59.34-.03.14.14.23.25.17.54-.14,1.07-.31,1.58-.51.08-.06.03-.2-.06-.2Z"/>
          <path id="path-1-5" class="cls-2" d="M102.64,250.24c-.03.08-.08.17-.17.34-.03.06-.08.14-.11.23-.03.03-.03.08-.06.11-.06.08-.11.23-.14.34-.03.11-.08.23-.08.34,0,.06,0,.11.03.17,0,.03.03.06.06.08.03.03.06.03.08.06h.03c.08.03.14.06.25.08.08.03.17.03.25.06.06.03.14.03.2.06h.11s.08,0,.11-.03c.03,0,.06-.03.06-.06t.03-.06s.03-.06.03-.06c.03-.08,0-.14,0-.14v.06s0-.03-.03-.03-.03,0-.03.03v-.06.11s0,.03-.03.06c0,.03-.03.03-.03.06,0,0-.03.03-.06.03s-.06.03-.08.03h-.08c-.06,0-.14-.03-.2-.06-.08-.03-.2-.06-.28-.06-.08-.03-.17-.03-.23-.06h-.03s-.06-.03-.06-.06t-.03-.06c-.03-.06-.03-.11-.03-.14,0-.11.03-.23.08-.34.03-.11.08-.23.14-.34.03-.03.03-.08.06-.11.03-.08.08-.14.11-.23.08-.17.14-.25.17-.34t-.06-.03s.03,0,0,0h0Z"/>
          <path id="path35547" class="cls-10" d="M102.87,251.74c-.2,0-.42.03-.62.03-.06-.06-.14.06-.08.11.17.14.4.14.59.2.14.03.31.08.45,0,.06-.03.08-.11,0-.14s-.17-.06-.25-.06c0-.06,0-.14-.08-.14Z"/>
          <path id="path35549" class="cls-10" d="M102.76,250.39c-.08.14-.14.28-.23.42.03-.06.06-.14-.03-.17-.08,0-.08.11-.14.17-.06.11-.11.2-.14.31.03.08.14.06.2.06.17-.03.28-.11.37-.25.03-.03.06-.06.11-.06.08-.03.06-.14.03-.2-.03-.11-.06-.23-.14-.31t-.03.03Z"/>
          <path id="path35551" class="cls-10" d="M102.19,251.29c-.06.08-.08.2-.08.31,0,.08,0,.2.08.2s.08-.11.08-.2c0-.11.03-.23,0-.31h-.08Z"/>
          <path id="path35555" class="cls-10" d="M103.52,247.53c-.11.23-.2.48-.31.71-.08.23-.14.48-.2.74-.03.11-.11.23-.14.34-.11.31-.17.65-.28.99-.14.31-.34.59-.45.9-.06.17-.14.34-.08.51.03.14.17.25.31.28.23.06.42.11.65.14.11,0,.28,0,.34-.14.06-.11.06-.23.11-.37.34-1.1.74-2.21,1.07-3.31.03-.17.11-.34.11-.54-.03-.11-.17-.14-.25-.17-.23-.08-.48-.14-.74-.14-.08.06-.11.06-.14.06h0ZM102.25,251.23c.08.06-.06.11-.08.06,0-.06.06-.06.08-.06Z"/>
          <path id="path-1-12" class="cls-2" d="M102.28,251.23s-.03,0,0,0c-.03.03-.06.03-.06.03l-.03.03h0s-.03.03-.03.06h0l.03.03v-.08h0s-.03,0-.03.03,0,.03.03.03h0l-.03-.03v.14h.06s.03-.03.03-.06h0s0-.03.03-.03h0s.03-.03.03-.03c0-.11-.03-.11-.03-.11h0Z"/>
          <path id="path-1-3" class="cls-2" d="M81.3,250.92s.03,0,0,0t.06-.03s.03-.03.06-.03.03-.03.06-.03h.06s-.03,0-.06.03c-.03,0-.06,0-.08.03h-.06s-.03,0-.03.03t0,0h0s.03.03,0,0h.17s.03,0,.03-.03c0,0,.03,0,.03-.03h.06v-.03h0s.03-.03,0-.03c0-.03-.03-.03-.03,0h0v.03h0s-.03,0-.03.03c0,0-.03,0-.03.03,0,0-.03,0-.03.03h-.11l.03.06h.08s.06,0,.08-.03h0v-.11l-.03-.03h-.08s-.03.03-.06.03-.06.03-.06.03l-.03.03-.03.03v.03s.03,0,.03-.03h0Z"/>
          <path id="path-1-2" class="cls-2" d="M93.26,248.75h.11s.03,0,.06-.03t.06-.03h.11s.03,0,.03-.03,0-.03-.03-.03h-.11s-.03,0-.06.03t-.06.03h-.06q-.08.03-.06.06s-.03,0,0,0h0Z"/>
          <path id="path-1-43" class="cls-2" d="M93.26,248.66h0s.03,0,0,0h0s0-.03,0,0t0,0s0,0,0,0h0s0,.03,0,0c0,.03.03.03,0,0t.03,0h-.03s.03.03,0,0v.03h.08v-.03h-.06s-.03,0-.06.03h.11s-.03,0-.06.03h-.06v.03s.03,0,.06-.03h.06-.06s0-.03-.03-.06t0,0l.03.03h.06-.03s-.03-.03-.06-.03t0,0s.03,0,0,0h0s.03,0,0,0t0,0s.03,0,0,0t0,0l.03-.03h0s-.03,0-.03.03h0Z"/>
          <path id="path-1-28" class="cls-2" d="M93.26,248.63s0,.03,0,0t0,0l.03.03h.06v-.03s-.06.03-.08,0t0,0s-.03.03,0,0l-.03.03h.06s.03,0,.03-.03h-.03s0,.03-.03,0c.03.03,0,.03,0,.03,0,0,0,.03-.03.03h0s.06-.03.08-.06h-.03s-.03,0-.03.03h0s.06-.03.08-.03h-.11s0,.03.03,0v.06h0c.06-.06.03-.06,0-.06h0s-.03,0,0,0h-.03s0,.03.03,0t0,0s-.03.03,0,0t0,0s0,.03,0,0t0,0s0,.03,0,0t.03.03h.03v-.03h-.03s-.03.03-.03,0v.03h.08-.06s-.03,0-.03-.03t0,0s-.03.03,0,0t0,0s-.03.03,0,0t0,0s0,.03,0,.03h.06s-.03,0-.06-.03t0,0v.03h.08v-.03h-.03s-.06.03-.06,0t0,0s-.03.03,0,0t0,0s-.03.03,0,0t0,0v.03h.08-.03s-.03-.03-.06-.03h0s-.03,0,0,0t0,0s-.03,0,0,0t0,0s-.03,0,0,0t0,0s-.03,0,0,0t0,0s-.03.03,0,0t0,0s-.03.03,0,0c0,.03,0,0,0,0h.06s-.03.03-.06,0t0,0s0,.03,0,0c0,.03-.03.03,0,0l-.03.03h.11s-.06,0-.08.03h0s.03,0,.03-.03h.03v-.03s-.06.03-.06.03h0l.03-.03h.06v-.03s-.03,0-.03.03h-.03s-.03.03-.03,0t0,0s-.03.03,0,0t0,0v.03h0s0,0,0-.03l.03.03h.06-.03s-.03-.03-.06-.03h0Z"/>
          <path id="path-1-9" class="cls-2" d="M93.2,248.66h0s0-.03,0,0h-.06s-.03,0-.03.03h.06s.03,0,.03-.03c.03.03.06,0,.08,0h-.08s.03-.03,0,0t0,0s.03-.03,0,0t0,0s0-.03,0,0t0,0h-.06.11s-.03-.03-.06,0h-.06v.03s.06-.03.06-.03h0s.03,0,0,0t0,0l.03.03h.08v-.03s-.06,0-.11,0c0,.03-.03.03-.03.03h-.06.03s.06-.03.06-.03h0s.03,0,0,0t0,0h0Z"/>
          <path id="path-1-40" class="cls-5" d="M84.52,237.95s.03.06.03.08c.03.03.03.06.06.08,0,.03.03.03.03.06,0,0,0,.03.03.03,0,.03.03.06.03.08.08.28.23.57.31.85.11.28.23.57.34.85.03.11.11.2.17.31.06.11.11.2.14.31s.06.23.08.31v.03c0,.08.03.2.03.28v.08h.03s.03-.03.03-.06c0-.08,0-.2-.03-.28v-.03c0-.08-.03-.2-.08-.31-.03-.11-.08-.2-.14-.31-.06-.08-.11-.2-.17-.28-.11-.28-.25-.57-.34-.85s-.23-.57-.31-.85c0-.03-.03-.06-.03-.08,0,0,0-.03-.03-.03,0-.03-.03-.03-.03-.06-.03-.03-.03-.06-.06-.08-.03-.08-.06-.11-.08-.14t0,0h0Z"/>
          <path id="path35675" class="cls-8" d="M80.76,234.81c-.23.06-.45.2-.57.42-.23.37-.4.79-.57,1.19-.11.31-.2.68.03.93.25.34.65.54,1.02.76.74.42,1.44.9,2.18,1.33.23.14.45.31.71.42.17.08.28.23.45.28.17.08.34.17.51.31.23.17.51.28.71.45.11.06.23.08.31.2.08.06.14.17.23.17.08-.06.03-.17.03-.25-.03-.31-.11-.59-.28-.85-.31-.62-.54-1.3-.79-1.92-.06-.11-.14-.2-.17-.34-.59-.48-1.1-1.02-1.67-1.55-.45-.45-.9-.9-1.39-1.3-.17-.14-.37-.23-.57-.28-.06-.03-.11,0-.17.03Z"/>
        </g>
        <g id="layer5">
          <path id="path24339" class="cls-9" d="M314.98,224.11c-.63.05-1.89.39-1.4,1.26-.97-.34-1.84.29-2.18,1.21-.24.29-.29.92-.44,1.16-.15-.97-1.31-.39-1.79,0-1.02.77-2.81,1.45-2.76,3,.29,1.26,1.94.97,2.91.97.44-.05.77-.63.39.15-1.16,2.42-1.84,5.13-1.5,7.85,0,2.18.68,4.41,2.32,5.91,1.89,2.23,4.55,3.68,7.41,4.31,1.94.48,3.87-.58,5.81-.19.58.15,1.65.97,2.03.15-.05-.82-1.11-1.26-1.74-1.4.92-1.4,2.08-2.76,2.23-4.5.29-2.76,0-5.76-1.36-8.23-.53-1.02-2.08-2.18-2.23-3,.87.53,2.13.92,3.15.48.97-.87-.19-2.08-.73-2.81-1.02-1.11-2.23-2.42-3.83-2.57-.39.05-.58.53-.39.87-.53-.97-1.21-2.37-2.37-2.52.39-.39,0-.92-.29-.97,0-1.02-1.4-.63-1.79-.1-.29.15-.58,1.31-.48.44,0-.63-.19-1.5-.97-1.45h0ZM315.8,226.43c-.1.34.53,1.16-.1.82-.63,0-.77,0-.19-.44.1-.1.24-.44.29-.39ZM316.63,236.26c-.15.63.73,1.07.92.34.34-.82.15.24-.19.39-.24.39-1.21.58-.87-.19.05,0,.1-1.02.15-.53ZM311.88,236.65c.19.44.92.58,1.07.1.15.68-.63.73-.87.24-.05,0-.39-.58-.19-.34Z"/>
          <path id="path28205" class="cls-9" d="M312.7,247.84c-.44,0-.92.15-1.16.48s0,.92.44.92h1.07c.39-.1.77-.44.82-.87,0-.24-.19-.34-.39-.39-.29-.1-.53-.19-.77-.15Z"/>
          <path id="path248" class="cls-2" d="M325.68,215h.24c.29,0,.53.19.77.29.82.24,1.55.48,2.23,1.02,1.21.92,2.47,2.81,2.28,4.36-.19,1.45-1.4,2.37-2.86,2.37-.29,0-.68.05-.97-.1-.34-.19-.15-.44.15-.44.53,0,1.21.1,1.74-.15,1.11-.48,1.6-2.13,1.02-3.2-.24-.48-.44-.97-.73-1.4-1.07-1.4-3.68-2.95-5.38-1.69-.34.24-.53.68-.68,1.02-.1.19-.24.39-.29.63-.24,1.31.63,2.62.97,3.87.48,1.69,1.5,3.29,2.42,4.79.77,1.36,1.5,2.71,2.18,4.12.29.58.68,1.11.92,1.69.39,1.02.53,2.08.82,3.1v.24h0v.05h0s0,.1.05.19c0,.15.05.24.05.34,0,.15.05.34.05.48s.05.29.05.44v.63c.05.63.05,1.26.05,1.89,0,.19-.05.44-.05.63-.05.19-.05.34-.05.53,0,.05,0,.15-.05.24h0v.68s-.05.15-.05.19c-.19,1.16-.34,2.52-1.31,3.39-.53.44-1.11.97-1.79,1.16-1.02.39-1.99.24-2.66,1.21-.63.87,1.02,1.11,1.4,1.55.34.34.05.92-.39,1.07-.44.15-1.4.1-1.79-.1-.39-.19-1.02-.68-1.45-.53-1.45.48-3.05.92-4.6.58-.87-.19-1.79-.48-2.62-.82-.39-.15-.82-.44-1.21-.48-.19,0-.39.19-.58.24-.63.19-1.6.44-2.18,0-.92-.68.82-1.31.48-1.84-.53-.87-1.5-1.5-2.18-2.28-1.11-1.36-1.65-2.86-1.84-4.6-.1-.92,0-1.94,0-2.86,0-.63-.1-1.31.05-1.89.19-.82.48-1.69.73-2.57.1-.29.34-.63.34-.92-.05-.29-1.11-.1-1.36-.19-1.07-.24-1.65-1.07-1.45-2.13.15-.77,1.02-1.31,1.65-1.74.53-.34,1.02-.82,1.55-1.16.34-.19.77-.24,1.11-.39.53-.24.97-.87,1.26-1.4-.53-.1-.82,0-1.31.19-.82.34-.87-.24-.15-.63.63-.34,2.32.24,2.62-.58.1-.29-.29-.39-.48-.44-.53-.1-1.02.1-1.5.05-.19,0-.34-.15-.29-.34.1-.24.58-.39.82-.39.77-.05,1.55.29,2.23.53.58.19,1.36,0,1.99.05s1.5.29,2.13.44c.44.1.73.44,1.11.68.39.19.68.24,1.07.29.44.05.97.29,1.31.58.15.15.34.39.1.48-.24.15-.53-.1-.73-.24-.34-.19-.82-.39-1.26-.34.44.39.97.58,1.45.92.34.24.44.63.73.87.39.24.92.34,1.36.58.97.58,1.89,1.55,2.57,2.42.58.77,1.5,2.23.34,3-.82.53-1.4-.1-2.23.1.53.73,1.16,1.4,1.65,2.18.48.82.58,1.69.82,2.62.19.97.58,1.94.58,2.95,0,1.26-.1,2.37-.34,3.58-.05.29-.58.97-.34,1.21.19.19.48.05.68,0,.73-.15,1.45-.68,1.99-1.16,1.31-1.11,1.16-2.95,1.5-4.5.29-1.45.19-2.66-.05-4.12-.19-1.21-.34-2.57-.82-3.73-1.11-2.71-2.86-5.18-4.21-7.8-.63-1.26-1.16-2.52-1.69-3.83-.48-1.26-.87-2.47-.58-3.87.39-.92,1.65-1.89,2.91-1.89h0ZM315.03,224.25c-.24,0-.53.29-.77.34s-.53.05-.77.15c.05.24.58.68.44.87-.24.29-.92-.19-1.31,0-.63.29-1.02,1.07-1.16,1.69-.05.19-.24.92-.53.97-.44.05-.05-.87-.53-.82-.44,0-.92.39-1.26.68-.82.63-2.47,1.31-2.47,2.52,0,1.02,1.45.92,2.13.82.24,0,.53.05.73-.1.24-.15.19-.53.39-.73.1-.15.39-.24.44,0,.05.24-.15.53-.19.73-.19.87-.73,1.55-1.07,2.32-.1.24-.05.48-.15.73-.44,1.21-.68,2.62-.58,3.92.1,1.6.15,3.39.73,4.84.34.92,1.21,1.74,1.89,2.42.63.68,1.26,1.36,1.99,1.94.63.44,1.45.73,2.13,1.07.77.39,1.45.77,2.37.97,1.21.24,2.47.19,3.73,0,.63-.1,1.16-.29,1.79-.34.92-.05,1.69.92,2.71.58-.15-.44-.97-.92-1.4-1.07-.24-.05-.68.29-.68-.15,0-.29.39-.58.53-.82.48-.73,1.21-1.45,1.5-2.32.82-2.52.44-5.47-.19-7.99-.29-1.07-.97-2.23-1.79-3-.19-.15-.39-.24-.58-.39-.24-.24-.39-.73-.53-1.02-.1-.19-.24-.39-.24-.63.05-.24.24-.24.44-.1.15.15.19.34.34.44.19.1.44.1.63.15.63.15,2.03.68,2.28-.29.1-.39-.29-1.02-.48-1.31-.68-1.02-1.69-2.08-2.71-2.66-.24-.15-1.45-.68-1.69-.44-.15.15.1.39.15.53.19.44.39.82.24,1.26-.48-.24-.48-.53-.73-.92-.39-.68-.77-1.6-1.31-2.13-.29-.34-1.11-.24-1.31-.63-.15-.34.53-.19.53-.44,0-.29-1.4-.1-.53-.63-.68-.97-1.6.1-1.94.82-.29.58.15.92.29,1.45.05.15-.1.29-.24.29-.29,0-.44-.34-.73-.34-.24,0-.58.39-.82.15-.34-.29.58-.73.73-.97.34-.58.39-1.55,0-2.13-.15-.24-.24-.29-.39-.29h0ZM316.09,224.64l-.05.24.44-.05-.39-.19ZM312.66,235.2h0c.24.05.39.34.44.48.19.44.39,2.03-.48,1.94-.48-.05-1.02-.68-1.16-1.07-.05-.19-.19-.63.1-.68.34-.05.63,1.21,1.11.87.29-.19-.19-.97-.19-1.21-.05-.1,0-.34.19-.34h0ZM316.92,235.29l-.1,1.89c.44-.29.48-1.02.92-1.26.34-.19.44.29.34.53-.15.58-.77,1.36-1.45,1.26-.53-.05-.48-.58-.44-.97.1-.58,0-1.26.73-1.45h0ZM312.75,248.18c-.34,0-1.11.19-.87.58.1.15.39.1.48.1.48,0,.92.05,1.11-.48-.19-.05-.39-.15-.63-.19t-.1,0h0Z"/>
        </g>
        <path id="path-1-51" class="cls-5" d="M81.07,192.77c-.34-.34-1.16-1.11-2.32-1.69-.29-.15-.63-.29-1.02-.34-.15-.05-.34-.05-.58-.05-.19,0-.39.05-.58.1-.1.05-.19.05-.29.1-.1.05-.19.1-.29.15s-.15.15-.24.24c-.05.1-.1.19-.15.34h0c0,.15,0,.24.05.39.05.1.1.24.15.34.1.19.24.39.39.53.48.53,1.02.97,1.55,1.4.92.68,1.89,1.31,2.95,1.79.29.15.58.24.92.34.34.1.68.1,1.02.05.19-.05.39-.1.53-.24.1-.05.15-.15.19-.24s.1-.19.1-.29v-.39c0-.15-.05-.29-.1-.39-.1-.24-.24-.48-.34-.68,0-.05-.05-.05-.05-.1-.24-.29-.53-.58-.68-.73-.1-.1-.19-.19-.29-.34-.05-.1-.15-.19-.29-.24-.05,0-.05-.05-.1-.05,0,0-.05,0-.05-.05-.1-.05-.19-.05-.24-.05h-.19s-.05.05-.05.1t0,0s-.05-.05,0,0l-.05-.05s-.1-.1-.15-.19c-.05-.1-.1-.15-.19-.29-.05-.1-.15-.19-.24-.29-.1-.1-.19-.19-.34-.24-.34-.15-.68-.24-.97-.29-.34-.05-.82-.15-.92-.15-.15,0-.29.1-.29.24s.1.29.24.29.58.05.92.15c.24.05.53.15.82.29.05.05.1.1.19.15.05.05.1.15.15.24.05.1.1.19.19.29.05.1.15.19.24.29.05.05.1.05.15.1.05.05.1.05.15.05.1,0,.19.05.24,0h.24c.1.05.15.15.24.19.1.1.19.19.34.34h0c.19.15.44.39.63.63l.05.05c.1.15.24.34.29.53.05.1.05.19.05.29v.29s0,.1-.05.15c0,.05-.05.1-.1.1-.1.05-.19.1-.29.1-.29.05-.53,0-.82-.05s-.53-.19-.82-.29c-1.02-.48-1.94-1.11-2.86-1.79-.53-.39-1.07-.82-1.5-1.36-.1-.15-.24-.29-.29-.44-.05-.05-.05-.15-.1-.19v-.19s.05-.1.05-.15c.05-.05.05-.1.1-.15s.1-.1.19-.1c.05-.05.15-.05.19-.1.15-.05.29-.05.44-.05s.29,0,.44.05c.34.05.63.19.92.29,1.11.53,1.84,1.21,2.18,1.6.1.1.29.1.39,0,.05-.05.05-.24-.05-.34h0Z"/>
        <path id="path35908" class="cls-8" d="M77.1,191.18c-.53-.1-1.16.44-.77.97,1.16,1.5,2.81,2.52,4.41,3.44.68.34,1.69.82,2.32.19.24-.68-.48-1.31-.87-1.74-.53-.68-1.45-.73-2.03-1.36-.53-.53-1.21-.82-1.94-.87-.29-.24-.53-.63-.97-.53l-.15-.1Z"/>
        <g id="g35966">
          <path id="path35910" class="cls-8" d="M77.1,190.64c-.77-.05-1.79.73-1.31,1.6,1.02,1.65,2.81,2.62,4.46,3.63.92.48,2.23,1.11,3.1.29.63-.77-.15-1.79-.68-2.37-.44-.48-.92-1.02-1.55-1.11-.58-.58-1.21-1.21-2.03-1.45-.63-.29-1.31-.63-1.99-.58h0Z"/>
        </g>
        <path id="path35910-0" class="cls-8" d="M259.09,191.08c-.77-.05-1.79.73-1.31,1.6,1.02,1.65,2.81,2.62,4.46,3.63.92.48,2.23,1.11,3.1.29.63-.77-.15-1.79-.68-2.37-.44-.48-.92-1.02-1.55-1.11-.58-.58-1.21-1.21-2.03-1.45-.63-.24-1.26-.58-1.99-.58h0Z"/>
        <path id="path35910-4" class="cls-8" d="M294.35,191.32c-.77-.05-1.79.73-1.31,1.6,1.02,1.65,2.81,2.62,4.46,3.63.92.48,2.23,1.11,3.1.29.63-.77-.15-1.79-.68-2.37-.44-.48-.92-1.02-1.55-1.11-.58-.58-1.21-1.21-2.03-1.45-.63-.24-1.26-.58-1.99-.58h0Z"/>
        <path id="path35910-5" class="cls-8" d="M230.13,192c-.68.39-1.11,1.6-.24,2.08,1.74.82,3.78.68,5.71.63,1.02-.1,2.47-.29,2.76-1.45.1-1.02-1.07-1.4-1.84-1.65-.63-.19-1.31-.34-1.89-.1-.82-.15-1.65-.34-2.47-.1-.73.1-1.45.19-2.03.58h0Z"/>
        <path id="path35910-5-2" class="cls-8" d="M406.41,191.66c-.68.39-1.11,1.6-.24,2.08,1.74.82,3.78.68,5.71.63,1.02-.1,2.47-.29,2.76-1.45.1-1.02-1.07-1.4-1.84-1.65-.63-.19-1.31-.34-1.89-.1-.82-.15-1.65-.34-2.47-.1-.73.1-1.45.15-2.03.58h0Z"/>
        <path id="path-1-44" class="cls-5" d="M144.17,192.48c-.39-.19-1.16-.63-2.03-.97-.58-.24-1.36-.48-2.18-.58-.39-.05-.82-.1-1.26-.15h-.1c-.39,0-.87,0-1.4.1-.1,0-.24.05-.34.1-.1.05-.24.1-.34.19s-.19.15-.29.29c-.05.1-.15.24-.15.39-.05.24,0,.48.1.68s.24.44.48.53c.39.24.77.39,1.21.48.39.1.82.15,1.21.24.68.1,1.36.24,1.99.53.77.34,1.5.77,2.28,1.16.73.44,1.5.82,2.32,1.16.19.1.48.19.73.24.15.05.24.05.39.05s.29,0,.44-.05h0c.15-.05.24-.1.34-.19s.19-.19.24-.29c.05-.1.1-.24.15-.34,0-.15.05-.24,0-.39-.05-.19-.1-.34-.15-.53-.1-.15-.15-.34-.24-.48-.19-.29-.44-.58-.63-.82-.29-.29-.58-.58-.87-.82-.34-.29-.63-.48-.97-.68h0c-.19-.1-.34-.1-.48-.15h-.53s-.05-.05-.1-.05c-.05-.05-.1-.1-.19-.1-.05-.05-.15-.1-.19-.1-.24-.15-.53-.24-.63-.34-.15-.05-.29,0-.39.15-.05.15,0,.29.15.39.1.05.39.19.63.34h.05s.05,0,.1.05c.05.05.1.05.15.1.05.05.15.1.24.1.05,0,.1.05.15.05h.53c.1,0,.24.05.34.1.29.15.58.34.87.58s.53.48.82.77c.19.24.44.48.58.73.1.15.15.24.24.39.05.15.1.29.15.39v.19s-.05.1-.05.15c-.05.05-.05.1-.1.15-.05.05-.1.05-.15.1h-.29c-.1,0-.19,0-.29-.05-.19-.05-.44-.15-.63-.24-.77-.29-1.5-.73-2.28-1.11-.73-.44-1.5-.87-2.32-1.21-.68-.29-1.45-.44-2.13-.53-.44-.05-.82-.15-1.16-.24-.39-.1-.73-.24-1.07-.44-.15-.1-.24-.19-.29-.34s-.1-.29-.05-.44c0-.1.05-.15.05-.19l.15-.15s.15-.1.24-.15.19-.05.24-.1c.48-.1.92-.1,1.31-.1h.1c.44,0,.87.1,1.21.15.77.1,1.5.34,2.08.53.82.34,1.55.73,1.94.92.1.05.24,0,.34-.1-.05.19-.1.05-.24-.05h0Z"/>
        <path id="path35919" class="cls-8" d="M137.88,191.32c-.58-.05-1.5.34-1.21,1.07.44.82,1.55.77,2.32,1.02,1.89.24,3.58,1.16,5.23,2.08.97.39,1.94,1.21,3.05,1.02.58-.39,0-1.16-.29-1.55-.77-.92-1.69-1.94-2.95-2.03-1.36-.58-2.66-1.36-4.16-1.45-.68-.1-1.31-.15-1.99-.15h0Z"/>
        <path id="path35919-3" class="cls-8" d="M348.83,191.18c-.58-.05-1.5.34-1.21,1.07.44.82,1.55.77,2.32,1.02,1.89.24,3.58,1.16,5.23,2.08.97.39,1.94,1.21,3.05,1.02.58-.39,0-1.16-.29-1.55-.77-.92-1.69-1.94-2.95-2.03-1.36-.58-2.66-1.36-4.16-1.45-.68-.15-1.31-.15-1.99-.15h0Z"/>
      </g>
      <g class="cls-13">
        <g id="Layer-1">
          <path class="cls-4" d="M227.76,263.79c-.57.34-1.05.62-1.05.64,0,.04,2.08,1.25,2.15,1.25.07,0,2.15-1.2,2.15-1.24,0-.04-2.03-1.21-2.14-1.24-.04,0-.54.26-1.12.59"/>
          <path class="cls-4" d="M224.38,265.76c-.89.52-1.63.98-1.64,1.01-.01.06,1.17.78,1.27.78.03,0,.31-.15.61-.33.5-.3.56-.36.59-.55.04-.29.17-.46.45-.59.21-.1.26-.11.5-.02.29.1.54.42.54.67,0,.23-.22.61-.4.69-.19.09-.59.1-.71.02-.09-.06-.37.07-1.18.57l-.39.24-.97-.56c-.85-.49-.98-.55-1.1-.49-.44.22-1.73,1-1.73,1.04,0,.02.68.42,1.5.9,1.41.82,1.51.86,1.69.8.55-.19,1.05.13,1.05.68s-.62.93-1.11.66c-.19-.11-.39-.4-.39-.6,0-.14-.09-.21-.6-.5-.34-.19-1.1-.64-1.69-.98l-1.08-.63-.73.43c-.4.23-.84.49-.99.57-.14.08-.26.17-.24.21.01.05.74.49,4.06,2.41,1.03.6,4.24,2.47,4.39,2.56.76.45,2.73,1.57,2.78,1.57.03,0,.67-.35,1.4-.78.74-.43,2.22-1.29,3.3-1.92,1.08-.62,2.29-1.33,2.68-1.56.39-.23,1.1-.64,1.56-.9,1.79-1.04,2.31-1.35,2.31-1.39,0-.02-.21-.16-.45-.3-.77-.44-1.88-1.08-3.84-2.24-1.05-.61-1.99-1.17-2.11-1.23-.11-.06-.27-.16-.34-.21-.16-.11.09-.23-2.78,1.43-2.88,1.66-2.74,1.58-2.74,1.76,0,.73-1.05.97-1.41.32-.34-.6.35-1.33.98-1.04.12.06.21.02.55-.18.38-.22,2.63-1.53,4-2.31.34-.19.61-.37.61-.39,0-.05-.86-.55-.94-.55-.05,0-1.27.69-2.41,1.36-.18.11-.35.19-.37.17-.02-.01-.64-.37-1.36-.78-.72-.42-1.35-.76-1.4-.75-.04,0-.82.43-1.7.95Z"/>
          <path class="cls-4" d="M217.62,277.28v5.94l.61.34c.33.19,1.29.74,2.13,1.22.84.49,2.44,1.41,3.55,2.06,1.12.65,2.32,1.35,2.68,1.56.93.55,1.78,1.03,1.83,1.03.02,0,.03-1.31.02-2.91l-.02-2.91-.87-.5c-.48-.28-1.55-.9-2.37-1.37-.82-.47-2.1-1.21-2.83-1.64-.74-.43-1.5-.87-1.7-.98-.2-.12-.39-.21-.42-.21s-.06.54-.06,1.3v1.31l.36.2c1.58.89,2.38,1.39,2.38,1.47,0,.05-.02.08-.05.07-.03-.01-.69-.39-1.46-.83l-1.41-.81v-8.91s-1.14-.65-1.14-.65c-.62-.36-1.15-.67-1.18-.67-.03-.01-.05,2.65-.05,5.92"/>
          <path class="cls-4" d="M239.2,271.86c-.48.28-.97.56-1.09.63-.27.15-.38.29-.37.45,0,.07,0,2.04,0,4.39v4.27s-1.43.83-1.43.83c-.79.45-1.45.82-1.46.82s-.04-.04-.04-.09.61-.44,1.37-.88l1.37-.79v-1.3c0-.72-.02-1.3-.05-1.3-.03,0-.46.24-.95.52-.49.29-1.64.95-2.55,1.47-.91.52-2.34,1.35-3.18,1.84l-1.53.88-.02,2.9c0,1.59,0,2.9.02,2.9.04,0,2.05-1.15,4.95-2.83.6-.35,1.23-.71,1.4-.8.17-.1.54-.31.81-.47.27-.16.87-.51,1.31-.77.45-.26,1.15-.67,1.58-.92l.76-.44v-5.92c0-3.25,0-5.91-.01-5.91-.01,0-.41.23-.89.5h0Z"/>
          <path class="cls-4" d="M223.24,276.5l.02,2.09.81.47c.45.26.97.55,1.15.67.19.11,1.08.62,1.98,1.15,1.47.85,1.66.95,1.79.89.14-.07,3.3-1.89,4.77-2.77l.73-.43.02-2.03c.01-1.12,0-2.05-.02-2.08-.02-.03-1.26.66-2.77,1.54-1.5.88-2.77,1.61-2.81,1.63-.04.02-.31-.11-.59-.28-.29-.17-.99-.58-1.58-.92-.58-.34-1.6-.93-2.26-1.32-.67-.39-1.22-.7-1.23-.7s-.02.94-.01,2.09h0Z"/>
          <path class="cls-4" d="M181.55,280.26v-5.67c1.61,0,2.55,1.08,2.55,2.68,0,1.84-.65,2.83-2.55,2.99ZM176.57,277.7c0-1.29.24-2.44,1.5-2.92.34-.13.65-.19,1.11-.19v5.67c-.67-.01-1.41-.23-1.89-.67-.46-.42-.73-1.23-.73-1.89ZM179.19,272.66c-1.11,0-2.02.22-2.89.78-1.22.8-2.03,2.2-2.03,3.7s.28,2.92,1.46,3.84c1.2.93,1.86,1.08,3.46,1.21v1.43h2.37v-1.43c1.08-.25,1.79.1,3.38-1.23.25-.21.35-.32.55-.57.16-.19.35-.47.47-.71.41-.83.46-1.54.46-2.47,0-2.64-2.06-4.55-4.86-4.55v-1.5h-2.37v1.5Z"/>
          <path class="cls-4" d="M187.66,276.08c0,2.16-.28,4.32,1.23,5.81,1.31,1.29,2.03,1.42,3.94,1.42,1.59,0,3.07-.91,3.63-2.35.2-.52.29-1.07.29-1.76h-2.31c0,1.64-.68,2.31-2.24,2.31-1.29,0-2.18-1.32-2.18-2.62v-3.05c0-.69.28-1.31.58-1.73.97-1.36,3.69-1.14,3.84,1.11.04.58-.21.43,2.13.43.52,0-.11-1.84-.17-1.95-.3-.62-.4-.69-.85-1.15-1.35-1.36-4.58-1.48-6.11-.22-1.08.89-1.79,2.03-1.79,3.75"/>
          <path class="cls-4" d="M198,276.27c0,1.98-.22,4.12,1.17,5.56,1.31,1.35,2.27,1.48,4,1.48,2.11,0,3.92-1.54,3.92-3.8v-.31h-2.31c0,.66-.07,1.28-.48,1.7-1.26,1.3-3.94.56-3.94-2.07v-2.93c0-1.17.79-2.62,2.12-2.62,1.15,0,1.97.36,2.23,1.45.27,1.15-.59.92,2.19.92.54,0-.02-2.37-1-3.12-.43-.33-.63-.5-1.2-.73-.87-.35-1.55-.33-2.48-.33-1.8,0-3.26,1.25-3.9,2.83-.21.51-.34,1.28-.34,1.97"/>
          <path class="cls-4" d="M262.73,273.16c.13.15,1.02,2.34,1.08,2.47l3.16,7.49h.75c.02-.24.39-1.02.49-1.25l3.46-8.19c.06-.14.07-.16.13-.31.02-.05.05-.12.07-.18l.09-.16c0,1.73-.06,3.25-.06,4.98v5.11h1v-11.53h-1.31l-3.19,7.59c-.17.41-.34.85-.53,1.28-.13.28-.38,1.07-.58,1.22l-3.12-7.53c-.17-.41-.34-.85-.53-1.28l-.52-1.29h-1.31v11.53h1c0-3.39-.06-6.63-.06-9.97"/>
          <path class="cls-4" d="M249.84,277.39c0-2.44,1.53-3.8,3.99-3.8v7.48c-1.24,0-2.18-.14-3.04-1.07-.53-.57-.95-1.53-.95-2.6ZM255.32,281.07h-.5v-7.48c1.68,0,3.07.63,3.65,2.08.7,1.76.28,4.12-1.64,5.04-.41.2-.93.35-1.52.35ZM253.82,272.72c-1.98,0-3.43.73-4.41,2.38-.53.89-.51,1.72-.51,2.73,0,1.16.79,2.39,1.42,2.94.92.81,1.99,1.17,3.5,1.17v1.68h1v-1.68c2.06,0,3.54-.81,4.44-2.41.49-.87.48-1.66.48-2.64,0-1.7-1.41-3.35-2.94-3.86-.53-.18-1.29-.32-1.99-.32v-1.62h-1v1.62Z"/>
          <path class="cls-4" d="M275.81,283.12h1.06l6.48-9.78v9.78h1v-11.53c-1.23,0-.83-.22-1.76,1.17l-5.78,8.67v-9.84h-1v11.53Z"/>
        </g>
      </g>
    </g>
  </g>
</svg>