<?xml version="1.0" encoding="utf-8"?>
<svg version="1.1" id="svg5" xmlns="http://www.w3.org/2000/svg" x="0px" y="0px" viewBox="0 0 841.9 595.3" style="enable-background:new 0 0 841.9 595.3;">
  <style type="text/css">
	.st0{fill:#DFF5F1;}
	.st1{fill:#EAA19A;}
	.st2{fill:#715878;}
	.st3{fill:#FAF1EA;}
	
		.st4{opacity:0.3;fill-rule:evenodd;clip-rule:evenodd;fill:#BAC2CD;stroke:#BAC2CD;stroke-width:0.506;stroke-miterlimit:11.3386;enable-background:new    ;}
	
		.st5{opacity:0.5;fill-rule:evenodd;clip-rule:evenodd;fill:#FFFFFF;stroke:#BAC2CD;stroke-width:0.506;stroke-miterlimit:11.3386;enable-background:new    ;}
	.st6{fill:#CE2400;}
	.st7{fill:#140C17;}
	
		.st8{opacity:0.4;fill-rule:evenodd;clip-rule:evenodd;fill:#FFFFFF;stroke:#C8A1A3;stroke-width:0.506;stroke-miterlimit:11.3386;enable-background:new    ;}
	.st9{fill-rule:evenodd;clip-rule:evenodd;fill:#FFFFFF;stroke:#C8A1A3;stroke-miterlimit:11.3386;}
</style>
  <g id="F">
    <polygon id="polygon1" class="st1" points="60,226.6 114.2,226 114.9,244.9 82.1,245.5 81.4,261.7 109.8,262.8 111,279.5 &#10;&#9;&#9;91.3,278.9 90,276.8 88.8,276 86.9,274.5 83.7,274.1 81.6,273.9 81.5,271.1 80.8,270 79.2,270.4 80.8,268.9 81.7,269.4 83.4,270.4 &#10;&#9;&#9;79.1,268.8 77.4,268.6 77.4,267.6 79.4,267 80.8,267 83.1,266.4 81.4,265.6 79.1,265.9 76.8,266.7 74.2,267.6 72,268.4 70,267.6 &#10;&#9;&#9;64,269.7 61.4,270.8 65.2,270.8 63.6,272.3 61.6,274.1 60,275.5 58.8,275.9 &#9;"/>
    <path id="path1" class="st2" d="M58.8,226v44v5.9c0.1-0.1,0.2-0.1,0.3-0.2c0.1,0,0.1-0.1,0.2-0.1c0.2-0.1,0.4-0.1,0.6-0.2 c0.1,0,0.1,0,0.2-0.1c0-2.1,0-4.3,0-6.5l0.3-41.3l26.4-0.3l26.4-0.3v8.4v8.4H96.8H80.4v9.5v9.5h14.7h14.7v7.8v7.8H95.1h-4.4 c0.1,0.1,0.2,0.1,0.3,0.2c0.1,0.1,0.2,0.2,0.3,0.3c0.1,0.1,0.1,0.3,0.1,0.4s0,0.1,0,0.2l0,0h4.8H111v-8.9v-8.9H96.2H81.4l0.3-8.1 l0.3-8.1l16.4-0.3l16.4-0.3l-0.4-9.5l-0.4-9.5H86.5L58.8,226z M58.8,276.6v0.2l0,0c0,0,0,0,0.1-0.1 C58.9,276.7,58.9,276.6,58.8,276.6L58.8,276.6z M89.1,278.8L89.1,278.8C89.1,278.9,89.1,278.9,89.1,278.8 C89.1,278.9,89.2,278.9,89.1,278.8C89.1,278.9,89.1,278.8,89.1,278.8L89.1,278.8z M60.4,310.4c-0.1,0.1-0.3,0.2-0.4,0.3 c0.1,0,0.3-0.1,0.4-0.1C60.4,310.6,60.4,310.5,60.4,310.4L60.4,310.4z M61.6,312.5L61.6,312.5C61.6,312.6,61.6,312.5,61.6,312.5 L61.6,312.5L61.6,312.5z M81.5,312.6c-0.1,0.3-0.3,0.5-0.5,0.7c-0.4,0.3-0.8,0.6-1.3,0.7c-0.1,0-0.2,0.1-0.3,0.1h2.1L81.5,312.6z M58.8,313.9v0.2h0.3C59,314,58.9,314,58.8,313.9z"/>
  </g>
  <g id="mouse_chonk">
    <path id="path2" class="st3" d="M58.6,285.3l-1.9,3c0,0.1-0.6,0.6-0.6,0.7l-1.1,2.1c0,0-1,1.7-1.1,1.7l-1.5,3.9 c-0.1,0.1-0.1,0.3-0.1,0.5l-0.9,7.6c0,0.1-0.3,1.9,0.2,1.6l0.9,6.1c0,0.1,1.4,2.9,2,1.7l0.6,1.6c0.3,0.4,0.9,0.7,0.5,1l-1.1,1 l-0.1,0.1l-2.2,2.7h2.1c0.1,0,0.3,0,0.4-0.1l1.8-0.7c0.2-0.1,0.4-0.1,0.6,0l2,0.5c0.1,0,0.2,0,0.3,0L62,320c0.1,0,0.2,0,0.4,0 l2,0.5c0.1,0,0.3,0,0.4,0l2.5-0.3l2.4-0.3c0.1,0,0.2,0,0.3-0.1l4.8-0.9l1.5-1.8c0.2-0.1,0.5-0.1,0.7-0.1l0.2,0.1 c0.5,0.1,0.2,0.7,0.1,1.2l0.4,0.8l4.3-0.7l-2.1-2.3l1.4-2.5c0.1-0.2,0.3-0.4,0.6-0.5l1.1-1.2c0.3-0.1,1.8-1.2,1.1-1.4l0.9-0.9 c0.1-0.2,0,0,0.1-0.2l2-2.3l-0.2-0.5l1.2-2.3c0.1-0.2-0.1-1.1-0.1-1.3l0.8-2.7v-0.1l-0.4-3.6c0-0.1,0-0.1,0-0.2l0.4-3.8 c0-0.1,0-0.1,0-0.2l-1.5-2.4c0-0.1,0.5-0.5,0.5-0.6l-0.7-1.8c-0.1-0.2-0.5-1.7-0.7-1.8l-0.4-0.9c-0.2-0.1-0.3-0.3-0.4-0.5l-1-2.4 v-0.1l-0.4-1.5l1.2,2c0.2,0.1,1.7,0.4,1.4-0.3l1.8,0.1c0.1,0,0.2,0.5,0.3,0.4l1.7-0.8c0.3-0.1,0.6-0.3,0.7-0.6l0.5-1.5 c0.1-0.3,0.1-0.7-0.1-0.9l-3-2.1c-0.1-0.1-0.4-0.2-0.5-0.3l-1.1-0.7c-0.1,0-0.6-0.5-0.7-0.5l-3-1.9c-1.2,1.7-1.2,0.5-0.6-0.4 l-1.1-0.9c-0.1-0.1-0.2-1.1-0.3-1.1l-1.4-0.6c-0.1,0-0.3-0.1-0.4-0.2l-1.5-1.4c-0.1-0.1-0.2-0.2-0.4-0.2l-2.3-0.7 c-0.4-0.1-1.1-0.6-1.3-0.3l-1.1,0.6c0.2-1.1,0.1-0.5-0.7,0.3l0,0c-0.1-0.2-0.6,0.3-0.8,0.2l-1.9-0.7c-0.3-0.1-0.6-0.1-0.9,0.1 l-1.8,1.1c-0.1,0-0.2,0.1-0.2,0.2l-4.5,4.9l-0.1,0.1l-1.4,1.2c-0.1,0.1-0.2,0.1-0.3,0.2l-3.3,1.1c-0.2,0.1-0.3,0.1-0.4,0.3 l-3.3,3.6c-0.1,0.1-0.1,0.1-0.1,0.2l-1.2,2.2c-0.2,0.3-0.2,0.7,0,1l-0.1,1.8c0.2,0.4,2.3,0.8,2.8,0.7l4.9-0.6L58.6,285.3z"/>
    <path id="MOUSE_1" class="st2" d="M52.5,248.5c-0.2,0-0.3,0-0.5,0c-0.6,0-1,0.4-1.6,0.6c-1.7,0.5-3.1,1-4.6,2.1 c-2.5,1.9-5.1,5.8-4.7,9c0.4,3,2.9,4.9,5.8,4.9c0.6,0,1.4,0.1,1.9-0.2c0.7-0.4,0.3-0.9-0.3-0.9c-1.1,0-2.5,0.2-3.5-0.3 c-2.3-1-3.2-4.4-2.1-6.6c0.5-1,0.9-2,1.5-2.9c2.2-2.9,7.5-6.1,11-3.5c0.6,0.5,1.1,1.4,1.4,2.1c0.2,0.4,0.5,0.8,0.6,1.3 c0.5,2.7-1.3,5.4-2,8c-1,3.5-3.1,6.8-4.9,9.9c-1.6,2.8-3,5.6-4.5,8.5c-0.6,1.2-1.4,2.3-1.8,3.5c-0.8,2.1-1.1,4.3-1.6,6.4 c0,0.1,0,0.1,0,0.2c0,0,0,0,0,0.1v0.1v0.1l0,0l0,0v0.1l0,0c0,0.1,0,0.2-0.1,0.4c0,0.3-0.1,0.5-0.1,0.7c0,0.3-0.1,0.7-0.1,1 s-0.1,0.6-0.1,0.9c0,0.1,0,0.1,0,0.2c0,0.4,0,0.7,0,1.1c-0.1,1.3-0.1,2.6-0.1,3.9c0,0.4,0.1,0.9,0.1,1.3c0.1,0.4,0.1,0.7,0.1,1.1 c0,0.1,0,0.3,0.1,0.5l0,0v0.1v0.1v0.1v0.1v0.1v0.1c0,0.1,0,0.1,0,0.2s0,0.1,0,0.2v0.1v0.1v0.1v0.1c0,0.1,0.1,0.3,0.1,0.4 c0.4,2.4,0.7,5.2,2.7,7c1,0.9,2.3,2,3.7,2.4c2.1,0.8,4.1,0.5,5.5,2.5c1.3,1.8-2.1,2.3-2.9,3.2c-0.7,0.7-0.1,1.9,0.8,2.2 c0.8,0.3,2.9,0.2,3.7-0.2c0.8-0.4,2.1-1.4,3-1.1c2.9,1,6.2,1.9,9.4,1.2c1.8-0.4,3.7-1,5.4-1.7c0.8-0.3,1.6-0.9,2.5-1 c0.4,0,0.8,0.4,1.2,0.5c1.3,0.4,3.2,0.9,4.4,0c1.9-1.4-1.6-2.7-1-3.8c1.1-1.8,3.1-3.1,4.4-4.7c2.3-2.8,3.4-5.9,3.7-9.5 c0.2-1.9,0-4,0-5.9c0-1.3,0.2-2.7-0.1-3.9c-0.4-1.7-0.9-3.5-1.5-5.3c-0.2-0.6-0.7-1.3-0.7-1.9c0.1-0.6,2.3-0.2,2.8-0.4 c2.1-0.5,3.4-2.2,2.9-4.4c-0.3-1.6-2.1-2.7-3.4-3.6c-1.1-0.7-2-1.7-3.2-2.4c-0.7-0.4-1.5-0.5-2.3-0.8c-1.1-0.5-2-1.8-2.5-2.9 c1.1-0.2,1.6,0,2.6,0.4c1.7,0.7,1.7-0.5,0.3-1.3c-1.3-0.7-4.7,0.5-5.3-1.2c-0.2-0.6,0.6-0.8,1-0.9c1.1-0.2,2.1,0.2,3.1,0.1 c0.4,0,0.7-0.3,0.6-0.7c-0.2-0.5-1.2-0.8-1.7-0.8c-1.6-0.1-3.1,0.6-4.6,1.1c-1.2,0.4-2.8,0-4,0.1c-1.3,0.1-3,0.6-4.3,0.9 c-0.9,0.2-1.5,0.9-2.3,1.4c-0.7,0.4-1.3,0.5-2.2,0.6c-0.9,0.1-1.9,0.6-2.6,1.2c-0.3,0.3-0.7,0.8-0.2,1c0.5,0.3,1.1-0.2,1.5-0.5 c0.7-0.4,1.7-0.8,2.5-0.7c-0.9,0.8-2,1.2-3,1.9c-0.7,0.5-0.9,1.3-1.5,1.8c-0.8,0.5-1.9,0.7-2.7,1.2c-2,1.2-3.8,3.2-5.2,5 c-1.2,1.6-3,4.6-0.7,6.2c1.7,1.1,2.9-0.2,4.6,0.2c-1.1,1.5-2.4,2.9-3.3,4.5c-1,1.7-1.2,3.5-1.6,5.4c-0.4,2-1.2,4-1.2,6.1 c0,2.6,0.2,4.9,0.7,7.4c0.1,0.6,1.2,2,0.7,2.5c-0.4,0.4-1,0.1-1.4,0c-1.4-0.3-3-1.4-4.1-2.4c-2.6-2.3-2.3-6.1-3-9.3 c-0.6-3-0.4-5.5,0.1-8.5c0.4-2.5,0.7-5.3,1.7-7.7c2.3-5.6,5.9-10.7,8.6-16.1c1.3-2.6,2.4-5.2,3.4-7.9c1-2.6,1.7-5.1,1.2-8 C57.7,250.5,55.1,248.5,52.5,248.5L52.5,248.5z M74.2,267.6c0.5,0,1.1,0.6,1.6,0.7s1.1,0.1,1.6,0.3c-0.1,0.5-1.2,1.4-0.9,1.8 c0.5,0.6,1.9-0.4,2.7,0c1.3,0.6,2.1,2.2,2.4,3.5c0.1,0.4,0.5,1.9,1,2c0.9,0.1,0.1-1.8,1.1-1.7c0.9,0,1.8,0.8,2.5,1.4 c1.7,1.3,5,2.7,5,5.2c0,2.1-3,1.9-4.3,1.7c-0.5,0-1,0.1-1.5-0.2c-0.5-0.3-0.4-1.1-0.8-1.5c-0.2-0.3-0.8-0.5-0.9,0s0.3,1.1,0.4,1.5 c0.4,1.8,1.4,3.2,2.2,4.8c0.2,0.5,0.1,1,0.3,1.5c0.9,2.5,1.4,5.4,1.2,8.1c-0.2,3.3-0.3,7-1.5,10c-0.7,1.9-2.5,3.6-3.9,5 c-1.3,1.4-2.5,2.8-4.1,4c-1.2,0.9-2.9,1.5-4.3,2.2c-1.6,0.8-3,1.6-4.8,2c-2.5,0.5-5.1,0.4-7.5,0c-1.2-0.2-2.4-0.6-3.7-0.7 c-1.9-0.1-3.5,1.9-5.5,1.2c0.3-0.9,2-1.9,2.9-2.2c0.5-0.1,1.4,0.6,1.4-0.3c0-0.6-0.8-1.2-1.1-1.7c-1-1.5-2.4-3-3-4.8 c-1.7-5.2-0.9-11.3,0.4-16.5c0.6-2.2,2-4.6,3.7-6.2c0.4-0.3,0.8-0.5,1.2-0.8c0.5-0.5,0.8-1.5,1.1-2.1c0.2-0.4,0.5-0.8,0.5-1.3 c-0.1-0.5-0.5-0.5-0.8-0.2s-0.4,0.7-0.7,0.9c-0.4,0.2-0.8,0.2-1.2,0.3c-1.2,0.3-4.2,1.4-4.6-0.6c-0.2-0.8,0.6-2.1,1-2.7 c1.4-2.1,3.4-4.3,5.6-5.5c0.5-0.3,3-1.4,3.5-0.9c0.3,0.3-0.2,0.8-0.3,1.1c-0.4,0.9-0.7,1.7-0.5,2.6c1-0.5,1-1.1,1.4-1.9 c0.8-1.4,1.6-3.3,2.6-4.4c0.6-0.7,2.3-0.5,2.7-1.3c0.3-0.7-1.1-0.4-1.1-0.9c0-0.6,2.8-0.2,1.1-1.3c1.4-2,3.2,0.2,4,1.7 c0.6,1.2-0.3,1.9-0.6,3c-0.1,0.3,0.2,0.6,0.5,0.6c0.6,0,0.8-0.7,1.5-0.7c0.5,0,1.2,0.8,1.6,0.3c0.6-0.6-1.2-1.5-1.5-2 c-0.7-1.2-0.8-3.2,0-4.4C73.7,267.7,73.9,267.6,74.2,267.6L74.2,267.6z M72,268.4l0.1,0.5l-0.9-0.1L72,268.4z M79.1,290.2 C79,290.2,79,290.2,79.1,290.2c-0.5,0.1-0.8,0.7-0.9,1c-0.4,0.9-0.8,4.2,1,4c0.9-0.1,2.1-1.4,2.4-2.2c0.1-0.4,0.4-1.3-0.2-1.4 c-0.7-0.1-1.3,2.5-2.2,1.8c-0.6-0.4,0.4-2,0.4-2.5C79.5,290.7,79.4,290.2,79.1,290.2L79.1,290.2z M70.4,290.4l0.2,3.9 c-0.9-0.6-1-2.1-1.8-2.6c-0.7-0.4-0.8,0.6-0.7,1.1c0.3,1.2,1.6,2.8,2.9,2.6c1.1-0.1,1-1.2,0.9-2C71.7,292.3,71.8,290.8,70.4,290.4z M78.9,317c0.7,0,2.3,0.4,1.8,1.2c-0.2,0.3-0.7,0.2-1,0.2c-1,0-1.9,0.1-2.3-1c0.4-0.1,0.8-0.3,1.3-0.4C78.7,317,78.8,317,78.9,317 L78.9,317z"/>
  </g>
  <path id="path4" class="st3" d="M233,236.8l0.3-10.3l14.4,0.1l-1.2-2.9l-2.3-1.8l-2.2-1.3l-2.4-0.5l-1.8-0.3l-2.3,0.3l-3,1.7 l-1.1,2.1l-0.7,2.5c0,0-0.3,1.8-0.3,1.9s0.3,2.5,0.5,2.6s0.3,1.7,0.3,1.8s0,1.8,0,1.8l0.6,1.9l1.2,0.6V236.8z"/>
  <polygon id="polygon2" class="st3" points="231.9,221.3 229.4,220.1 226.2,220.6 223.4,222.7 222.9,224.3 223.9,226.4 225.4,227 &#10;&#9;227.4,227.2 229.5,226.6 230.7,225.3 231.9,221.9 "/>
  <path id="path3" class="st3" d="M238.4,219.5l2.7,0.7l1.5,0.6c0,0,0.9,0.8,1.1,0.9s0.7,0.1,0.7,0.1l2.1-1.2l1.6-1.2l0.5-1.3l0.8-0.9 l-0.4-1.3l-0.5-0.9c0,0-2.5-0.3-2.7-0.3s-1.9,0.6-1.9,0.6l-2,0.7l-1.3,0.7l-1.3,1.5L238.4,219.5z"/>
  <path id="mouse_2" class="st2" d="M246.8,214.5c-0.1,0-0.2,0-0.3,0c-0.6,0-1.1,0.1-1.7,0.2c-2,0.4-4,1.2-5.2,2.8 c-0.5,0.6-1,1.3-1.2,2c-1.1,0-2.4,0-3.5,0.4c-1,0.3-1.8,0.9-2.7,1.3c-0.5-1-2-1.3-3-1.4c-2.1-0.2-3.8,0.5-5.3,1.9 c-0.5,0.5-1,1-1.2,1.7c-0.5,1.4,0.4,2.7,1.5,3.5c0.6,0.4,1.3,0.6,2,0.8c0.9,0.1,1.9-0.1,2.8-0.5c0.1,0.7,0.4,0.5,0.9,0.2 c0,0.6-0.1,1.2,0,1.8c0.2,1.1,0.6,2.1,0.8,3.2c0.1,1.1-0.2,2.2,0.3,3.2c0.3,0.7,1,1.4,1.7,1.8c0.2,0.1,0.7,0.5,0.9,0.1 c0.1-0.3-0.3-0.5-0.5-0.6c-0.6-0.3-1.3-0.9-1.6-1.6c-0.4-1.1-0.1-2.3-0.3-3.4c-0.2-1.7-1.1-3.2-0.6-5c0.1-0.4,0.6-0.5,1-0.7 c0.6-0.3,1.2-0.5,1.8-0.7c0.4-0.1,0.8-0.2,1.1-0.5v-0.1c-0.7-0.5-1.8,0.2-2.5,0.5c-0.2,0.1-0.8,0.5-1,0.3c-0.1-0.1,0-0.3,0-0.5 c0.1-0.3,0.1-0.9,0.5-1.1c0.8-0.3,1.9,0.1,2.8,0c0.3,0,0.6-0.3,0.2-0.5c-0.2-0.1-0.6-0.1-0.8-0.1s-0.5,0-0.7,0c-0.4,0-0.8,0-1.2,0 c0.1-0.5,0.4-0.9,0.8-1.3c1.3-1.6,3.5-2,5.5-2c0.6,0,1.7-0.2,2.2,0.2c0.2,0.2-0.1,0.4-0.2,0.6c-0.2,0.4-1,1.7-0.3,2 c0.3,0.1,0.7-0.3,0.9-0.5c0.5-0.4,1.3-0.9,1.9-1.1c0.3-0.1,0.6,0.2,0.8,0.4c0.7,0.5,1.5,1,2.1,1.5c0.7,0.5,1.1,1.2,1.4,2 c0.1,0.1,0.2,0.3,0.2,0.5l0,0l0.1,0.1v0.1c0,0.1,0,0.1,0.1,0.2l0,0c0,0.1,0,0.2,0.1,0.3c0,0.1,0,0.1,0,0.2c0.2,0,0.4-0.1,0.6-0.2 c0.2-0.3-0.2-1-0.4-1.3c-0.6-1.3-1.5-2.6-2.8-3.2c1.1-0.8,2.4-1.1,3.4-2.2c1.3-1.3,2.7-4,0.4-5.1c-0.3-0.1-0.7-0.3-1-0.3 C247.3,214.5,247,214.5,246.8,214.5L246.8,214.5z M246.4,215.1c1.1,0,2.5,0.2,2.8,1.2c0.2,0.7-0.1,1.4-0.4,2 c-0.8,1.3-1.8,2.2-3.2,2.8c-0.3,0.2-0.9,0.6-1.2,0.7c-0.3,0-0.7-0.4-0.9-0.5v-0.1c0.2-0.1,0.3-0.2,0.5-0.3c0.3-0.1,0.8-0.7,0.2-0.6 c-0.5,0-0.9,0.4-1.4,0.5c-0.4,0-0.8-0.3-1.1-0.4c0.1-0.5,0.9-0.8,1.4-1c0.2-0.1,0.5-0.2,0.5-0.4c0.1-0.5-0.7-0.2-0.8-0.1 c-0.6,0.3-1.2,0.9-1.9,1.1c-0.4,0.1-1.4-0.2-1.9-0.3c1-2.8,4-4,6.8-4.4C246,215.1,246.2,215.1,246.4,215.1L246.4,215.1z M245.1,216.7c-0.1,0-0.2,0-0.2,0c-1.3,0.2-2.4,0.5-3.5,1.1c-0.2,0.1-1.5,0.9-0.8,1c0.3,0.1,0.8-0.4,1.1-0.5 c0.9-0.5,1.8-0.7,2.8-0.9c0.3-0.1,1,0,1.1-0.3C245.9,216.8,245.4,216.7,245.1,216.7L245.1,216.7z M228.9,220.4c0.1,0,0.3,0,0.4,0 c0.7,0,1.5,0.3,2.1,0.8c0.2,0.1,0.5,0.4,0.5,0.6c0,0.2-0.3,0.5-0.4,0.7c-0.2,0.3-0.3,0.8-0.6,1c-0.4,0.3-1.4,0.2-2,0.4 c-0.3,0.1-1.2,0.4-1.2,0.8c0,0.2,0.3,0.3,0.4,0.2c0.8-0.3,1.5-0.8,2.4-0.6c0,0.4-0.1,1.3-0.4,1.6c-0.3,0.4-1,0.6-1.4,0.8 c-1.9,0.7-4.3,0.4-5.3-1.5c-0.5-1.1,0.1-2.1,0.8-2.8C225.6,220.8,227,220.4,228.9,220.4L228.9,220.4z M241.1,220.6 c0.3,0,0.6,0.2,0.8,0.3c-0.2,0.4-1.3,1-1.7,1C240.4,221.5,240.7,220.7,241.1,220.6z M238.2,220.8h-0.1c-0.5,0.1-0.6,0.8,0,0.8 C238.6,221.6,238.7,220.9,238.2,220.8L238.2,220.8z M228.5,221.8c-0.2,0-0.4,0-0.6,0c-0.8,0.1-1.7,0.5-2.3,1 c-0.1,0.1-0.9,1.1-0.2,1.1c0.3,0,0.4-0.4,0.6-0.5c0.3-0.3,0.7-0.6,1.2-0.8c0.6-0.2,1.3-0.3,1.9-0.2c0.3,0.1,1.1,0.4,1.4,0.2 c0.4-0.2-0.2-0.5-0.4-0.6C229.6,221.9,229,221.8,228.5,221.8L228.5,221.8z M233.7,221.8c-0.1,0-0.1,0-0.2,0 c-0.7,0.3-0.3,1.1,0.3,0.9C234.4,222.5,234.1,221.9,233.7,221.8z M236.4,222.2h-0.1c-0.7,0.2-0.4,1.2,0.3,0.9 C237.2,222.9,237,222.1,236.4,222.2L236.4,222.2z M245.5,226.5L245.5,226.5L245.5,226.5L245.5,226.5L245.5,226.5z M242.4,226.5 c-0.3,0-0.4,0.4-0.5,0.6l0,0c0.1,0,0.2,0,0.2,0c0.1,0,0.3,0,0.4,0C242.6,226.9,242.7,226.5,242.4,226.5L242.4,226.5z M246.4,226.6 L246.4,226.6L246.4,226.6z M246.4,226.6l-0.1,0.1c-0.1,0-0.3,0-0.4,0h-0.1c-0.1,0-0.2,0.1-0.2,0.1h-0.1c-0.1,0.2-0.1,0.4-0.2,0.6 l0,0c0.2,0,0.4,0.1,0.5,0.1c0,0,0,0,0.1,0c0.1-0.2,0.2-0.5,0.4-0.6c0.1-0.1,0.3-0.1,0.5-0.1l0,0h-0.1 C246.5,226.7,246.5,226.7,246.4,226.6L246.4,226.6L246.4,226.6z M233.6,227.5c0,0-0.1,0-0.1,0.1c-0.3,0.2-0.2,1-0.1,1.3 c0.1,0.5,0.5,0.9,1,1.2c0,0,0,0,0-0.1s0-0.2,0-0.3s0-0.2,0-0.2s0,0,0-0.1c-0.2-0.1-0.3-0.3-0.4-0.5c-0.1-0.3,0-0.7-0.1-1.1 C233.9,227.7,233.8,227.5,233.6,227.5L233.6,227.5z M233.9,239.4c-0.4,0.4-0.2,0.8-0.3,1.3s-0.3,1-0.6,1.4c-1,1.5-2.5,2.7-3.5,4.2 c-0.6,0.9-1,2.3-0.4,3.4c0.6,1.2,2.1,2,3.4,2.2c0.3,0,1.4,0.5,1.5-0.1c0-0.2-0.3-0.3-0.4-0.3c-0.5-0.1-1.1-0.2-1.6-0.3 c-1.6-0.5-2.9-1.8-2.4-3.5c0.2-0.7,0.7-1.3,1.2-1.8c1-1.2,2.4-2.4,3.1-3.8c0.1-0.1,0.1-0.3,0.2-0.4c0-0.1,0-0.3,0-0.4 c0-0.2,0-0.5,0-0.7c0-0.3,0-0.6,0-0.8v-0.1C234,239.4,233.9,239.4,233.9,239.4L233.9,239.4z M258,250.6c-0.3,0-0.5,0-0.8,0.1 c-0.9,0.1-1.8,0.1-2.7,0.4c-0.2,0.1-1,0.5-0.4,0.7c0.2,0.1,0.4-0.1,0.6-0.1c0.5-0.2,1-0.3,1.5-0.4c1.7-0.2,3.5-0.2,5,0.7 c0.9,0.5,2.3,2,1.3,3.1c-0.3,0.3-0.8,0.6-1.2,0.8c-0.3,0.1-0.6,0.1-0.8,0.3c-0.2,0.2-0.1,0.5,0.2,0.5c0.4,0,0.9-0.3,1.3-0.5 c1.4-0.8,2-1.9,1.1-3.3C262.1,251.3,260,250.6,258,250.6z"/>
  <g id="layer1">
    <polygon id="polygon4" class="st1" points="170.4,278.9 201.4,226 220.5,311.6 202.1,312.5 193.8,274.7 170.3,314.2 145.4,274.3 &#10;&#9;&#9;138.2,312.5 120.4,311.6 137.7,226.4 &#9;"/>
    <path id="path5" class="st2" d="M158,296.1c-6.3-10.6-11.2-19.5-10.9-19.7c0.3-0.3,5.6,8.1,11.9,18.7l11.4,19.2l1.8-3 c1-1.6,6.2-10.7,11.5-20.2s10.1-17.3,10.5-17.3c0.5,0,2.5,8.5,4.5,18.9l3.7,18.9l8.5,0.3c7.6,0.3,8.5,0.1,8.5-1.7 c0-2.4-17.4-82.6-18-83.2c-0.3-0.3-7.1,11.6-15.1,26.4c-8.1,14.8-15,26.9-15.3,26.9c-0.4,0-7.8-12.1-16.6-26.9 c-11.9-20.1-16.1-26.4-16.7-24.9c-1,2.5-16.3,79.1-16.3,81.7c0,1.7,0.9,1.9,7.9,1.6c9.3-0.4,7.8,2.3,12.5-23.1 c1.9-10.4,3.4-15.9,4.1-15.2c0.7,0.7,0.7,1.8,0,3.1c-0.6,1.1-2.5,9.8-4.2,19.3l-3.1,17.3h-9.7c-5.3,0-9.7-0.2-9.7-0.4 c0-0.2,4-19.9,8.8-43.8c4.9-23.9,8.8-43.6,8.8-44c0-2.9,4.2,3.3,17.8,26.3c8.7,14.8,16.1,26.8,16.4,26.8c0.3,0,6.6-11.3,14.1-25 c14-25.8,16.2-29.6,17.1-28.6c0.4,0.4,19.5,86.8,19.5,88.3c0,0.2-4.6,0.4-10.3,0.4h-10.3l-3.1-16.7c-1.7-9.2-3.4-17.6-3.8-18.6 c-0.5-1.4-3.9,3.8-11.7,17.8c-6.1,10.8-11.5,19.7-12.1,19.7C169.8,315.3,164.2,306.6,158,296.1z"/>
    <path id="path6" class="st1" d="M235.1,226.9h17.3c0.8,0,1.5,0.7,1.5,1.5v84.4c0,0.8-1.1,0.4-1.9,0.4l-17.5-0.2 c-0.8,0-1.5-0.7-1.5-1.5l0.6-83.1C233.6,227.6,234.3,226.9,235.1,226.9z"/>
    <path id="path7" class="st2" d="M233,313c-0.3-0.8-0.4-20.6-0.3-44l0.3-42.6h10.9h10.9v44v44h-10.6C236.8,314.4,233.4,314,233,313 L233,313z M253.6,270.8v-42.5l-8.8-0.8c-4.8-0.4-9.3-0.5-10-0.1c-1.4,0.8-1.8,83.8-0.4,85.1c0.4,0.4,4.9,0.7,10,0.7h9.2V270.8z"/>
    <path id="path8" class="st1" d="M351.2,213.7l-6.9,0.4l-6.8,0.7l-5.6,2.6l-3.9,1.9l-2.2,5.8l-1.6,8.7c0,0-0.3,6.4-0.4,6.8 c0,0.4,0,9.3,0,9.3l-0.1,4.8l-1.3,3.2l-2.5,2.6l-3.3,2.3h-4.5l-2,0.3v11.5l3.3,0.5l5.3,1l3.1,2.4l1.5,6.7l1.2,5.3l0.6,6.4l0.5,5.8 l0.5,4.7l1.5,8.8v3.8l4.2,2.7l5,1.3l6.6,1h6.1l2.7-1v-3.6v-5.3v-2.5l0.2-1.1H348l-3.2-0.2l-1.8-0.9l-1.3-1.3l-2.2-2.7l-0.7-4.3 l-0.5-6.1l-0.1-7.5l-0.9-5.8l-0.8-4.4l-1.5-3.4l-1.6-2.4l-2.5-1.3l-2.3-1.6l2.8-2.3l2.8-2.3l3.3-1.7l1.3-5l-0.9-4.7l1.4-3.6 l-0.6-3.3l0.9-5.1v-4.7l0.4-3.6l0.5-3l1.9-2.6l3.1-1.9l3.4-0.3h2.5L351.2,213.7z"/>
    <path id="path9" class="st1" d="M768,325.1l6.9-0.4l6.8-0.7l5.6-2.6l3.9-1.9l2.2-5.8l1.6-8.7c0,0,0.3-6.4,0.4-6.8 c0-0.4,0-9.3,0-9.3l0.1-4.8l1.3-3.2l2.5-2.6l3.3-2.3h4.5l2-0.3v-11.6l-3.3-0.5l-5.3-1l-3.1-2.4l-1.5-6.7l-1.2-5.3l-0.6-6.4 l-0.5-5.8l-0.5-4.7l-1.5-8.8v-3.8l-4.2-2.7l-5-1.3l-6.6-1h-6.1l-2.7,1v3.6v5.3v2.6l-0.2,1.1h4.4l3.2,0.2l1.8,0.9l1.3,1.3l2.2,2.7 l0.7,4.3l0.5,6.1l0.1,7.5l0.9,5.8l0.8,4.4l1.5,3.4l1.6,2.4l2.5,1.3l2.3,1.6l-2.8,2.3l-2.8,2.3l-3.3,1.7l-1.3,5l0.9,4.7l-1.4,3.6 l0.6,3.3l-0.9,5.1v4.7l-0.4,3.6l-0.5,3l-1.9,2.6l-3.1,1.9l-3.4,0.3h-2.5L768,325.1z"/>
    <path id="path10" class="st2" d="M339.9,324.8c-3.5-0.4-7.8-1.5-9.6-2.5c-4.4-2.3-5.2-5.2-6.2-24.4c-1.1-19.4-2-20.9-13.8-21.5 c-1.3-0.1-1.6-1.5-1.3-7.3l0.4-7.2h4.8c8.3,0,8.9-1.5,10-24.3c0.3-7.6,1.2-15.1,2-16.6c2-4.2,8.9-7.1,18.2-7.6l8-0.4v6.8v6.8h-3.7 c-2,0-4.5,0.6-5.5,1.4c-2.4,1.8-3.8,9.9-4,22.2c-0.2,11.6-1.2,14.7-5.6,17.2c-4.1,2.3-4.1,2.8-0.5,4.7c4.4,2.4,5.2,5,6.1,20.2 c0.9,17,2.1,19.7,8.8,19.7h4.4v7.2C352.4,327.1,353.5,326.5,339.9,324.8L339.9,324.8z M351,318.7c-0.3-5.2-0.4-5.3-4.5-5.6 c-6.4-0.5-7.5-3.1-8.5-20c-1-15.9-2-18.8-7.8-21.2c-3.5-1.5-4.6-3.4-1.9-3.4c2.3,0,7.4-4.4,8.5-7.2c0.5-1.4,1.1-7.7,1.2-14 s0.6-12.9,1.2-14.8c1.2-4.3,4.8-7.2,8.9-7.2c3.1,0,3.2-0.2,3.2-5.7v-5.7l-6.9,0.4c-8.1,0.5-15.3,3.7-17.1,7.6 c-0.7,1.5-1.7,10.4-2.3,19.7c-1.1,19.5-1.9,21.2-10,21.5l-4.7,0.2v5.8v5.8l4.9,0.7c8,1.2,8.6,2.6,10.2,22.9 c1.5,18.9,2.7,22.7,7.4,23.7c1.4,0.3,3.5,0.7,4.7,1s4.9,0.5,8.1,0.6l5.9,0.1L351,318.7z"/>
    <path id="path4-7" class="st2" d="M779.3,214c3.5,0.4,7.8,1.5,9.6,2.5c4.4,2.3,5.2,5.2,6.2,24.4c1.1,19.4,2,20.9,13.8,21.5 c1.3,0.1,1.6,1.5,1.3,7.3l-0.4,7.2H805c-8.3,0-8.9,1.5-10,24.3c-0.3,7.6-1.2,15.1-2,16.6c-2,4.2-8.9,7.1-18.2,7.6l-8,0.4V319v-6.8 h3.7c2,0,4.5-0.6,5.5-1.4c2.4-1.8,3.8-9.9,4-22.2c0.2-11.6,1.2-14.7,5.6-17.2c4.1-2.3,4.1-2.8,0.5-4.7c-4.4-2.4-5.2-5-6.1-20.2 c-0.9-17-2.1-19.7-8.8-19.7h-4.4v-7.2C766.9,211.7,765.7,212.3,779.3,214L779.3,214z M768.2,220.1c0.3,5.2,0.4,5.3,4.5,5.6 c6.4,0.5,7.5,3.1,8.5,20c1,15.9,2,18.8,7.8,21.2c3.5,1.5,4.6,3.4,1.9,3.4c-2.3,0-7.4,4.4-8.5,7.2c-0.5,1.4-1.1,7.7-1.2,14 c-0.1,6.3-0.6,12.9-1.2,14.8c-1.2,4.3-4.8,7.2-8.9,7.2c-3.1,0-3.2,0.2-3.2,5.7v5.7l6.9-0.4c8.1-0.5,15.3-3.7,17.1-7.6 c0.7-1.5,1.7-10.4,2.3-19.7c1.1-19.5,1.9-21.2,10-21.5l4.7-0.2v-5.8v-5.8l-4.9-0.7c-8-1.2-8.6-2.6-10.2-22.9 c-1.5-18.9-2.7-22.7-7.4-23.7c-1.4-0.3-3.5-0.7-4.7-1s-4.9-0.5-8.1-0.6l-5.9-0.1L768.2,220.1z"/>
    <path id="path11" class="st1" d="M430.6,251.3l-25.3-27.1l-6.7,0.6l-7.9,2.1l-12.7,7.5l-6.9,7.8l-5,12.8l-2,6.4v6.1l-1,5.1l1,6.5 l1.5,5c0,0,1.4,4.7,1.6,5c0.2,0.4,1.2,5.3,1.2,5.3l3.9,4.7l5.4,3.3l3.1,3.9l3.5,1.2l4.9,3.7l5.6,0.8l6,2.4l4.4,0.9l4.6-0.9h5.1 l4.4-0.8l6.8-2.1l2.8-2.9l3.3-1.6l1-1.5v-19.3l-2.2,0.1l-3.8,2.9l-3,1.6l-3.2,1.3l-3,1.9l-4.6,0.3l-2.6,0.5l-4,0.1l-4.2-0.7 l-3.1-0.9l-3.4-1.7l-2.4-0.4l-0.8-1.8l-2.8-0.4l-1.9-1.6l-1.6-2.8l-1.3-2.3l-1.1-2.7l-0.1-4v-2.2l-0.8-3.7l-0.1-3.3l0.4-2.3 l0.9-2.7l1.6-2.2l1.1-3.1l1.9-2.4l0.9-2.8l1.9-1.6l2-2.4l3.2-1.6l3.1-0.9l3.4-0.8l2-0.4l2.2-0.7l2.4,0.3l1.9,0.3l1.9,0.1l3.8,1.2 l3.2,2.3c0,0,1.8,1.7,2.4,2.1c0.6,0.4,4.5,3.3,4.5,3.3l3.2,0.5l1.6-21l-5.3-3.1l-6.4-1.2l-3.9-0.6l-6.1-2.5l-7.6-0.8L430.6,251.3z"/>
    <path id="path12" class="st2" d="M396.4,314.1c-13.1-4.3-25.1-13.6-30-23c-3.9-7.5-4.6-28.7-1.2-38.4c1.3-3.7,5.8-11,9.9-15.7 c2.3-2.7,9.8-7.4,16.8-10.6c10-4.5,19.2-4,35.5,2.1l6.5,2.4l-0.7,10c-1.1,14.9-0.7,14.6-8.5,8.9c-7.4-5.5-11.8-6.7-19.5-5.6 c-10.3,1.6-14.9,5.4-19.2,16.2c-1.8,4.7-2.2,7.2-1.6,12.6c0.4,3.7,1.5,8.3,2.4,10.2c1.7,3.6,7.5,8.3,12.9,10.3 c7.7,2.9,21.4,0.3,29.1-5.4c2.4-1.8,4.7-3.3,5.2-3.4c0.4,0,0.6,3.8,0.3,8.6c-0.3,4.7-0.5,10-0.5,11.7c0,2.7-0.9,3.5-7.5,6.6 c-6,2.8-9.1,3.5-16.3,3.8C404.4,315.5,399.1,315,396.4,314.1L396.4,314.1z M425,310.4l7.2-3.4l0.5-9.8c0.3-5.4,0.4-10,0.2-10.2 c-0.1-0.2-2.3,1.1-4.8,2.9c-8.4,6.1-22.1,7.7-31.1,3.7c-9.9-4.4-14.4-12.3-14.4-25.6c0-5.4,5.5-16.7,9.9-20.4c7.6-6.4,22-7,30-1.3 c7.4,5.3,7.7,5.4,8.1,4.9c0.3-0.3,0.8-4.8,1.2-10.1l0.8-9.6l-10.6-3.4c-16.7-5.4-24.7-4.5-38.1,4c-16.8,10.7-22.9,28-18.3,51.9 c1,5.4,3.6,9.6,9.6,15.9c6.3,6.6,9,8.2,19.6,12.1C404.8,315.6,414.9,315.1,425,310.4L425,310.4z"/>
    <path id="path13" class="st1" d="M617.2,257.7l-2.4-7.3l-3.5-5.5l-5.1-5.8l-5.4-2.9l-4.9-4.8l-9-3.1l-10.6-1.2l-11.8-0.7l-9.4-0.8 l-9.4,0.8l-1.1,86.7l5.5-1.2h6.9h8.7l8.8-1.6l6.8-0.6l6.4-0.9l7.8-1.6l4.6-4.7l4.9-4.4l2.8-3.1l3.3-4.5l2.9-5l2.8-5.8l1.3-6 l0.1-6.7L617.2,257.7z M595.2,276.8l-2.1,6.2l-6.1,7.2l-9.4,2.1l-11.4-0.3l-1.7-1.5l1.1-45.5l8.3,0.8l9.7,2.4l5.4,1.5l5.7,6.5 l3.2,10.3L595.2,276.8z"/>
    <path id="path14" class="st2" d="M544.6,269.4v-43.9h3c13.6,0.2,38.4,2.4,42.9,3.7c10.6,3.3,23.4,16.1,26,26.1 c1.7,6.3,2.1,15.5,1.1,22.7c-1.6,11-13,25.6-23.5,30c-5.8,2.4-15.8,3.8-33.2,4.6l-16.3,0.7V269.4z M578.9,310.2 c3.4-0.3,7.7-1,9.7-1.6c9.6-2.5,19.9-11.8,25.3-22.8c2.5-5.1,2.9-7.3,2.8-16c0-5.6-0.6-12-1.4-14.2c-1.9-5.8-8.2-14.1-14.6-19.1 c-8.3-6.5-15-8-43.2-9.3l-11.9-0.6v42.7V312l13.6-0.7C566.7,311.1,575.6,310.5,578.9,310.2L578.9,310.2z M564.5,269.4 c0-13.6,0.2-25,0.6-25.3c0.9-0.9,14.1,1.1,18.9,3c15.7,5.9,19,29.5,5.7,41.2c-4.3,3.8-6.6,4.5-17.7,5.3l-7.5,0.5V269.4z M582.9,290.8c5-1.5,10.2-7.5,12.6-14.5c2-5.8,2.1-6.6,0.5-12.7c-3.1-11.8-8.5-15.8-24-17.7l-6.4-0.8v23.2 c0,12.8,0.2,23.5,0.6,23.8C567,293,579,292,582.9,290.8L582.9,290.8z"/>
    <polygon id="polygon14" class="st1" points="651.7,243.4 651,259.8 678.9,260.6 678.9,276.1 651.2,276.1 651.2,294.9 684.5,294.9 &#10;&#9;&#9;683.9,311 632,311.9 632.9,226.8 683.9,226.8 683.9,243.4 &#9;"/>
    <path id="path15" class="st2" d="M632,312.4c-0.4-0.4-0.7-20.1-0.7-43.8v-43h27.2h27.2v10v10h-16.6h-16.6v7.2v7.2h13.9H680v8.9v8.9 h-13.9h-13.9v8.4v8.4l16.3-0.2l16.3-0.2l0.3,9.5l0.3,9.5h-26.5C644.6,313.2,632.4,312.8,632,312.4L632,312.4z M684.2,303.5l0.3-8 h-16.7h-16.7v-9.4v-9.4H665h13.9v-7.8v-7.8h-13.8c-7.6,0-13.9-0.4-14.1-0.8c-0.2-0.5-0.1-4.3,0.2-8.6l0.6-7.8h16.1H684v-8.3v-8.3 h-25.5H633l-0.3,41c-0.2,22.5,0,41.6,0.3,42.4c0.4,1.1,6.2,1.3,25.8,1.1l25.2-0.3L684.2,303.5z"/>
    <path id="path16" class="st1" d="M743.3,228.3l-8-1.6l-7.4-1.9h-6.1l-4.9,0.4l-7.3,1.3l-5.4,2.6l-2.8,3.9l-3.7,3.2l-1.9,5.2v7.4 l-1.1,4.5l1.1,2.6l1.8,3.8l3,3.5l3.1,3l3.7,3l3.2,1.4l3.1,3l4.3,2.6l4.2,1.2l2.6,3.8c0,0,2.8,2.7,3.4,3.4c0.6,0.7,3,1.4,3,1.4 l0.5,3.4l-2.3,1.5l-0.5,3.1l-3.7,0.6l-4.7,1.2h-3.7l-4.5-0.8l-5.1-2.1l-5-1.3l-5.9-2.8l1,22.2l5,1.7l4.8-0.2l6.8,1.4h4.9h4.8 l6.1-1.3l5.6-1.7l3.8-2.1l3.1-2.5l3.5-4.3l3.4-3.8l0.6-4.3l1.1-6.2l-1.1-5.3l-1-4l-1.8-4l-4.4-4.4l-3.6-3.7l-4.2-3.2l-4-2.8l-5.5-3 l-4-1.8l-4-3.6l-1.6-2l-1.1-4.7l1.7-2.6l3-2l3.7-0.9l3.2,0.1l4.3,1l4.2,1.6l3.5,1.6l1.6,0.9l3.6,2.2L743.3,228.3z"/>
    <path id="path17" class="st2" d="M705.4,313.5c-4.1-1-7.6-2.1-7.9-2.4c-0.4-0.4-2-17.9-2.1-22.2c0-2.2,0.9-2,6.2,1 c10.1,5.8,14.8,7,21,5.6c4.1-1,5.7-2,7-4.5c1.6-3.1,1.5-3.3-2.2-7.4c-2.1-2.3-7.2-6.2-11.4-8.6c-8.8-5.1-16-11.3-19.3-16.8 c-2-3.3-2.3-4.9-1.7-11.1c1-10.5,4.5-15.9,13.1-20.2c8-4,14.1-4.3,28-1.4l8.8,1.8l-0.2,10c-0.1,5.5-0.4,10.1-0.6,10.3 c-0.2,0.2-3.7-1.3-7.8-3.2c-7.9-3.7-14-4.4-18.2-2.2c-2,1.1-2.4,2.1-2.1,5.4c0.3,3.9,0.7,4.3,12.2,10.7c18.7,10.5,23,15.9,23,29.4 c0,5.8-0.6,8.5-3,13.3c-2.7,5.3-3.9,6.4-10.4,9.7C728.4,315.5,716.9,316.4,705.4,313.5L705.4,313.5z M732.4,312.1 c10.6-2.9,17.3-12.2,17.4-24.1c0.1-12.1-5.6-19.2-22.9-28.7c-8.4-4.6-11.6-6.9-12.3-9.1c-2.8-8.2,5.1-13,15.7-9.5 c3.1,1,7.3,2.8,9.3,4.1l3.6,2.2v-9.3v-9.3l-8-1.6c-12.7-2.5-21.7-2-27.8,1.6c-2.8,1.6-6.1,4.5-7.4,6.3c-2.8,3.9-5.1,15-4,19.4 s11.1,14.5,18.3,18.5c8,4.5,15.5,10.5,16.9,13.7c1.9,4.2-1.4,8.9-7.3,10.4c-7.3,1.8-8.2,1.7-18.3-3.2l-9.2-4.5l0.8,10.3 c0.4,5.6,1.1,10.6,1.5,11s4.2,1.5,8.5,2.4C715.3,314.3,725.1,314.1,732.4,312.1L732.4,312.1z"/>
    <path id="path18" class="st3" d="M432.2,332.8l-1.6,3.2l0.3,3.2l2.2,0.8h2.1l1.9-2.1l0.9-1.2l0.3-2.5L437,333c0,0-2.3-0.3-2.5-0.2 C434.3,332.9,432.2,332.8,432.2,332.8L432.2,332.8z"/>
    <path id="path19" class="st4" d="M467.7,238.8l7.7-5l5.4-1.1l5-1.4l4.3,0.4l3.8-0.4l5.8,1.6l4.4,2.2l3.9,2l3.8,3.6l3.7,3.8l3.4,3.7 l2.7,4.6l2.6,7.3l1.1,6.2v7.3l-0.2,6.3c0,0-2.1,5.4-2.1,5.9s-2.8,6-2.8,6s-2.9,3.2-3.3,3.8c-0.4,0.5-4.1,3.1-4.1,3.1 s-2.8,2.6-3.3,3.3c-0.5,0.7-5,2.1-5,2.1l-5.5,2l-5.3,1l-6.9-0.3l-4-0.7l-4.5-1.5L475,303c0,0-2.9-2.5-3.6-2.3 c-0.7,0.3-4.2-3.1-4.2-3.1l-3.1-4.1l-5.3-6.9l-2-5.7l-1.7-6.3l-0.6-5.9l0.6-7l1.9-7.7l1.9-5.2c0,0,3.8-3.1,3.6-3.7 c-0.2-0.6,1-2.3,1-2.3L467.7,238.8z"/>
    <polygon id="polygon19" class="st3" points="448.6,313 445.5,317 440.2,323 436.3,327.7 432.6,332.5 435.4,332.5 438,333.4 &#10;&#9;&#9;438.8,335.5 438.6,336.4 440.3,335.3 465,306.2 459,300.7 458.5,301.3 453.3,307.3 &#9;"/>
    <path id="path20" class="st3" d="M532.9,266.4l-1.5-8l-2.3-6.7l-3.1-5.1l-4.6-7.2l-4.2-4.2l-4.5-3.5l-7.1-4l-8.2-2.7l-8.3-0.9 l-7.6,0.9l-5.5,1.9l-4.1,1.7l-3.4,0.7l-3.1,2.4l-3.3,3.8l-2.2,2.3l-2.1,2.5l-1.6,2.2l-2.3,2.7l-1.3,3.8l-2.3,4.3l-0.7,2.6l-1,3.1 l-1.3,5.1c0,0-0.1,7.7-0.1,8.1s1.4,7.4,1.4,7.4l0.3,5.2l5.1,9.5l4.3,4.6l5.7,5.5l3.9,3.8l6.3,3.1l6.8,1.7c0,0,7.7,1.5,8.1,2.2 c0.4,0.6,9.4,0.1,9.4,0.1l8.8-2.7l7-3.9l5.3-4.4l6.4-7.9l4.6-9.6l2.4-12.4L532.9,266.4z M525.9,275.1l-1.2,6.6l-1.9,5.4l-3.3,6 l-3.2,4l-3.7,3.5l-4.7,3.1l-3.7,1.8l-4.7,1.6l-5,1h-6.1l-7.9-1.2l-5-2.3l-4.7-4.4l-4.9-3l-1.7-3.6l-4.7-5.1l-1.5-6l-2.3-3.7v-5 l-1.3-3.4l0.9-5.2v-3.4l1.6-6.5l2.1-6.4l1.3-2.2l6.3-7.2l9.1-5.7l6.5-2.1l8.5-0.9l6.8,0.9l6.6,2.3l5.3,3l3.8,3l4.2,4.5l3.1,4.5 l2.5,5l1.5,4.2l1,6.3l0.9,5.5L525.9,275.1z"/>
    <path id="path21" class="st2" d="M430.5,338.2 c-1.1-2.4-1.4-2.9,13.7-20.7l14.4-17.1l-3.7-4.1c-6.1-6.8-7.4-16.9-7.6-26.8c-0.4-23.6,15.4-43.1,37.3-45.2 c25.5-2.4,48,18.8,48.5,46.2c0.4,23.6-16.1,43.2-38,45.3c-9.2,0.9-21.4-2.8-26.3-6.4l-3.6-2.6l-14.3,17.1 c-7.8,9.3-14.9,16.7-15.4,16.9c-1,0.4-3.4-0.1-4.1-0.9C431.2,339.5,430.7,338.8,430.5,338.2L430.5,338.2z M433.5,340 c1.7,0.2,4.5-2.2,4.6-4.2c0.1-2.7-2.2-3.7-5.2-2.5c-1.8,0.7-1.7,1.3-1.9,3.4C431.3,338.8,431.6,339.8,433.5,340L433.5,340z M437.6,332.8c0.6,0.6,1.1,1.9,1.2,2.7c0.1,1.4,0,0.4,12.6-14.1l13.1-15.1l-2.7-2.6l-2.8-2.4l-12.5,15.3L433.2,332l1.5-0.2 C435.5,331.7,437,332.2,437.6,332.8L437.6,332.8z M467.5,306.9c12.7,8.3,29.5,10.1,42.4,3c17.1-9.4,26.2-30.7,20.9-50.5 c-6.3-23.1-24.2-35.7-45.6-34.3c-10.4,0.6-19.4,6.1-25.9,13.8c-7,8.1-10.7,19.4-10.5,31.2c0.1,6.6,1.3,11.7,1.7,13 c0.7,2.5,2,7.3,5.6,12.5C455.8,295.6,460.3,302.2,467.5,306.9z M461.1,291.5c-9.7-15.1-9.4-35.2,1.5-48.2c9-10.8,25-15.3,38.2-10.5 c27.4,10,34.4,49.6,11.7,67.8c-8.1,6.5-20.2,9.3-30.4,6.6C474.5,305.3,465.4,298.2,461.1,291.5z M475.7,303.4 c9.2,4.6,19.9,4.8,28.8,0.7c20.8-9.7,27-36.3,13.5-56.5c-11.5-17.1-34.1-21-49.5-8.6c-15.2,12.2-17.6,34.5-6.4,51.9 C465,295.3,470.8,300.9,475.7,303.4z"/>
    <path id="path2-9" class="st5" d=" M468.8,252.8c-1.8,0.8-3.6,1-3.8-2.2c-0.1-3.2,3.5-8.3,6.6-10.5s7.9-3.6,11.3-2.7c3.4,0.9,3.5,2.7,2.1,4.1c-1.3,1.4-6.1,2-9.4,4.3 C472.5,248,470.6,252,468.8,252.8L468.8,252.8z"/>
  </g>
  <path id="path22" class="st6" d="M561.3,245.2"/>
  <path id="path23" class="st7" d="M534.8,242.9"/>
  <path class="st8" d="M399.1,229.5c-0.5-1-4.1,0-5.6,0.3c-2.4,0.6-3.9,1.4-4.3,1.6c-2.1,1.2-4.9,3.4-4.6,4.2c0.2,0.5,1.5,0.4,3.2,0.2 c2.4-0.2,4.6-0.4,7-1.8C397.1,232.8,399.5,230.4,399.1,229.5z"/>
  <path class="st9" d="M436.5,102.5"/>
  <path class="st8" d="M335,218.3c-0.1-0.6-1.7,0-2.3,0.2c-1,0.4-1.7,0.8-1.8,1c-0.9,0.7-2.2,2-2.1,2.5c0.1,0.3,0.6,0.2,1.3,0.1 c1-0.1,1.9-0.3,3-1.1C334,220.2,335.1,218.8,335,218.3z"/>
  <path class="st8" d="M716.9,227.8c-0.7-1.1-4.5,0.6-6.1,1.3c-2.6,1.1-4.2,2.4-4.5,2.7c-2.2,1.8-5,4.9-4.4,5.9 c0.3,0.6,1.7,0.3,3.5-0.2c2.6-0.6,5.1-1.3,7.5-3.3C715.2,232.1,717.5,228.8,716.9,227.8z"/>
  <path class="st8" d="M783.8,279.7c0.2,0.8,1.9-0.3,2.5-0.7c1.1-0.7,1.8-1.6,2-1.8c1-1.2,2.3-3.4,2.2-4.1c-0.1-0.4-0.7-0.2-1.4,0 c-1.1,0.4-2.1,0.7-3.3,2.2C784.8,276.6,783.6,278.9,783.8,279.7z"/>
</svg>